M48
;DRILL file {KiCad (5.0.1)-3} date 07-Nov-18 10:07:21 PM
;FORMAT={-:-/ absolute / inch / decimal}
FMAT,2
INCH,TZ
T1C0.0157
T2C0.0256
T3C0.0394
T4C0.0472
T5C0.0551
T6C0.0866
T7C0.1260
%
G90
G05
M72
T1
X7.315Y-2.17
X7.385Y-2.73
X7.41Y-1.89
X7.45Y-1.6
X7.5Y-2.045
X7.5Y-2.385
X7.5Y-2.55
X7.505Y-2.505
X7.54Y-2.175
X7.55Y-2.805
X7.5596Y-2.3654
X7.56Y-2.735
X7.585Y-2.055
X7.61Y-3.02
X7.635Y-2.555
X7.65Y-2.805
X7.7Y-1.75
X7.71Y-2.22
X7.77Y-2.45
X7.82Y-2.45
X7.835Y-3.215
X7.84Y-1.905
X7.87Y-1.99
X7.87Y-2.86
X7.92Y-2.25
X7.925Y-2.74
X7.955Y-1.97
X8.005Y-1.73
X8.055Y-2.41
X8.09Y-2.15
X8.155Y-1.77
T2
X7.935Y-3.135
X7.985Y-3.135
T3
X7.545Y-3.36
X7.5995Y-3.4718
X7.6541Y-3.36
X7.7086Y-3.4718
X7.7631Y-3.36
X7.8176Y-3.4718
X7.8722Y-3.36
X7.9267Y-3.4718
X7.9812Y-3.36
T4
X7.6024Y-1.5282
X7.9076Y-1.5282
T5
X7.6083Y-1.6778
X7.9017Y-1.6778
T6
X7.27Y-3.065
X8.255Y-1.62
X7.27Y-1.62
X8.255Y-3.065
T7
X7.271Y-3.3718
X8.2552Y-3.3718
T0
M30
