G04 #@! TF.GenerationSoftware,KiCad,Pcbnew,(5.0.1)-3*
G04 #@! TF.CreationDate,2018-11-07T22:07:08+02:00*
G04 #@! TF.ProjectId,stm32-can,73746D33322D63616E2E6B696361645F,rev?*
G04 #@! TF.SameCoordinates,Original*
G04 #@! TF.FileFunction,Soldermask,Top*
G04 #@! TF.FilePolarity,Negative*
%FSLAX46Y46*%
G04 Gerber Fmt 4.6, Leading zero omitted, Abs format (unit mm)*
G04 Created by KiCad (PCBNEW (5.0.1)-3) date 07-Nov-18 10:07:08 PM*
%MOMM*%
%LPD*%
G01*
G04 APERTURE LIST*
%ADD10C,0.100000*%
G04 APERTURE END LIST*
D10*
G36*
X193203770Y-87199372D02*
X193319689Y-87222429D01*
X193501678Y-87297811D01*
X193665463Y-87407249D01*
X193804751Y-87546537D01*
X193914189Y-87710322D01*
X193989571Y-87892311D01*
X194028000Y-88085509D01*
X194028000Y-88282491D01*
X193989571Y-88475689D01*
X193914189Y-88657678D01*
X193804751Y-88821463D01*
X193665463Y-88960751D01*
X193501678Y-89070189D01*
X193319689Y-89145571D01*
X193203770Y-89168628D01*
X193126493Y-89184000D01*
X192929507Y-89184000D01*
X192852230Y-89168628D01*
X192736311Y-89145571D01*
X192554322Y-89070189D01*
X192390537Y-88960751D01*
X192251249Y-88821463D01*
X192141811Y-88657678D01*
X192066429Y-88475689D01*
X192028000Y-88282491D01*
X192028000Y-88085509D01*
X192066429Y-87892311D01*
X192141811Y-87710322D01*
X192251249Y-87546537D01*
X192390537Y-87407249D01*
X192554322Y-87297811D01*
X192736311Y-87222429D01*
X192852230Y-87199372D01*
X192929507Y-87184000D01*
X193126493Y-87184000D01*
X193203770Y-87199372D01*
X193203770Y-87199372D01*
G37*
G36*
X198743770Y-87199372D02*
X198859689Y-87222429D01*
X199041678Y-87297811D01*
X199205463Y-87407249D01*
X199344751Y-87546537D01*
X199454189Y-87710322D01*
X199529571Y-87892311D01*
X199568000Y-88085509D01*
X199568000Y-88282491D01*
X199529571Y-88475689D01*
X199454189Y-88657678D01*
X199344751Y-88821463D01*
X199205463Y-88960751D01*
X199041678Y-89070189D01*
X198859689Y-89145571D01*
X198743770Y-89168628D01*
X198666493Y-89184000D01*
X198469507Y-89184000D01*
X198392230Y-89168628D01*
X198276311Y-89145571D01*
X198094322Y-89070189D01*
X197930537Y-88960751D01*
X197791249Y-88821463D01*
X197681811Y-88657678D01*
X197606429Y-88475689D01*
X197568000Y-88282491D01*
X197568000Y-88085509D01*
X197606429Y-87892311D01*
X197681811Y-87710322D01*
X197791249Y-87546537D01*
X197930537Y-87407249D01*
X198094322Y-87297811D01*
X198276311Y-87222429D01*
X198392230Y-87199372D01*
X198469507Y-87184000D01*
X198666493Y-87184000D01*
X198743770Y-87199372D01*
X198743770Y-87199372D01*
G37*
G36*
X201513770Y-87199372D02*
X201629689Y-87222429D01*
X201811678Y-87297811D01*
X201975463Y-87407249D01*
X202114751Y-87546537D01*
X202224189Y-87710322D01*
X202299571Y-87892311D01*
X202338000Y-88085509D01*
X202338000Y-88282491D01*
X202299571Y-88475689D01*
X202224189Y-88657678D01*
X202114751Y-88821463D01*
X201975463Y-88960751D01*
X201811678Y-89070189D01*
X201629689Y-89145571D01*
X201513770Y-89168628D01*
X201436493Y-89184000D01*
X201239507Y-89184000D01*
X201162230Y-89168628D01*
X201046311Y-89145571D01*
X200864322Y-89070189D01*
X200700537Y-88960751D01*
X200561249Y-88821463D01*
X200451811Y-88657678D01*
X200376429Y-88475689D01*
X200338000Y-88282491D01*
X200338000Y-88085509D01*
X200376429Y-87892311D01*
X200451811Y-87710322D01*
X200561249Y-87546537D01*
X200700537Y-87407249D01*
X200864322Y-87297811D01*
X201046311Y-87222429D01*
X201162230Y-87199372D01*
X201239507Y-87184000D01*
X201436493Y-87184000D01*
X201513770Y-87199372D01*
X201513770Y-87199372D01*
G37*
G36*
X195973770Y-87199372D02*
X196089689Y-87222429D01*
X196271678Y-87297811D01*
X196435463Y-87407249D01*
X196574751Y-87546537D01*
X196684189Y-87710322D01*
X196759571Y-87892311D01*
X196798000Y-88085509D01*
X196798000Y-88282491D01*
X196759571Y-88475689D01*
X196684189Y-88657678D01*
X196574751Y-88821463D01*
X196435463Y-88960751D01*
X196271678Y-89070189D01*
X196089689Y-89145571D01*
X195973770Y-89168628D01*
X195896493Y-89184000D01*
X195699507Y-89184000D01*
X195622230Y-89168628D01*
X195506311Y-89145571D01*
X195324322Y-89070189D01*
X195160537Y-88960751D01*
X195021249Y-88821463D01*
X194911811Y-88657678D01*
X194836429Y-88475689D01*
X194798000Y-88282491D01*
X194798000Y-88085509D01*
X194836429Y-87892311D01*
X194911811Y-87710322D01*
X195021249Y-87546537D01*
X195160537Y-87407249D01*
X195324322Y-87297811D01*
X195506311Y-87222429D01*
X195622230Y-87199372D01*
X195699507Y-87184000D01*
X195896493Y-87184000D01*
X195973770Y-87199372D01*
X195973770Y-87199372D01*
G37*
G36*
X185324716Y-83528544D02*
X185725090Y-83694384D01*
X186085421Y-83935150D01*
X186391850Y-84241579D01*
X186632616Y-84601910D01*
X186798456Y-85002284D01*
X186883000Y-85427317D01*
X186883000Y-85860683D01*
X186798456Y-86285716D01*
X186632616Y-86686090D01*
X186391850Y-87046421D01*
X186085421Y-87352850D01*
X185725090Y-87593616D01*
X185324716Y-87759456D01*
X184899683Y-87844000D01*
X184466317Y-87844000D01*
X184041284Y-87759456D01*
X183640910Y-87593616D01*
X183280579Y-87352850D01*
X182974150Y-87046421D01*
X182733384Y-86686090D01*
X182567544Y-86285716D01*
X182483000Y-85860683D01*
X182483000Y-85427317D01*
X182567544Y-85002284D01*
X182733384Y-84601910D01*
X182974150Y-84241579D01*
X183280579Y-83935150D01*
X183640910Y-83694384D01*
X184041284Y-83528544D01*
X184466317Y-83444000D01*
X184899683Y-83444000D01*
X185324716Y-83528544D01*
X185324716Y-83528544D01*
G37*
G36*
X210324716Y-83528544D02*
X210725090Y-83694384D01*
X211085421Y-83935150D01*
X211391850Y-84241579D01*
X211632616Y-84601910D01*
X211798456Y-85002284D01*
X211883000Y-85427317D01*
X211883000Y-85860683D01*
X211798456Y-86285716D01*
X211632616Y-86686090D01*
X211391850Y-87046421D01*
X211085421Y-87352850D01*
X210725090Y-87593616D01*
X210324716Y-87759456D01*
X209899683Y-87844000D01*
X209466317Y-87844000D01*
X209041284Y-87759456D01*
X208640910Y-87593616D01*
X208280579Y-87352850D01*
X207974150Y-87046421D01*
X207733384Y-86686090D01*
X207567544Y-86285716D01*
X207483000Y-85860683D01*
X207483000Y-85427317D01*
X207567544Y-85002284D01*
X207733384Y-84601910D01*
X207974150Y-84241579D01*
X208280579Y-83935150D01*
X208640910Y-83694384D01*
X209041284Y-83528544D01*
X209466317Y-83444000D01*
X209899683Y-83444000D01*
X210324716Y-83528544D01*
X210324716Y-83528544D01*
G37*
G36*
X200128770Y-84359372D02*
X200244689Y-84382429D01*
X200426678Y-84457811D01*
X200590463Y-84567249D01*
X200729751Y-84706537D01*
X200839189Y-84870322D01*
X200914571Y-85052311D01*
X200953000Y-85245509D01*
X200953000Y-85442491D01*
X200914571Y-85635689D01*
X200839189Y-85817678D01*
X200729751Y-85981463D01*
X200590463Y-86120751D01*
X200426678Y-86230189D01*
X200244689Y-86305571D01*
X200128770Y-86328628D01*
X200051493Y-86344000D01*
X199854507Y-86344000D01*
X199777230Y-86328628D01*
X199661311Y-86305571D01*
X199479322Y-86230189D01*
X199315537Y-86120751D01*
X199176249Y-85981463D01*
X199066811Y-85817678D01*
X198991429Y-85635689D01*
X198953000Y-85442491D01*
X198953000Y-85245509D01*
X198991429Y-85052311D01*
X199066811Y-84870322D01*
X199176249Y-84706537D01*
X199315537Y-84567249D01*
X199479322Y-84457811D01*
X199661311Y-84382429D01*
X199777230Y-84359372D01*
X199854507Y-84344000D01*
X200051493Y-84344000D01*
X200128770Y-84359372D01*
X200128770Y-84359372D01*
G37*
G36*
X202898770Y-84359372D02*
X203014689Y-84382429D01*
X203196678Y-84457811D01*
X203360463Y-84567249D01*
X203499751Y-84706537D01*
X203609189Y-84870322D01*
X203684571Y-85052311D01*
X203723000Y-85245509D01*
X203723000Y-85442491D01*
X203684571Y-85635689D01*
X203609189Y-85817678D01*
X203499751Y-85981463D01*
X203360463Y-86120751D01*
X203196678Y-86230189D01*
X203014689Y-86305571D01*
X202898770Y-86328628D01*
X202821493Y-86344000D01*
X202624507Y-86344000D01*
X202547230Y-86328628D01*
X202431311Y-86305571D01*
X202249322Y-86230189D01*
X202085537Y-86120751D01*
X201946249Y-85981463D01*
X201836811Y-85817678D01*
X201761429Y-85635689D01*
X201723000Y-85442491D01*
X201723000Y-85245509D01*
X201761429Y-85052311D01*
X201836811Y-84870322D01*
X201946249Y-84706537D01*
X202085537Y-84567249D01*
X202249322Y-84457811D01*
X202431311Y-84382429D01*
X202547230Y-84359372D01*
X202624507Y-84344000D01*
X202821493Y-84344000D01*
X202898770Y-84359372D01*
X202898770Y-84359372D01*
G37*
G36*
X197358770Y-84359372D02*
X197474689Y-84382429D01*
X197656678Y-84457811D01*
X197820463Y-84567249D01*
X197959751Y-84706537D01*
X198069189Y-84870322D01*
X198144571Y-85052311D01*
X198183000Y-85245509D01*
X198183000Y-85442491D01*
X198144571Y-85635689D01*
X198069189Y-85817678D01*
X197959751Y-85981463D01*
X197820463Y-86120751D01*
X197656678Y-86230189D01*
X197474689Y-86305571D01*
X197358770Y-86328628D01*
X197281493Y-86344000D01*
X197084507Y-86344000D01*
X197007230Y-86328628D01*
X196891311Y-86305571D01*
X196709322Y-86230189D01*
X196545537Y-86120751D01*
X196406249Y-85981463D01*
X196296811Y-85817678D01*
X196221429Y-85635689D01*
X196183000Y-85442491D01*
X196183000Y-85245509D01*
X196221429Y-85052311D01*
X196296811Y-84870322D01*
X196406249Y-84706537D01*
X196545537Y-84567249D01*
X196709322Y-84457811D01*
X196891311Y-84382429D01*
X197007230Y-84359372D01*
X197084507Y-84344000D01*
X197281493Y-84344000D01*
X197358770Y-84359372D01*
X197358770Y-84359372D01*
G37*
G36*
X194588770Y-84359372D02*
X194704689Y-84382429D01*
X194886678Y-84457811D01*
X195050463Y-84567249D01*
X195189751Y-84706537D01*
X195299189Y-84870322D01*
X195374571Y-85052311D01*
X195413000Y-85245509D01*
X195413000Y-85442491D01*
X195374571Y-85635689D01*
X195299189Y-85817678D01*
X195189751Y-85981463D01*
X195050463Y-86120751D01*
X194886678Y-86230189D01*
X194704689Y-86305571D01*
X194588770Y-86328628D01*
X194511493Y-86344000D01*
X194314507Y-86344000D01*
X194237230Y-86328628D01*
X194121311Y-86305571D01*
X193939322Y-86230189D01*
X193775537Y-86120751D01*
X193636249Y-85981463D01*
X193526811Y-85817678D01*
X193451429Y-85635689D01*
X193413000Y-85442491D01*
X193413000Y-85245509D01*
X193451429Y-85052311D01*
X193526811Y-84870322D01*
X193636249Y-84706537D01*
X193775537Y-84567249D01*
X193939322Y-84457811D01*
X194121311Y-84382429D01*
X194237230Y-84359372D01*
X194314507Y-84344000D01*
X194511493Y-84344000D01*
X194588770Y-84359372D01*
X194588770Y-84359372D01*
G37*
G36*
X192643000Y-86344000D02*
X190643000Y-86344000D01*
X190643000Y-84344000D01*
X192643000Y-84344000D01*
X192643000Y-86344000D01*
X192643000Y-86344000D01*
G37*
G36*
X199382000Y-81018000D02*
X198382000Y-81018000D01*
X198382000Y-79068000D01*
X199382000Y-79068000D01*
X199382000Y-81018000D01*
X199382000Y-81018000D01*
G37*
G36*
X195572000Y-81018000D02*
X194572000Y-81018000D01*
X194572000Y-79068000D01*
X195572000Y-79068000D01*
X195572000Y-81018000D01*
X195572000Y-81018000D01*
G37*
G36*
X196842000Y-81018000D02*
X195842000Y-81018000D01*
X195842000Y-79068000D01*
X196842000Y-79068000D01*
X196842000Y-81018000D01*
X196842000Y-81018000D01*
G37*
G36*
X198112000Y-81018000D02*
X197112000Y-81018000D01*
X197112000Y-79068000D01*
X198112000Y-79068000D01*
X198112000Y-81018000D01*
X198112000Y-81018000D01*
G37*
G36*
X192341000Y-80940000D02*
X190691000Y-80940000D01*
X190691000Y-79040000D01*
X192341000Y-79040000D01*
X192341000Y-80940000D01*
X192341000Y-80940000D01*
G37*
G36*
X193869000Y-80932000D02*
X192719000Y-80932000D01*
X192719000Y-79332000D01*
X193869000Y-79332000D01*
X193869000Y-80932000D01*
X193869000Y-80932000D01*
G37*
G36*
X201686224Y-78939128D02*
X201818175Y-78979155D01*
X201877189Y-79010699D01*
X201935076Y-79041640D01*
X201957715Y-79051018D01*
X201981748Y-79055798D01*
X202006253Y-79055798D01*
X202030286Y-79051017D01*
X202052925Y-79041640D01*
X202073300Y-79028026D01*
X202090627Y-79010699D01*
X202104240Y-78990324D01*
X202113618Y-78967685D01*
X202119000Y-78931400D01*
X202119000Y-78929000D01*
X203519000Y-78929000D01*
X203519000Y-80329000D01*
X202119000Y-80329000D01*
X202119000Y-80326600D01*
X202116598Y-80302214D01*
X202109485Y-80278765D01*
X202097934Y-80257154D01*
X202082388Y-80238212D01*
X202063446Y-80222666D01*
X202041835Y-80211115D01*
X202018386Y-80204002D01*
X201994000Y-80201600D01*
X201969614Y-80204002D01*
X201935075Y-80216360D01*
X201818175Y-80278845D01*
X201686224Y-80318872D01*
X201583390Y-80329000D01*
X201514610Y-80329000D01*
X201411776Y-80318872D01*
X201279825Y-80278845D01*
X201158219Y-80213845D01*
X201051630Y-80126370D01*
X200964155Y-80019781D01*
X200899155Y-79898175D01*
X200859128Y-79766224D01*
X200845613Y-79629000D01*
X200859128Y-79491776D01*
X200899155Y-79359825D01*
X200964155Y-79238219D01*
X201051630Y-79131630D01*
X201158219Y-79044155D01*
X201279825Y-78979155D01*
X201411776Y-78939128D01*
X201514610Y-78929000D01*
X201583390Y-78929000D01*
X201686224Y-78939128D01*
X201686224Y-78939128D01*
G37*
G36*
X210289547Y-75831701D02*
X210671722Y-75990003D01*
X210671723Y-75990004D01*
X211015672Y-76219823D01*
X211308177Y-76512328D01*
X211344039Y-76566000D01*
X211537997Y-76856278D01*
X211696299Y-77238453D01*
X211777000Y-77644167D01*
X211777000Y-78057833D01*
X211696299Y-78463547D01*
X211537997Y-78845722D01*
X211537996Y-78845723D01*
X211308177Y-79189672D01*
X211015672Y-79482177D01*
X210795935Y-79629000D01*
X210671722Y-79711997D01*
X210289547Y-79870299D01*
X209883833Y-79951000D01*
X209470167Y-79951000D01*
X209064453Y-79870299D01*
X208682278Y-79711997D01*
X208558065Y-79629000D01*
X208338328Y-79482177D01*
X208045823Y-79189672D01*
X207816004Y-78845723D01*
X207816003Y-78845722D01*
X207657701Y-78463547D01*
X207577000Y-78057833D01*
X207577000Y-77644167D01*
X207657701Y-77238453D01*
X207816003Y-76856278D01*
X208009961Y-76566000D01*
X208045823Y-76512328D01*
X208338328Y-76219823D01*
X208682277Y-75990004D01*
X208682278Y-75990003D01*
X209064453Y-75831701D01*
X209470167Y-75751000D01*
X209883833Y-75751000D01*
X210289547Y-75831701D01*
X210289547Y-75831701D01*
G37*
G36*
X185270547Y-75831701D02*
X185652722Y-75990003D01*
X185652723Y-75990004D01*
X185996672Y-76219823D01*
X186289177Y-76512328D01*
X186325039Y-76566000D01*
X186518997Y-76856278D01*
X186677299Y-77238453D01*
X186758000Y-77644167D01*
X186758000Y-78057833D01*
X186677299Y-78463547D01*
X186518997Y-78845722D01*
X186518996Y-78845723D01*
X186289177Y-79189672D01*
X185996672Y-79482177D01*
X185776935Y-79629000D01*
X185652722Y-79711997D01*
X185270547Y-79870299D01*
X184864833Y-79951000D01*
X184451167Y-79951000D01*
X184045453Y-79870299D01*
X183663278Y-79711997D01*
X183539065Y-79629000D01*
X183319328Y-79482177D01*
X183026823Y-79189672D01*
X182797004Y-78845723D01*
X182797003Y-78845722D01*
X182638701Y-78463547D01*
X182558000Y-78057833D01*
X182558000Y-77644167D01*
X182638701Y-77238453D01*
X182797003Y-76856278D01*
X182990961Y-76566000D01*
X183026823Y-76512328D01*
X183319328Y-76219823D01*
X183663277Y-75990004D01*
X183663278Y-75990003D01*
X184045453Y-75831701D01*
X184451167Y-75751000D01*
X184864833Y-75751000D01*
X185270547Y-75831701D01*
X185270547Y-75831701D01*
G37*
G36*
X193869000Y-79032000D02*
X192719000Y-79032000D01*
X192719000Y-77432000D01*
X193869000Y-77432000D01*
X193869000Y-79032000D01*
X193869000Y-79032000D01*
G37*
G36*
X192341000Y-78440000D02*
X190691000Y-78440000D01*
X190691000Y-76540000D01*
X192341000Y-76540000D01*
X192341000Y-78440000D01*
X192341000Y-78440000D01*
G37*
G36*
X204084000Y-77866000D02*
X202484000Y-77866000D01*
X202484000Y-76566000D01*
X204084000Y-76566000D01*
X204084000Y-77866000D01*
X204084000Y-77866000D01*
G37*
G36*
X201884000Y-77866000D02*
X200284000Y-77866000D01*
X200284000Y-76566000D01*
X201884000Y-76566000D01*
X201884000Y-77866000D01*
X201884000Y-77866000D01*
G37*
G36*
X199382000Y-75618000D02*
X198382000Y-75618000D01*
X198382000Y-73668000D01*
X199382000Y-73668000D01*
X199382000Y-75618000D01*
X199382000Y-75618000D01*
G37*
G36*
X198112000Y-75618000D02*
X197112000Y-75618000D01*
X197112000Y-73668000D01*
X198112000Y-73668000D01*
X198112000Y-75618000D01*
X198112000Y-75618000D01*
G37*
G36*
X196842000Y-75618000D02*
X195842000Y-75618000D01*
X195842000Y-73668000D01*
X196842000Y-73668000D01*
X196842000Y-75618000D01*
X196842000Y-75618000D01*
G37*
G36*
X195572000Y-75618000D02*
X194572000Y-75618000D01*
X194572000Y-73668000D01*
X195572000Y-73668000D01*
X195572000Y-75618000D01*
X195572000Y-75618000D01*
G37*
G36*
X199362000Y-73219000D02*
X197762000Y-73219000D01*
X197762000Y-72069000D01*
X199362000Y-72069000D01*
X199362000Y-73219000D01*
X199362000Y-73219000D01*
G37*
G36*
X197462000Y-73219000D02*
X195862000Y-73219000D01*
X195862000Y-72069000D01*
X197462000Y-72069000D01*
X197462000Y-73219000D01*
X197462000Y-73219000D01*
G37*
G36*
X197439000Y-71691000D02*
X195539000Y-71691000D01*
X195539000Y-70041000D01*
X197439000Y-70041000D01*
X197439000Y-71691000D01*
X197439000Y-71691000D01*
G37*
G36*
X199939000Y-71691000D02*
X198039000Y-71691000D01*
X198039000Y-70041000D01*
X199939000Y-70041000D01*
X199939000Y-71691000D01*
X199939000Y-71691000D01*
G37*
G36*
X200312000Y-69560000D02*
X197812000Y-69560000D01*
X197812000Y-65060000D01*
X200312000Y-65060000D01*
X200312000Y-69560000D01*
X200312000Y-69560000D01*
G37*
G36*
X197412000Y-69560000D02*
X194912000Y-69560000D01*
X194912000Y-65060000D01*
X197412000Y-65060000D01*
X197412000Y-69560000D01*
X197412000Y-69560000D01*
G37*
G36*
X191150000Y-69210000D02*
X189850000Y-69210000D01*
X189850000Y-67610000D01*
X191150000Y-67610000D01*
X191150000Y-69210000D01*
X191150000Y-69210000D01*
G37*
G36*
X194504000Y-69060000D02*
X193354000Y-69060000D01*
X193354000Y-67460000D01*
X194504000Y-67460000D01*
X194504000Y-69060000D01*
X194504000Y-69060000D01*
G37*
G36*
X192599000Y-69060000D02*
X191449000Y-69060000D01*
X191449000Y-67460000D01*
X192599000Y-67460000D01*
X192599000Y-69060000D01*
X192599000Y-69060000D01*
G37*
G36*
X201870000Y-69060000D02*
X200720000Y-69060000D01*
X200720000Y-67460000D01*
X201870000Y-67460000D01*
X201870000Y-69060000D01*
X201870000Y-69060000D01*
G37*
G36*
X188579000Y-68618000D02*
X186579000Y-68618000D01*
X186579000Y-66038000D01*
X188579000Y-66038000D01*
X188579000Y-68618000D01*
X188579000Y-68618000D01*
G37*
G36*
X194504000Y-67160000D02*
X193354000Y-67160000D01*
X193354000Y-65560000D01*
X194504000Y-65560000D01*
X194504000Y-67160000D01*
X194504000Y-67160000D01*
G37*
G36*
X192599000Y-67160000D02*
X191449000Y-67160000D01*
X191449000Y-65560000D01*
X192599000Y-65560000D01*
X192599000Y-67160000D01*
X192599000Y-67160000D01*
G37*
G36*
X201870000Y-67160000D02*
X200720000Y-67160000D01*
X200720000Y-65560000D01*
X201870000Y-65560000D01*
X201870000Y-67160000D01*
X201870000Y-67160000D01*
G37*
G36*
X191150000Y-67010000D02*
X189850000Y-67010000D01*
X189850000Y-65410000D01*
X191150000Y-65410000D01*
X191150000Y-67010000D01*
X191150000Y-67010000D01*
G37*
G36*
X203593452Y-65099127D02*
X203731105Y-65126508D01*
X203903994Y-65198121D01*
X204059590Y-65302087D01*
X204191913Y-65434410D01*
X204295879Y-65590006D01*
X204367492Y-65762895D01*
X204404000Y-65946433D01*
X204404000Y-66133567D01*
X204367492Y-66317105D01*
X204295879Y-66489994D01*
X204191913Y-66645590D01*
X204059590Y-66777913D01*
X203903994Y-66881879D01*
X203731105Y-66953492D01*
X203593452Y-66980873D01*
X203547568Y-66990000D01*
X203360432Y-66990000D01*
X203314548Y-66980873D01*
X203176895Y-66953492D01*
X203004006Y-66881879D01*
X202848410Y-66777913D01*
X202716087Y-66645590D01*
X202612121Y-66489994D01*
X202540508Y-66317105D01*
X202504000Y-66133567D01*
X202504000Y-65946433D01*
X202540508Y-65762895D01*
X202612121Y-65590006D01*
X202716087Y-65434410D01*
X202848410Y-65302087D01*
X203004006Y-65198121D01*
X203176895Y-65126508D01*
X203314548Y-65099127D01*
X203360432Y-65090000D01*
X203547568Y-65090000D01*
X203593452Y-65099127D01*
X203593452Y-65099127D01*
G37*
G36*
X192599000Y-65250000D02*
X191449000Y-65250000D01*
X191449000Y-63650000D01*
X192599000Y-63650000D01*
X192599000Y-65250000D01*
X192599000Y-65250000D01*
G37*
G36*
X201195000Y-64509000D02*
X195045000Y-64509000D01*
X195045000Y-62809000D01*
X201195000Y-62809000D01*
X201195000Y-64509000D01*
X201195000Y-64509000D01*
G37*
G36*
X192599000Y-63350000D02*
X191449000Y-63350000D01*
X191449000Y-61750000D01*
X192599000Y-61750000D01*
X192599000Y-63350000D01*
X192599000Y-63350000D01*
G37*
G36*
X203320000Y-62384000D02*
X201620000Y-62384000D01*
X201620000Y-56234000D01*
X203320000Y-56234000D01*
X203320000Y-62384000D01*
X203320000Y-62384000D01*
G37*
G36*
X194620000Y-62384000D02*
X192920000Y-62384000D01*
X192920000Y-56234000D01*
X194620000Y-56234000D01*
X194620000Y-62384000D01*
X194620000Y-62384000D01*
G37*
G36*
X207556000Y-60721000D02*
X205956000Y-60721000D01*
X205956000Y-59421000D01*
X207556000Y-59421000D01*
X207556000Y-60721000D01*
X207556000Y-60721000D01*
G37*
G36*
X205356000Y-60721000D02*
X203756000Y-60721000D01*
X203756000Y-59421000D01*
X205356000Y-59421000D01*
X205356000Y-60721000D01*
X205356000Y-60721000D01*
G37*
G36*
X191150000Y-60109000D02*
X189850000Y-60109000D01*
X189850000Y-58509000D01*
X191150000Y-58509000D01*
X191150000Y-60109000D01*
X191150000Y-60109000D01*
G37*
G36*
X188579000Y-59438000D02*
X186579000Y-59438000D01*
X186579000Y-56858000D01*
X188579000Y-56858000D01*
X188579000Y-59438000D01*
X188579000Y-59438000D01*
G37*
G36*
X205313000Y-58943000D02*
X203713000Y-58943000D01*
X203713000Y-57643000D01*
X205313000Y-57643000D01*
X205313000Y-58943000D01*
X205313000Y-58943000D01*
G37*
G36*
X207513000Y-58943000D02*
X205913000Y-58943000D01*
X205913000Y-57643000D01*
X207513000Y-57643000D01*
X207513000Y-58943000D01*
X207513000Y-58943000D01*
G37*
G36*
X191150000Y-57909000D02*
X189850000Y-57909000D01*
X189850000Y-56309000D01*
X191150000Y-56309000D01*
X191150000Y-57909000D01*
X191150000Y-57909000D01*
G37*
G36*
X204918000Y-57249000D02*
X203768000Y-57249000D01*
X203768000Y-55649000D01*
X204918000Y-55649000D01*
X204918000Y-57249000D01*
X204918000Y-57249000D01*
G37*
G36*
X188579000Y-56299000D02*
X186579000Y-56299000D01*
X186579000Y-53719000D01*
X188579000Y-53719000D01*
X188579000Y-56299000D01*
X188579000Y-56299000D01*
G37*
G36*
X191075000Y-55979000D02*
X189925000Y-55979000D01*
X189925000Y-54379000D01*
X191075000Y-54379000D01*
X191075000Y-55979000D01*
X191075000Y-55979000D01*
G37*
G36*
X201195000Y-55809000D02*
X195045000Y-55809000D01*
X195045000Y-54109000D01*
X201195000Y-54109000D01*
X201195000Y-55809000D01*
X201195000Y-55809000D01*
G37*
G36*
X204918000Y-55349000D02*
X203768000Y-55349000D01*
X203768000Y-53749000D01*
X204918000Y-53749000D01*
X204918000Y-55349000D01*
X204918000Y-55349000D01*
G37*
G36*
X191075000Y-54079000D02*
X189925000Y-54079000D01*
X189925000Y-52479000D01*
X191075000Y-52479000D01*
X191075000Y-54079000D01*
X191075000Y-54079000D01*
G37*
G36*
X196992000Y-53843000D02*
X195692000Y-53843000D01*
X195692000Y-52243000D01*
X196992000Y-52243000D01*
X196992000Y-53843000D01*
X196992000Y-53843000D01*
G37*
G36*
X198643000Y-53843000D02*
X197343000Y-53843000D01*
X197343000Y-52243000D01*
X198643000Y-52243000D01*
X198643000Y-53843000D01*
X198643000Y-53843000D01*
G37*
G36*
X195425000Y-53788000D02*
X193825000Y-53788000D01*
X193825000Y-52638000D01*
X195425000Y-52638000D01*
X195425000Y-53788000D01*
X195425000Y-53788000D01*
G37*
G36*
X193525000Y-53788000D02*
X191925000Y-53788000D01*
X191925000Y-52638000D01*
X193525000Y-52638000D01*
X193525000Y-53788000D01*
X193525000Y-53788000D01*
G37*
G36*
X200164452Y-51764127D02*
X200302105Y-51791508D01*
X200474994Y-51863121D01*
X200630590Y-51967087D01*
X200762913Y-52099410D01*
X200866879Y-52255006D01*
X200938492Y-52427895D01*
X200975000Y-52611433D01*
X200975000Y-52798567D01*
X200938492Y-52982105D01*
X200866879Y-53154994D01*
X200762913Y-53310590D01*
X200630590Y-53442913D01*
X200474994Y-53546879D01*
X200302105Y-53618492D01*
X200164452Y-53645873D01*
X200118568Y-53655000D01*
X199931432Y-53655000D01*
X199885548Y-53645873D01*
X199747895Y-53618492D01*
X199575006Y-53546879D01*
X199419410Y-53442913D01*
X199287087Y-53310590D01*
X199183121Y-53154994D01*
X199111508Y-52982105D01*
X199075000Y-52798567D01*
X199075000Y-52611433D01*
X199111508Y-52427895D01*
X199183121Y-52255006D01*
X199287087Y-52099410D01*
X199419410Y-51967087D01*
X199575006Y-51863121D01*
X199747895Y-51791508D01*
X199885548Y-51764127D01*
X199931432Y-51755000D01*
X200118568Y-51755000D01*
X200164452Y-51764127D01*
X200164452Y-51764127D01*
G37*
G36*
X196992000Y-51643000D02*
X195692000Y-51643000D01*
X195692000Y-50043000D01*
X196992000Y-50043000D01*
X196992000Y-51643000D01*
X196992000Y-51643000D01*
G37*
G36*
X198643000Y-51643000D02*
X197343000Y-51643000D01*
X197343000Y-50043000D01*
X198643000Y-50043000D01*
X198643000Y-51643000D01*
X198643000Y-51643000D01*
G37*
G36*
X204442000Y-51629000D02*
X202842000Y-51629000D01*
X202842000Y-50479000D01*
X204442000Y-50479000D01*
X204442000Y-51629000D01*
X204442000Y-51629000D01*
G37*
G36*
X202542000Y-51629000D02*
X200942000Y-51629000D01*
X200942000Y-50479000D01*
X202542000Y-50479000D01*
X202542000Y-51629000D01*
X202542000Y-51629000D01*
G37*
G36*
X195341000Y-51557000D02*
X194041000Y-51557000D01*
X194041000Y-49957000D01*
X195341000Y-49957000D01*
X195341000Y-51557000D01*
X195341000Y-51557000D01*
G37*
G36*
X191401451Y-48716127D02*
X191539105Y-48743508D01*
X191711994Y-48815121D01*
X191867590Y-48919087D01*
X191999913Y-49051410D01*
X192103879Y-49207006D01*
X192175492Y-49379895D01*
X192212000Y-49563433D01*
X192212000Y-49750567D01*
X192175492Y-49934105D01*
X192103879Y-50106994D01*
X191999913Y-50262590D01*
X191867590Y-50394913D01*
X191711994Y-50498879D01*
X191539105Y-50570492D01*
X191401451Y-50597873D01*
X191355568Y-50607000D01*
X191168432Y-50607000D01*
X191122549Y-50597873D01*
X190984895Y-50570492D01*
X190812006Y-50498879D01*
X190656410Y-50394913D01*
X190524087Y-50262590D01*
X190420121Y-50106994D01*
X190348508Y-49934105D01*
X190312000Y-49750567D01*
X190312000Y-49563433D01*
X190348508Y-49379895D01*
X190420121Y-49207006D01*
X190524087Y-49051410D01*
X190656410Y-48919087D01*
X190812006Y-48815121D01*
X190984895Y-48743508D01*
X191122548Y-48716127D01*
X191168432Y-48707000D01*
X191355568Y-48707000D01*
X191401451Y-48716127D01*
X191401451Y-48716127D01*
G37*
G36*
X204387000Y-49862000D02*
X202427000Y-49862000D01*
X202427000Y-48812000D01*
X204387000Y-48812000D01*
X204387000Y-49862000D01*
X204387000Y-49862000D01*
G37*
G36*
X201687000Y-49862000D02*
X199727000Y-49862000D01*
X199727000Y-46912000D01*
X201687000Y-46912000D01*
X201687000Y-49862000D01*
X201687000Y-49862000D01*
G37*
G36*
X195341000Y-49357000D02*
X194041000Y-49357000D01*
X194041000Y-47757000D01*
X195341000Y-47757000D01*
X195341000Y-49357000D01*
X195341000Y-49357000D01*
G37*
G36*
X206311000Y-48301000D02*
X204661000Y-48301000D01*
X204661000Y-46401000D01*
X206311000Y-46401000D01*
X206311000Y-48301000D01*
X206311000Y-48301000D01*
G37*
G36*
X204387000Y-47962000D02*
X202427000Y-47962000D01*
X202427000Y-46912000D01*
X204387000Y-46912000D01*
X204387000Y-47962000D01*
X204387000Y-47962000D01*
G37*
G36*
X188579000Y-47119000D02*
X186579000Y-47119000D01*
X186579000Y-44539000D01*
X188579000Y-44539000D01*
X188579000Y-47119000D01*
X188579000Y-47119000D01*
G37*
G36*
X204130000Y-46164000D02*
X202230000Y-46164000D01*
X202230000Y-44514000D01*
X204130000Y-44514000D01*
X204130000Y-46164000D01*
X204130000Y-46164000D01*
G37*
G36*
X201630000Y-46164000D02*
X199730000Y-46164000D01*
X199730000Y-44514000D01*
X201630000Y-44514000D01*
X201630000Y-46164000D01*
X201630000Y-46164000D01*
G37*
G36*
X206311000Y-45801000D02*
X204661000Y-45801000D01*
X204661000Y-43901000D01*
X206311000Y-43901000D01*
X206311000Y-45801000D01*
X206311000Y-45801000D01*
G37*
G36*
X199652012Y-40990057D02*
X199761207Y-41035287D01*
X199859481Y-41100952D01*
X199943048Y-41184519D01*
X200008713Y-41282793D01*
X200053943Y-41391988D01*
X200059986Y-41422367D01*
X200067099Y-41445816D01*
X200078651Y-41467427D01*
X200094196Y-41486369D01*
X200113138Y-41501914D01*
X200134749Y-41513465D01*
X200158198Y-41520578D01*
X200182584Y-41522980D01*
X200206971Y-41520578D01*
X200230417Y-41513466D01*
X200351973Y-41463116D01*
X200351974Y-41463116D01*
X200351976Y-41463115D01*
X200583809Y-41417000D01*
X200820191Y-41417000D01*
X201052026Y-41463115D01*
X201270412Y-41553573D01*
X201466958Y-41684901D01*
X201634099Y-41852042D01*
X201765427Y-42048588D01*
X201855885Y-42266974D01*
X201902000Y-42498809D01*
X201902000Y-42735191D01*
X201855885Y-42967026D01*
X201765427Y-43185412D01*
X201634099Y-43381958D01*
X201466958Y-43549099D01*
X201270412Y-43680427D01*
X201052026Y-43770885D01*
X200820191Y-43817000D01*
X200583809Y-43817000D01*
X200351974Y-43770885D01*
X200133588Y-43680427D01*
X199937042Y-43549099D01*
X199769901Y-43381958D01*
X199638573Y-43185412D01*
X199548115Y-42967026D01*
X199502000Y-42735191D01*
X199502000Y-42498809D01*
X199538286Y-42316386D01*
X199540688Y-42292000D01*
X199538286Y-42267614D01*
X199531173Y-42244164D01*
X199519622Y-42222554D01*
X199504076Y-42203612D01*
X199485134Y-42188066D01*
X199463523Y-42176515D01*
X199440074Y-42169402D01*
X199420078Y-42167432D01*
X199417906Y-42167000D01*
X199417905Y-42167000D01*
X199386248Y-42160703D01*
X199301988Y-42143943D01*
X199192793Y-42098713D01*
X199094519Y-42033048D01*
X199010952Y-41949481D01*
X198945286Y-41851205D01*
X198942485Y-41844443D01*
X198930934Y-41822832D01*
X198915388Y-41803890D01*
X198896446Y-41788344D01*
X198874835Y-41776793D01*
X198858152Y-41771732D01*
X198866594Y-41761446D01*
X198878145Y-41739835D01*
X198885258Y-41716386D01*
X198887660Y-41692000D01*
X198885258Y-41667615D01*
X198877000Y-41626097D01*
X198877000Y-41507904D01*
X198900057Y-41391988D01*
X198945287Y-41282793D01*
X199010952Y-41184519D01*
X199094519Y-41100952D01*
X199192793Y-41035287D01*
X199301988Y-40990057D01*
X199417904Y-40967000D01*
X199536096Y-40967000D01*
X199652012Y-40990057D01*
X199652012Y-40990057D01*
G37*
G36*
X194652012Y-40990057D02*
X194761207Y-41035287D01*
X194859481Y-41100952D01*
X194943048Y-41184519D01*
X195008713Y-41282793D01*
X195053943Y-41391988D01*
X195077000Y-41507904D01*
X195077000Y-41626097D01*
X195068742Y-41667615D01*
X195066340Y-41692001D01*
X195068742Y-41716387D01*
X195075855Y-41739836D01*
X195087407Y-41761447D01*
X195095848Y-41771732D01*
X195079165Y-41776793D01*
X195057554Y-41788344D01*
X195038612Y-41803890D01*
X195023066Y-41822832D01*
X195011515Y-41844443D01*
X195008714Y-41851205D01*
X194943048Y-41949481D01*
X194859481Y-42033048D01*
X194761207Y-42098713D01*
X194652012Y-42143943D01*
X194567752Y-42160703D01*
X194536095Y-42167000D01*
X194536094Y-42167000D01*
X194533922Y-42167432D01*
X194513926Y-42169402D01*
X194490477Y-42176515D01*
X194468866Y-42188066D01*
X194449924Y-42203612D01*
X194434378Y-42222554D01*
X194422827Y-42244165D01*
X194415714Y-42267614D01*
X194413312Y-42292000D01*
X194415714Y-42316386D01*
X194452000Y-42498809D01*
X194452000Y-42735191D01*
X194405885Y-42967026D01*
X194315427Y-43185412D01*
X194184099Y-43381958D01*
X194016958Y-43549099D01*
X193820412Y-43680427D01*
X193602026Y-43770885D01*
X193370191Y-43817000D01*
X193133809Y-43817000D01*
X192901974Y-43770885D01*
X192683588Y-43680427D01*
X192487042Y-43549099D01*
X192319901Y-43381958D01*
X192188573Y-43185412D01*
X192098115Y-42967026D01*
X192052000Y-42735191D01*
X192052000Y-42498809D01*
X192098115Y-42266974D01*
X192188573Y-42048588D01*
X192319901Y-41852042D01*
X192487042Y-41684901D01*
X192683588Y-41553573D01*
X192901974Y-41463115D01*
X193133809Y-41417000D01*
X193370191Y-41417000D01*
X193602024Y-41463115D01*
X193602026Y-41463116D01*
X193602027Y-41463116D01*
X193723583Y-41513466D01*
X193747029Y-41520578D01*
X193771416Y-41522980D01*
X193795802Y-41520578D01*
X193819251Y-41513465D01*
X193840862Y-41501914D01*
X193859804Y-41486369D01*
X193875350Y-41467427D01*
X193886901Y-41445816D01*
X193894014Y-41422367D01*
X193900057Y-41391988D01*
X193945287Y-41282793D01*
X194010952Y-41184519D01*
X194094519Y-41100952D01*
X194192793Y-41035287D01*
X194301988Y-40990057D01*
X194417904Y-40967000D01*
X194536096Y-40967000D01*
X194652012Y-40990057D01*
X194652012Y-40990057D01*
G37*
G36*
X198723066Y-41822832D02*
X198711515Y-41844443D01*
X198704402Y-41867892D01*
X198702000Y-41892278D01*
X198702000Y-43517000D01*
X195252000Y-43517000D01*
X195252000Y-41892278D01*
X195249598Y-41867892D01*
X195242485Y-41844443D01*
X195230934Y-41822832D01*
X195226148Y-41817000D01*
X198727852Y-41817000D01*
X198723066Y-41822832D01*
X198723066Y-41822832D01*
G37*
G36*
X189623452Y-41604127D02*
X189761105Y-41631508D01*
X189933994Y-41703121D01*
X190089590Y-41807087D01*
X190221913Y-41939410D01*
X190325879Y-42095006D01*
X190397492Y-42267895D01*
X190434000Y-42451433D01*
X190434000Y-42638567D01*
X190397492Y-42822105D01*
X190325879Y-42994994D01*
X190221913Y-43150590D01*
X190089590Y-43282913D01*
X189933994Y-43386879D01*
X189761105Y-43458492D01*
X189623452Y-43485873D01*
X189577568Y-43495000D01*
X189390432Y-43495000D01*
X189344548Y-43485873D01*
X189206895Y-43458492D01*
X189034006Y-43386879D01*
X188878410Y-43282913D01*
X188746087Y-43150590D01*
X188642121Y-42994994D01*
X188570508Y-42822105D01*
X188534000Y-42638567D01*
X188534000Y-42451433D01*
X188570508Y-42267895D01*
X188642121Y-42095006D01*
X188746087Y-41939410D01*
X188878410Y-41807087D01*
X189034006Y-41703121D01*
X189206895Y-41631508D01*
X189344549Y-41604127D01*
X189390432Y-41595000D01*
X189577568Y-41595000D01*
X189623452Y-41604127D01*
X189623452Y-41604127D01*
G37*
G36*
X204736452Y-41604127D02*
X204874105Y-41631508D01*
X205046994Y-41703121D01*
X205202590Y-41807087D01*
X205334913Y-41939410D01*
X205438879Y-42095006D01*
X205510492Y-42267895D01*
X205547000Y-42451433D01*
X205547000Y-42638567D01*
X205510492Y-42822105D01*
X205438879Y-42994994D01*
X205334913Y-43150590D01*
X205202590Y-43282913D01*
X205046994Y-43386879D01*
X204874105Y-43458492D01*
X204736452Y-43485873D01*
X204690568Y-43495000D01*
X204503432Y-43495000D01*
X204457548Y-43485873D01*
X204319895Y-43458492D01*
X204147006Y-43386879D01*
X203991410Y-43282913D01*
X203859087Y-43150590D01*
X203755121Y-42994994D01*
X203683508Y-42822105D01*
X203647000Y-42638567D01*
X203647000Y-42451433D01*
X203683508Y-42267895D01*
X203755121Y-42095006D01*
X203859087Y-41939410D01*
X203991410Y-41807087D01*
X204147006Y-41703121D01*
X204319895Y-41631508D01*
X204457549Y-41604127D01*
X204503432Y-41595000D01*
X204690568Y-41595000D01*
X204736452Y-41604127D01*
X204736452Y-41604127D01*
G37*
G36*
X185270547Y-39128701D02*
X185652722Y-39287003D01*
X185767373Y-39363610D01*
X185996672Y-39516823D01*
X186289177Y-39809328D01*
X186361121Y-39917000D01*
X186518997Y-40153278D01*
X186677299Y-40535453D01*
X186758000Y-40941167D01*
X186758000Y-41354833D01*
X186677299Y-41760547D01*
X186518997Y-42142722D01*
X186518181Y-42143943D01*
X186289177Y-42486672D01*
X185996672Y-42779177D01*
X185767373Y-42932390D01*
X185652722Y-43008997D01*
X185270547Y-43167299D01*
X184864833Y-43248000D01*
X184451167Y-43248000D01*
X184045453Y-43167299D01*
X183663278Y-43008997D01*
X183548627Y-42932390D01*
X183319328Y-42779177D01*
X183026823Y-42486672D01*
X182797819Y-42143943D01*
X182797003Y-42142722D01*
X182638701Y-41760547D01*
X182558000Y-41354833D01*
X182558000Y-40941167D01*
X182638701Y-40535453D01*
X182797003Y-40153278D01*
X182954879Y-39917000D01*
X183026823Y-39809328D01*
X183319328Y-39516823D01*
X183548627Y-39363610D01*
X183663278Y-39287003D01*
X184045453Y-39128701D01*
X184451167Y-39048000D01*
X184864833Y-39048000D01*
X185270547Y-39128701D01*
X185270547Y-39128701D01*
G37*
G36*
X210289547Y-39128701D02*
X210671722Y-39287003D01*
X210786373Y-39363610D01*
X211015672Y-39516823D01*
X211308177Y-39809328D01*
X211380121Y-39917000D01*
X211537997Y-40153278D01*
X211696299Y-40535453D01*
X211777000Y-40941167D01*
X211777000Y-41354833D01*
X211696299Y-41760547D01*
X211537997Y-42142722D01*
X211537181Y-42143943D01*
X211308177Y-42486672D01*
X211015672Y-42779177D01*
X210786373Y-42932390D01*
X210671722Y-43008997D01*
X210289547Y-43167299D01*
X209883833Y-43248000D01*
X209470167Y-43248000D01*
X209064453Y-43167299D01*
X208682278Y-43008997D01*
X208567627Y-42932390D01*
X208338328Y-42779177D01*
X208045823Y-42486672D01*
X207816819Y-42143943D01*
X207816003Y-42142722D01*
X207657701Y-41760547D01*
X207577000Y-41354833D01*
X207577000Y-40941167D01*
X207657701Y-40535453D01*
X207816003Y-40153278D01*
X207973879Y-39917000D01*
X208045823Y-39809328D01*
X208338328Y-39516823D01*
X208567627Y-39363610D01*
X208682278Y-39287003D01*
X209064453Y-39128701D01*
X209470167Y-39048000D01*
X209883833Y-39048000D01*
X210289547Y-39128701D01*
X210289547Y-39128701D01*
G37*
G36*
X193422857Y-37759272D02*
X193623042Y-37842191D01*
X193803213Y-37962578D01*
X193956422Y-38115787D01*
X194076809Y-38295958D01*
X194159728Y-38496143D01*
X194202000Y-38708658D01*
X194202000Y-38925342D01*
X194159728Y-39137857D01*
X194076809Y-39338042D01*
X194076807Y-39338045D01*
X193957350Y-39516825D01*
X193956422Y-39518213D01*
X193803213Y-39671422D01*
X193623042Y-39791809D01*
X193422857Y-39874728D01*
X193210342Y-39917000D01*
X192993658Y-39917000D01*
X192781143Y-39874728D01*
X192580958Y-39791809D01*
X192400787Y-39671422D01*
X192247578Y-39518213D01*
X192246651Y-39516825D01*
X192127193Y-39338045D01*
X192127191Y-39338042D01*
X192044272Y-39137857D01*
X192002000Y-38925342D01*
X192002000Y-38708658D01*
X192044272Y-38496143D01*
X192127191Y-38295958D01*
X192247578Y-38115787D01*
X192400787Y-37962578D01*
X192580958Y-37842191D01*
X192781143Y-37759272D01*
X192993658Y-37717000D01*
X193210342Y-37717000D01*
X193422857Y-37759272D01*
X193422857Y-37759272D01*
G37*
G36*
X201172857Y-37759272D02*
X201373042Y-37842191D01*
X201553213Y-37962578D01*
X201706422Y-38115787D01*
X201826809Y-38295958D01*
X201909728Y-38496143D01*
X201952000Y-38708658D01*
X201952000Y-38925342D01*
X201909728Y-39137857D01*
X201826809Y-39338042D01*
X201826807Y-39338045D01*
X201707350Y-39516825D01*
X201706422Y-39518213D01*
X201553213Y-39671422D01*
X201373042Y-39791809D01*
X201172857Y-39874728D01*
X200960342Y-39917000D01*
X200743658Y-39917000D01*
X200531143Y-39874728D01*
X200330958Y-39791809D01*
X200150787Y-39671422D01*
X199997578Y-39518213D01*
X199996651Y-39516825D01*
X199877193Y-39338045D01*
X199877191Y-39338042D01*
X199794272Y-39137857D01*
X199752000Y-38925342D01*
X199752000Y-38708658D01*
X199794272Y-38496143D01*
X199877191Y-38295958D01*
X199997578Y-38115787D01*
X200150787Y-37962578D01*
X200330958Y-37842191D01*
X200531143Y-37759272D01*
X200743658Y-37717000D01*
X200960342Y-37717000D01*
X201172857Y-37759272D01*
X201172857Y-37759272D01*
G37*
M02*
