G04 #@! TF.GenerationSoftware,KiCad,Pcbnew,(5.0.1)-3*
G04 #@! TF.CreationDate,2018-11-07T22:07:08+02:00*
G04 #@! TF.ProjectId,stm32-can,73746D33322D63616E2E6B696361645F,rev?*
G04 #@! TF.SameCoordinates,Original*
G04 #@! TF.FileFunction,Copper,L1,Top,Signal*
G04 #@! TF.FilePolarity,Positive*
%FSLAX46Y46*%
G04 Gerber Fmt 4.6, Leading zero omitted, Abs format (unit mm)*
G04 Created by KiCad (PCBNEW (5.0.1)-3) date 07-Nov-18 10:07:08 PM*
%MOMM*%
%LPD*%
G01*
G04 APERTURE LIST*
G04 #@! TA.AperFunction,ComponentPad*
%ADD10R,1.000000X1.000000*%
G04 #@! TD*
G04 #@! TA.AperFunction,ComponentPad*
%ADD11O,1.000000X1.000000*%
G04 #@! TD*
G04 #@! TA.AperFunction,SMDPad,CuDef*
%ADD12R,1.500000X1.250000*%
G04 #@! TD*
G04 #@! TA.AperFunction,SMDPad,CuDef*
%ADD13R,1.200000X0.750000*%
G04 #@! TD*
G04 #@! TA.AperFunction,SMDPad,CuDef*
%ADD14R,1.250000X1.500000*%
G04 #@! TD*
G04 #@! TA.AperFunction,SMDPad,CuDef*
%ADD15R,0.750000X1.200000*%
G04 #@! TD*
G04 #@! TA.AperFunction,ComponentPad*
%ADD16R,1.600000X1.600000*%
G04 #@! TD*
G04 #@! TA.AperFunction,ComponentPad*
%ADD17C,1.600000*%
G04 #@! TD*
G04 #@! TA.AperFunction,ComponentPad*
%ADD18C,4.000000*%
G04 #@! TD*
G04 #@! TA.AperFunction,ComponentPad*
%ADD19C,1.800000*%
G04 #@! TD*
G04 #@! TA.AperFunction,ComponentPad*
%ADD20C,2.000000*%
G04 #@! TD*
G04 #@! TA.AperFunction,SMDPad,CuDef*
%ADD21R,0.450000X1.300000*%
G04 #@! TD*
G04 #@! TA.AperFunction,ComponentPad*
%ADD22C,3.800000*%
G04 #@! TD*
G04 #@! TA.AperFunction,SMDPad,CuDef*
%ADD23R,0.900000X1.200000*%
G04 #@! TD*
G04 #@! TA.AperFunction,SMDPad,CuDef*
%ADD24R,1.200000X0.900000*%
G04 #@! TD*
G04 #@! TA.AperFunction,SMDPad,CuDef*
%ADD25R,1.600000X2.180000*%
G04 #@! TD*
G04 #@! TA.AperFunction,BGAPad,CuDef*
%ADD26C,1.500000*%
G04 #@! TD*
G04 #@! TA.AperFunction,SMDPad,CuDef*
%ADD27R,0.600000X1.550000*%
G04 #@! TD*
G04 #@! TA.AperFunction,SMDPad,CuDef*
%ADD28R,1.560000X0.650000*%
G04 #@! TD*
G04 #@! TA.AperFunction,SMDPad,CuDef*
%ADD29R,1.300000X0.250000*%
G04 #@! TD*
G04 #@! TA.AperFunction,SMDPad,CuDef*
%ADD30R,0.250000X1.300000*%
G04 #@! TD*
G04 #@! TA.AperFunction,SMDPad,CuDef*
%ADD31R,2.100000X1.800000*%
G04 #@! TD*
G04 #@! TA.AperFunction,ViaPad*
%ADD32C,0.600000*%
G04 #@! TD*
G04 #@! TA.AperFunction,Conductor*
%ADD33C,0.250000*%
G04 #@! TD*
G04 #@! TA.AperFunction,Conductor*
%ADD34C,0.154000*%
G04 #@! TD*
G04 #@! TA.AperFunction,Conductor*
%ADD35C,0.254000*%
G04 #@! TD*
G04 APERTURE END LIST*
D10*
G04 #@! TO.P,JP1,1*
G04 #@! TO.N,Net-(JP1-Pad1)*
X202819000Y-79629000D03*
D11*
G04 #@! TO.P,JP1,2*
G04 #@! TO.N,CANH*
X201549000Y-79629000D03*
G04 #@! TD*
D12*
G04 #@! TO.P,C1,2*
G04 #@! TO.N,GND*
X198989000Y-70866000D03*
G04 #@! TO.P,C1,1*
G04 #@! TO.N,+5V*
X196489000Y-70866000D03*
G04 #@! TD*
D13*
G04 #@! TO.P,C2,1*
G04 #@! TO.N,+5V*
X196662000Y-72644000D03*
G04 #@! TO.P,C2,2*
G04 #@! TO.N,GND*
X198562000Y-72644000D03*
G04 #@! TD*
D14*
G04 #@! TO.P,C3,1*
G04 #@! TO.N,+3V3*
X191516000Y-79990000D03*
G04 #@! TO.P,C3,2*
G04 #@! TO.N,GND*
X191516000Y-77490000D03*
G04 #@! TD*
D15*
G04 #@! TO.P,C4,2*
G04 #@! TO.N,GND*
X193294000Y-78232000D03*
G04 #@! TO.P,C4,1*
G04 #@! TO.N,+3V3*
X193294000Y-80132000D03*
G04 #@! TD*
G04 #@! TO.P,C5,2*
G04 #@! TO.N,GND*
X190500000Y-53279000D03*
G04 #@! TO.P,C5,1*
G04 #@! TO.N,BOOT0*
X190500000Y-55179000D03*
G04 #@! TD*
G04 #@! TO.P,C6,1*
G04 #@! TO.N,~RST*
X192024000Y-66360000D03*
G04 #@! TO.P,C6,2*
G04 #@! TO.N,GND*
X192024000Y-68260000D03*
G04 #@! TD*
G04 #@! TO.P,C7,1*
G04 #@! TO.N,OSC_IN*
X193929000Y-68260000D03*
G04 #@! TO.P,C7,2*
G04 #@! TO.N,GND*
X193929000Y-66360000D03*
G04 #@! TD*
G04 #@! TO.P,C8,2*
G04 #@! TO.N,GND*
X201295000Y-68260000D03*
G04 #@! TO.P,C8,1*
G04 #@! TO.N,OSC_OUT*
X201295000Y-66360000D03*
G04 #@! TD*
D12*
G04 #@! TO.P,C9,2*
G04 #@! TO.N,GND*
X203180000Y-45339000D03*
G04 #@! TO.P,C9,1*
G04 #@! TO.N,+5V*
X200680000Y-45339000D03*
G04 #@! TD*
D13*
G04 #@! TO.P,C10,2*
G04 #@! TO.N,GND*
X201742000Y-51054000D03*
G04 #@! TO.P,C10,1*
G04 #@! TO.N,Net-(C10-Pad1)*
X203642000Y-51054000D03*
G04 #@! TD*
D14*
G04 #@! TO.P,C11,1*
G04 #@! TO.N,+3V3*
X205486000Y-47351000D03*
G04 #@! TO.P,C11,2*
G04 #@! TO.N,GND*
X205486000Y-44851000D03*
G04 #@! TD*
D13*
G04 #@! TO.P,C12,1*
G04 #@! TO.N,+3V3*
X194625000Y-53213000D03*
G04 #@! TO.P,C12,2*
G04 #@! TO.N,GND*
X192725000Y-53213000D03*
G04 #@! TD*
D15*
G04 #@! TO.P,C13,1*
G04 #@! TO.N,+3V3*
X204343000Y-56449000D03*
G04 #@! TO.P,C13,2*
G04 #@! TO.N,GND*
X204343000Y-54549000D03*
G04 #@! TD*
G04 #@! TO.P,C14,2*
G04 #@! TO.N,GND*
X192024000Y-64450000D03*
G04 #@! TO.P,C14,1*
G04 #@! TO.N,+3V3*
X192024000Y-62550000D03*
G04 #@! TD*
D16*
G04 #@! TO.P,CAN1,1*
G04 #@! TO.N,N/C*
X191643000Y-85344000D03*
D17*
G04 #@! TO.P,CAN1,2*
G04 #@! TO.N,CANL*
X194413000Y-85344000D03*
G04 #@! TO.P,CAN1,3*
G04 #@! TO.N,GND*
X197183000Y-85344000D03*
G04 #@! TO.P,CAN1,4*
G04 #@! TO.N,N/C*
X199953000Y-85344000D03*
G04 #@! TO.P,CAN1,5*
X202723000Y-85344000D03*
G04 #@! TO.P,CAN1,6*
X193028000Y-88184000D03*
G04 #@! TO.P,CAN1,7*
G04 #@! TO.N,CANH*
X195798000Y-88184000D03*
G04 #@! TO.P,CAN1,8*
G04 #@! TO.N,N/C*
X198568000Y-88184000D03*
G04 #@! TO.P,CAN1,9*
X201338000Y-88184000D03*
D18*
G04 #@! TO.P,CAN1,0*
G04 #@! TO.N,Net-(CAN1-Pad0)*
X184683000Y-85644000D03*
X209683000Y-85644000D03*
G04 #@! TD*
D19*
G04 #@! TO.P,J1,6*
G04 #@! TO.N,Net-(J1-Pad6)*
X193102000Y-38817000D03*
X200852000Y-38817000D03*
D20*
X193252000Y-42617000D03*
X200702000Y-42617000D03*
D21*
G04 #@! TO.P,J1,5*
G04 #@! TO.N,GND*
X195677000Y-42667000D03*
G04 #@! TO.P,J1,4*
G04 #@! TO.N,N/C*
X196327000Y-42667000D03*
G04 #@! TO.P,J1,3*
G04 #@! TO.N,Net-(J1-Pad3)*
X196977000Y-42667000D03*
G04 #@! TO.P,J1,2*
G04 #@! TO.N,Net-(J1-Pad2)*
X197627000Y-42667000D03*
G04 #@! TO.P,J1,1*
G04 #@! TO.N,+5V*
X198277000Y-42667000D03*
G04 #@! TD*
D22*
G04 #@! TO.P,MH1,1*
G04 #@! TO.N,N/C*
X184658000Y-41148000D03*
G04 #@! TD*
G04 #@! TO.P,MH2,1*
G04 #@! TO.N,N/C*
X184658000Y-77851000D03*
G04 #@! TD*
G04 #@! TO.P,MH3,1*
G04 #@! TO.N,N/C*
X209677000Y-77851000D03*
G04 #@! TD*
G04 #@! TO.P,MH4,1*
G04 #@! TO.N,N/C*
X209677000Y-41148000D03*
G04 #@! TD*
D23*
G04 #@! TO.P,R1,2*
G04 #@! TO.N,~RST*
X190500000Y-66210000D03*
G04 #@! TO.P,R1,1*
G04 #@! TO.N,+3V3*
X190500000Y-68410000D03*
G04 #@! TD*
G04 #@! TO.P,R2,2*
G04 #@! TO.N,GND*
X190500000Y-59309000D03*
G04 #@! TO.P,R2,1*
G04 #@! TO.N,BOOT0*
X190500000Y-57109000D03*
G04 #@! TD*
G04 #@! TO.P,R3,1*
G04 #@! TO.N,+3V3*
X194691000Y-48557000D03*
G04 #@! TO.P,R3,2*
G04 #@! TO.N,Net-(J1-Pad3)*
X194691000Y-50757000D03*
G04 #@! TD*
G04 #@! TO.P,R4,2*
G04 #@! TO.N,Net-(J1-Pad3)*
X196342000Y-50843000D03*
G04 #@! TO.P,R4,1*
G04 #@! TO.N,USB_DP*
X196342000Y-53043000D03*
G04 #@! TD*
G04 #@! TO.P,R5,2*
G04 #@! TO.N,Net-(J1-Pad2)*
X197993000Y-50843000D03*
G04 #@! TO.P,R5,1*
G04 #@! TO.N,USB_DM*
X197993000Y-53043000D03*
G04 #@! TD*
D24*
G04 #@! TO.P,R6,1*
G04 #@! TO.N,Status*
X204513000Y-58293000D03*
G04 #@! TO.P,R6,2*
G04 #@! TO.N,Net-(R6-Pad2)*
X206713000Y-58293000D03*
G04 #@! TD*
G04 #@! TO.P,Rterm1,1*
G04 #@! TO.N,Net-(JP1-Pad1)*
X203284000Y-77216000D03*
G04 #@! TO.P,Rterm1,2*
G04 #@! TO.N,CANL*
X201084000Y-77216000D03*
G04 #@! TD*
D25*
G04 #@! TO.P,SW1,1*
G04 #@! TO.N,+3V3*
X187579000Y-45829000D03*
G04 #@! TO.P,SW1,2*
G04 #@! TO.N,BOOT0*
X187579000Y-55009000D03*
G04 #@! TD*
G04 #@! TO.P,SW2,2*
G04 #@! TO.N,~RST*
X187579000Y-58148000D03*
G04 #@! TO.P,SW2,1*
G04 #@! TO.N,GND*
X187579000Y-67328000D03*
G04 #@! TD*
D26*
G04 #@! TO.P,TP1,1*
G04 #@! TO.N,~RST*
X203454000Y-66040000D03*
G04 #@! TD*
G04 #@! TO.P,TP2,1*
G04 #@! TO.N,SWCLK*
X191262000Y-49657000D03*
G04 #@! TD*
G04 #@! TO.P,TP3,1*
G04 #@! TO.N,SWDIO*
X200025000Y-52705000D03*
G04 #@! TD*
G04 #@! TO.P,TP4,1*
G04 #@! TO.N,+5V*
X204597000Y-42545000D03*
G04 #@! TD*
G04 #@! TO.P,TP5,1*
G04 #@! TO.N,GND*
X189484000Y-42545000D03*
G04 #@! TD*
D24*
G04 #@! TO.P,TXLED1,2*
G04 #@! TO.N,Net-(R6-Pad2)*
X206756000Y-60071000D03*
G04 #@! TO.P,TXLED1,1*
G04 #@! TO.N,GND*
X204556000Y-60071000D03*
G04 #@! TD*
D27*
G04 #@! TO.P,U1,8*
G04 #@! TO.N,GND*
X198882000Y-80043000D03*
G04 #@! TO.P,U1,7*
G04 #@! TO.N,CANH*
X197612000Y-80043000D03*
G04 #@! TO.P,U1,6*
G04 #@! TO.N,CANL*
X196342000Y-80043000D03*
G04 #@! TO.P,U1,5*
G04 #@! TO.N,+3V3*
X195072000Y-80043000D03*
G04 #@! TO.P,U1,4*
G04 #@! TO.N,CAN_Rx*
X195072000Y-74643000D03*
G04 #@! TO.P,U1,3*
G04 #@! TO.N,+5V*
X196342000Y-74643000D03*
G04 #@! TO.P,U1,2*
G04 #@! TO.N,GND*
X197612000Y-74643000D03*
G04 #@! TO.P,U1,1*
G04 #@! TO.N,CAN_Tx*
X198882000Y-74643000D03*
G04 #@! TD*
D28*
G04 #@! TO.P,U2,5*
G04 #@! TO.N,+3V3*
X203407000Y-47437000D03*
G04 #@! TO.P,U2,4*
G04 #@! TO.N,Net-(C10-Pad1)*
X203407000Y-49337000D03*
G04 #@! TO.P,U2,3*
G04 #@! TO.N,+5V*
X200707000Y-49337000D03*
G04 #@! TO.P,U2,2*
G04 #@! TO.N,GND*
X200707000Y-48387000D03*
G04 #@! TO.P,U2,1*
G04 #@! TO.N,+5V*
X200707000Y-47437000D03*
G04 #@! TD*
D29*
G04 #@! TO.P,U3,48*
G04 #@! TO.N,+3V3*
X193770000Y-62059000D03*
G04 #@! TO.P,U3,47*
G04 #@! TO.N,GND*
X193770000Y-61559000D03*
G04 #@! TO.P,U3,46*
G04 #@! TO.N,CAN_Tx*
X193770000Y-61059000D03*
G04 #@! TO.P,U3,45*
G04 #@! TO.N,CAN_Rx*
X193770000Y-60559000D03*
G04 #@! TO.P,U3,44*
G04 #@! TO.N,BOOT0*
X193770000Y-60059000D03*
G04 #@! TO.P,U3,43*
G04 #@! TO.N,N/C*
X193770000Y-59559000D03*
G04 #@! TO.P,U3,42*
X193770000Y-59059000D03*
G04 #@! TO.P,U3,41*
X193770000Y-58559000D03*
G04 #@! TO.P,U3,40*
X193770000Y-58059000D03*
G04 #@! TO.P,U3,39*
X193770000Y-57559000D03*
G04 #@! TO.P,U3,38*
X193770000Y-57059000D03*
G04 #@! TO.P,U3,37*
G04 #@! TO.N,SWCLK*
X193770000Y-56559000D03*
D30*
G04 #@! TO.P,U3,36*
G04 #@! TO.N,+3V3*
X195370000Y-54959000D03*
G04 #@! TO.P,U3,35*
G04 #@! TO.N,GND*
X195870000Y-54959000D03*
G04 #@! TO.P,U3,34*
G04 #@! TO.N,SWDIO*
X196370000Y-54959000D03*
G04 #@! TO.P,U3,33*
G04 #@! TO.N,USB_DP*
X196870000Y-54959000D03*
G04 #@! TO.P,U3,32*
G04 #@! TO.N,USB_DM*
X197370000Y-54959000D03*
G04 #@! TO.P,U3,31*
G04 #@! TO.N,N/C*
X197870000Y-54959000D03*
G04 #@! TO.P,U3,30*
X198370000Y-54959000D03*
G04 #@! TO.P,U3,29*
X198870000Y-54959000D03*
G04 #@! TO.P,U3,28*
X199370000Y-54959000D03*
G04 #@! TO.P,U3,27*
X199870000Y-54959000D03*
G04 #@! TO.P,U3,26*
X200370000Y-54959000D03*
G04 #@! TO.P,U3,25*
X200870000Y-54959000D03*
D29*
G04 #@! TO.P,U3,24*
G04 #@! TO.N,+3V3*
X202470000Y-56559000D03*
G04 #@! TO.P,U3,23*
G04 #@! TO.N,GND*
X202470000Y-57059000D03*
G04 #@! TO.P,U3,22*
G04 #@! TO.N,N/C*
X202470000Y-57559000D03*
G04 #@! TO.P,U3,21*
G04 #@! TO.N,Status*
X202470000Y-58059000D03*
G04 #@! TO.P,U3,20*
G04 #@! TO.N,N/C*
X202470000Y-58559000D03*
G04 #@! TO.P,U3,19*
X202470000Y-59059000D03*
G04 #@! TO.P,U3,18*
X202470000Y-59559000D03*
G04 #@! TO.P,U3,17*
X202470000Y-60059000D03*
G04 #@! TO.P,U3,16*
X202470000Y-60559000D03*
G04 #@! TO.P,U3,15*
X202470000Y-61059000D03*
G04 #@! TO.P,U3,14*
X202470000Y-61559000D03*
G04 #@! TO.P,U3,13*
X202470000Y-62059000D03*
D30*
G04 #@! TO.P,U3,12*
X200870000Y-63659000D03*
G04 #@! TO.P,U3,11*
X200370000Y-63659000D03*
G04 #@! TO.P,U3,10*
X199870000Y-63659000D03*
G04 #@! TO.P,U3,9*
G04 #@! TO.N,+3V3*
X199370000Y-63659000D03*
G04 #@! TO.P,U3,8*
G04 #@! TO.N,GND*
X198870000Y-63659000D03*
G04 #@! TO.P,U3,7*
G04 #@! TO.N,~RST*
X198370000Y-63659000D03*
G04 #@! TO.P,U3,6*
G04 #@! TO.N,OSC_OUT*
X197870000Y-63659000D03*
G04 #@! TO.P,U3,5*
G04 #@! TO.N,OSC_IN*
X197370000Y-63659000D03*
G04 #@! TO.P,U3,4*
G04 #@! TO.N,N/C*
X196870000Y-63659000D03*
G04 #@! TO.P,U3,3*
X196370000Y-63659000D03*
G04 #@! TO.P,U3,2*
X195870000Y-63659000D03*
G04 #@! TO.P,U3,1*
X195370000Y-63659000D03*
G04 #@! TD*
D31*
G04 #@! TO.P,Y1,4*
G04 #@! TO.N,GND*
X196162000Y-66160000D03*
G04 #@! TO.P,Y1,3*
G04 #@! TO.N,OSC_OUT*
X199062000Y-66160000D03*
G04 #@! TO.P,Y1,2*
G04 #@! TO.N,GND*
X199062000Y-68460000D03*
G04 #@! TO.P,Y1,1*
G04 #@! TO.N,OSC_IN*
X196162000Y-68460000D03*
G04 #@! TD*
D32*
G04 #@! TO.N,GND*
X195580000Y-44450000D03*
X189230000Y-40640000D03*
X199136000Y-48387000D03*
X202057000Y-50038000D03*
X207137000Y-44958000D03*
X203327000Y-43942000D03*
X201168000Y-57150000D03*
X204597000Y-61214000D03*
X198628000Y-62230000D03*
X201295000Y-69596000D03*
X193929000Y-64897000D03*
X199898000Y-72644000D03*
X199009000Y-81661000D03*
X193294000Y-76708000D03*
X192659000Y-52197000D03*
X195834000Y-56388000D03*
X190500000Y-51943000D03*
X192014567Y-60080433D03*
X190500000Y-60579000D03*
X187579000Y-69342000D03*
X192024000Y-69469000D03*
X205486000Y-54610000D03*
X190627000Y-63627000D03*
G04 #@! TO.N,+5V*
X199898000Y-50546000D03*
X191770000Y-71247000D03*
X194310000Y-71247000D03*
X188214000Y-48006000D03*
G04 #@! TO.N,BOOT0*
X191516000Y-55245000D03*
X185801000Y-55118000D03*
G04 #@! TO.N,~RST*
X190500000Y-64770000D03*
X197358000Y-62230000D03*
G04 #@! TD*
D33*
G04 #@! TO.N,GND*
X195677000Y-42667000D02*
X195677000Y-44353000D01*
X195677000Y-44353000D02*
X195580000Y-44450000D01*
X189484000Y-42545000D02*
X189484000Y-40894000D01*
X189484000Y-40894000D02*
X189230000Y-40640000D01*
X204998000Y-45339000D02*
X205486000Y-44851000D01*
X203180000Y-45339000D02*
X204998000Y-45339000D01*
X200707000Y-48387000D02*
X199136000Y-48387000D01*
X201742000Y-51054000D02*
X201742000Y-50353000D01*
X201742000Y-50353000D02*
X202057000Y-50038000D01*
X203055000Y-45339000D02*
X202057000Y-46337000D01*
X203180000Y-45339000D02*
X203055000Y-45339000D01*
X202057000Y-46337000D02*
X202057000Y-48260000D01*
X201930000Y-48387000D02*
X200707000Y-48387000D01*
X202057000Y-48260000D02*
X201930000Y-48387000D01*
X205486000Y-44851000D02*
X207030000Y-44851000D01*
X207030000Y-44851000D02*
X207137000Y-44958000D01*
X203180000Y-45339000D02*
X203180000Y-44089000D01*
X203180000Y-44089000D02*
X203327000Y-43942000D01*
D34*
X202470000Y-57059000D02*
X201259000Y-57059000D01*
X201259000Y-57059000D02*
X201168000Y-57150000D01*
X204556000Y-60071000D02*
X204556000Y-61173000D01*
X204556000Y-61173000D02*
X204597000Y-61214000D01*
X198870000Y-63659000D02*
X198870000Y-62472000D01*
X198870000Y-62472000D02*
X198628000Y-62230000D01*
X199262000Y-68260000D02*
X199062000Y-68460000D01*
X201295000Y-68260000D02*
X199262000Y-68260000D01*
X194129000Y-66160000D02*
X193929000Y-66360000D01*
X196162000Y-66160000D02*
X194129000Y-66160000D01*
X201295000Y-68260000D02*
X201295000Y-69596000D01*
X193929000Y-66360000D02*
X193929000Y-64897000D01*
D33*
X198562000Y-71293000D02*
X198989000Y-70866000D01*
X198562000Y-72644000D02*
X198562000Y-71293000D01*
X197612000Y-73618000D02*
X197612000Y-74643000D01*
X197612000Y-73369000D02*
X197612000Y-73618000D01*
X198337000Y-72644000D02*
X197612000Y-73369000D01*
X198562000Y-72644000D02*
X198337000Y-72644000D01*
X198562000Y-72644000D02*
X199898000Y-72644000D01*
X198882000Y-80043000D02*
X198882000Y-81534000D01*
X198882000Y-81534000D02*
X199009000Y-81661000D01*
X192552000Y-77490000D02*
X193294000Y-78232000D01*
X191516000Y-77490000D02*
X192552000Y-77490000D01*
X193294000Y-78232000D02*
X193294000Y-76708000D01*
D34*
X190566000Y-53213000D02*
X190500000Y-53279000D01*
X192725000Y-53213000D02*
X192725000Y-52263000D01*
X192725000Y-52263000D02*
X192659000Y-52197000D01*
X195870000Y-54959000D02*
X195870000Y-56352000D01*
X195870000Y-56352000D02*
X195834000Y-56388000D01*
X190500000Y-53279000D02*
X190500000Y-51943000D01*
X192014567Y-60607567D02*
X192014567Y-60080433D01*
X193770000Y-61559000D02*
X192966000Y-61559000D01*
X192966000Y-61559000D02*
X192014567Y-60607567D01*
X190500000Y-59309000D02*
X190500000Y-60579000D01*
X187579000Y-67328000D02*
X187579000Y-69342000D01*
X192024000Y-68260000D02*
X192024000Y-69469000D01*
X204343000Y-54549000D02*
X205425000Y-54549000D01*
X205425000Y-54549000D02*
X205486000Y-54610000D01*
X192024000Y-64450000D02*
X191450000Y-64450000D01*
X191450000Y-64450000D02*
X190627000Y-63627000D01*
D33*
G04 #@! TO.N,+5V*
X200524000Y-45339000D02*
X200680000Y-45339000D01*
X198277000Y-43092000D02*
X200524000Y-45339000D01*
X198277000Y-42667000D02*
X198277000Y-43092000D01*
X203599000Y-42545000D02*
X204597000Y-42545000D01*
X200805000Y-45339000D02*
X203599000Y-42545000D01*
X200680000Y-45339000D02*
X200805000Y-45339000D01*
X200680000Y-47410000D02*
X200707000Y-47437000D01*
X200680000Y-45339000D02*
X200680000Y-47410000D01*
X200707000Y-47437000D02*
X199308998Y-47437000D01*
X199324000Y-49337000D02*
X200707000Y-49337000D01*
X198590999Y-48154999D02*
X198590999Y-48730999D01*
X199308998Y-47437000D02*
X198590999Y-48154999D01*
X199197000Y-49337000D02*
X199324000Y-49337000D01*
X198590999Y-48730999D02*
X199197000Y-49337000D01*
X196342000Y-72964000D02*
X196662000Y-72644000D01*
X196342000Y-74643000D02*
X196342000Y-72964000D01*
X196489000Y-72471000D02*
X196662000Y-72644000D01*
X196489000Y-70866000D02*
X196489000Y-72471000D01*
X200707000Y-49337000D02*
X200707000Y-49737000D01*
X200707000Y-49737000D02*
X199898000Y-50546000D01*
X196108000Y-71247000D02*
X196489000Y-70866000D01*
X194310000Y-71247000D02*
X196108000Y-71247000D01*
X186182000Y-71247000D02*
X191770000Y-71247000D01*
X182626000Y-67691000D02*
X186182000Y-71247000D01*
X188214000Y-48006000D02*
X185674000Y-48006000D01*
X185674000Y-48006000D02*
X182626000Y-51054000D01*
X182626000Y-51054000D02*
X182626000Y-67691000D01*
G04 #@! TO.N,+3V3*
X194995000Y-54959000D02*
X194963000Y-54991000D01*
X195370000Y-54959000D02*
X194995000Y-54959000D01*
X199370000Y-63659000D02*
X199370000Y-62631000D01*
D34*
X192515000Y-62059000D02*
X192024000Y-62550000D01*
X193770000Y-62059000D02*
X192515000Y-62059000D01*
G04 #@! TO.N,BOOT0*
X192696000Y-60059000D02*
X191897000Y-59260000D01*
X193770000Y-60059000D02*
X192696000Y-60059000D01*
X191897000Y-59260000D02*
X191897000Y-57531000D01*
X191475000Y-57109000D02*
X190500000Y-57109000D01*
X191897000Y-57531000D02*
X191475000Y-57109000D01*
X190500000Y-56355000D02*
X190500000Y-55179000D01*
X190500000Y-57109000D02*
X190500000Y-56355000D01*
X190330000Y-55009000D02*
X190500000Y-55179000D01*
X191450000Y-55179000D02*
X191516000Y-55245000D01*
X190500000Y-55179000D02*
X191450000Y-55179000D01*
X187470000Y-55118000D02*
X187579000Y-55009000D01*
X185801000Y-55118000D02*
X187470000Y-55118000D01*
G04 #@! TO.N,~RST*
X189896000Y-66210000D02*
X190500000Y-66210000D01*
X187579000Y-63893000D02*
X189896000Y-66210000D01*
X187579000Y-58148000D02*
X187579000Y-63893000D01*
X191874000Y-66210000D02*
X192024000Y-66360000D01*
X190500000Y-66210000D02*
X191874000Y-66210000D01*
X190500000Y-66210000D02*
X190500000Y-64770000D01*
X198370000Y-62855000D02*
X198370000Y-63659000D01*
X198044999Y-62529999D02*
X198370000Y-62855000D01*
X197657999Y-62529999D02*
X198044999Y-62529999D01*
X197358000Y-62230000D02*
X197657999Y-62529999D01*
X198370000Y-64463000D02*
X198677000Y-64770000D01*
X198370000Y-63659000D02*
X198370000Y-64463000D01*
X202184000Y-64770000D02*
X203454000Y-66040000D01*
X198677000Y-64770000D02*
X202184000Y-64770000D01*
G04 #@! TO.N,OSC_IN*
X196312000Y-68460000D02*
X196162000Y-68460000D01*
X197612000Y-67160000D02*
X196312000Y-68460000D01*
X197612000Y-65247508D02*
X197612000Y-67160000D01*
X197370000Y-65005508D02*
X197612000Y-65247508D01*
X197370000Y-63659000D02*
X197370000Y-65005508D01*
X195962000Y-68260000D02*
X196162000Y-68460000D01*
X193929000Y-68260000D02*
X195962000Y-68260000D01*
G04 #@! TO.N,OSC_OUT*
X198912000Y-66160000D02*
X199062000Y-66160000D01*
X197858000Y-65106000D02*
X198912000Y-66160000D01*
X197858000Y-64980000D02*
X197858000Y-65106000D01*
X197870000Y-64968000D02*
X197858000Y-64980000D01*
X197870000Y-63659000D02*
X197870000Y-64968000D01*
X201095000Y-66160000D02*
X201295000Y-66360000D01*
X199062000Y-66160000D02*
X201095000Y-66160000D01*
D33*
G04 #@! TO.N,Net-(C10-Pad1)*
X203407000Y-50819000D02*
X203642000Y-51054000D01*
X203407000Y-49337000D02*
X203407000Y-50819000D01*
D34*
G04 #@! TO.N,CANL*
X196342000Y-79568000D02*
X196342000Y-80043000D01*
X198694000Y-77216000D02*
X196342000Y-79568000D01*
X201084000Y-77216000D02*
X198694000Y-77216000D01*
X196342000Y-80972000D02*
X196342000Y-80043000D01*
X196342000Y-82283630D02*
X196342000Y-80972000D01*
X194413000Y-84212630D02*
X196342000Y-82283630D01*
X194413000Y-85344000D02*
X194413000Y-84212630D01*
G04 #@! TO.N,CANH*
X197612000Y-79114000D02*
X198240000Y-78486000D01*
X197612000Y-80043000D02*
X197612000Y-79114000D01*
X200406000Y-78486000D02*
X201549000Y-79629000D01*
X198240000Y-78486000D02*
X200406000Y-78486000D01*
X195798000Y-88184000D02*
X195798000Y-83602000D01*
X197612000Y-81788000D02*
X197612000Y-80043000D01*
X195798000Y-83602000D02*
X197612000Y-81788000D01*
G04 #@! TO.N,Net-(CAN1-Pad0)*
X184683000Y-88472427D02*
X186253573Y-90043000D01*
X184683000Y-85644000D02*
X184683000Y-88472427D01*
X209683000Y-88472427D02*
X208112427Y-90043000D01*
X209683000Y-85644000D02*
X209683000Y-88472427D01*
X208112427Y-90043000D02*
X186253573Y-90043000D01*
G04 #@! TO.N,Net-(J1-Pad3)*
X196977000Y-43471000D02*
X196977000Y-42667000D01*
X196977000Y-49454000D02*
X196977000Y-43471000D01*
X196342000Y-50089000D02*
X196977000Y-49454000D01*
X196342000Y-50843000D02*
X196342000Y-50089000D01*
X194777000Y-50843000D02*
X194691000Y-50757000D01*
X196342000Y-50843000D02*
X194777000Y-50843000D01*
G04 #@! TO.N,Net-(J1-Pad2)*
X197627000Y-43471000D02*
X197627000Y-42667000D01*
X197627000Y-49723000D02*
X197627000Y-43471000D01*
X197993000Y-50089000D02*
X197627000Y-49723000D01*
X197993000Y-50843000D02*
X197993000Y-50089000D01*
G04 #@! TO.N,Net-(JP1-Pad1)*
X202819000Y-77681000D02*
X203284000Y-77216000D01*
X202819000Y-79629000D02*
X202819000Y-77681000D01*
G04 #@! TO.N,USB_DP*
X196870000Y-54325000D02*
X196870000Y-54959000D01*
X196342000Y-53797000D02*
X196870000Y-54325000D01*
X196342000Y-53043000D02*
X196342000Y-53797000D01*
G04 #@! TO.N,USB_DM*
X197370000Y-54155000D02*
X197370000Y-54959000D01*
X197370000Y-53816000D02*
X197370000Y-54155000D01*
X197993000Y-53193000D02*
X197370000Y-53816000D01*
X197993000Y-53043000D02*
X197993000Y-53193000D01*
G04 #@! TO.N,Status*
X203274000Y-58059000D02*
X202470000Y-58059000D01*
X203525000Y-58059000D02*
X203274000Y-58059000D01*
X203759000Y-58293000D02*
X203525000Y-58059000D01*
X204513000Y-58293000D02*
X203759000Y-58293000D01*
G04 #@! TO.N,Net-(R6-Pad2)*
X206756000Y-58336000D02*
X206713000Y-58293000D01*
X206756000Y-60071000D02*
X206756000Y-58336000D01*
G04 #@! TO.N,SWCLK*
X191262000Y-51054000D02*
X191262000Y-50717660D01*
X191262000Y-50717660D02*
X191262000Y-49657000D01*
X191516000Y-54026000D02*
X191516000Y-51308000D01*
X193770000Y-56280000D02*
X191516000Y-54026000D01*
X193770000Y-56559000D02*
X193770000Y-56280000D01*
X191516000Y-51308000D02*
X191262000Y-51054000D01*
G04 #@! TO.N,SWDIO*
X196370000Y-55763000D02*
X196741000Y-56134000D01*
X196370000Y-54959000D02*
X196370000Y-55763000D01*
X196741000Y-56134000D02*
X201295000Y-56134000D01*
X201295000Y-56134000D02*
X201676000Y-55753000D01*
X201676000Y-54356000D02*
X200025000Y-52705000D01*
X201676000Y-55753000D02*
X201676000Y-54356000D01*
G04 #@! TO.N,CAN_Rx*
X194574000Y-60559000D02*
X195092011Y-61077011D01*
X195092011Y-62597499D02*
X193187011Y-64502499D01*
X195072000Y-73653490D02*
X195072000Y-73714000D01*
X195072000Y-73714000D02*
X195072000Y-74643000D01*
X193187011Y-71768501D02*
X195072000Y-73653490D01*
X193187011Y-64502499D02*
X193187011Y-71768501D01*
X195092011Y-61077011D02*
X195092011Y-62597499D01*
X193770000Y-60559000D02*
X194574000Y-60559000D01*
G04 #@! TO.N,CAN_Tx*
X194818000Y-61214000D02*
X194663000Y-61059000D01*
X194818000Y-62484000D02*
X194818000Y-61214000D01*
X198882000Y-75118000D02*
X198054000Y-75946000D01*
X198882000Y-74643000D02*
X198882000Y-75118000D01*
X198054000Y-75946000D02*
X193421000Y-75946000D01*
X193421000Y-75946000D02*
X192913000Y-75438000D01*
X192913000Y-75438000D02*
X192913000Y-64389000D01*
X194663000Y-61059000D02*
X193770000Y-61059000D01*
X192913000Y-64389000D02*
X194818000Y-62484000D01*
G04 #@! TD*
D35*
G04 #@! TO.N,+3V3*
G36*
X192321992Y-37649636D02*
X191934636Y-38036992D01*
X191725000Y-38543098D01*
X191725000Y-39090902D01*
X191934636Y-39597008D01*
X192321992Y-39984364D01*
X192828098Y-40194000D01*
X193375902Y-40194000D01*
X193882008Y-39984364D01*
X194269364Y-39597008D01*
X194479000Y-39090902D01*
X194479000Y-38543098D01*
X194269364Y-38036992D01*
X193882008Y-37649636D01*
X193542483Y-37509000D01*
X200411517Y-37509000D01*
X200071992Y-37649636D01*
X199684636Y-38036992D01*
X199475000Y-38543098D01*
X199475000Y-39090902D01*
X199684636Y-39597008D01*
X200071992Y-39984364D01*
X200578098Y-40194000D01*
X201125902Y-40194000D01*
X201632008Y-39984364D01*
X202019364Y-39597008D01*
X202229000Y-39090902D01*
X202229000Y-38543098D01*
X202019364Y-38036992D01*
X201632008Y-37649636D01*
X201292483Y-37509000D01*
X209776998Y-37509000D01*
X210510308Y-37580902D01*
X211189706Y-37786025D01*
X211816328Y-38119205D01*
X212366295Y-38567747D01*
X212818673Y-39114579D01*
X213156218Y-39738854D01*
X213366081Y-40416807D01*
X213442997Y-41148617D01*
X213316063Y-95857362D01*
X213244098Y-96591308D01*
X213038975Y-97270706D01*
X212705795Y-97897328D01*
X212257253Y-98447295D01*
X211710421Y-98899673D01*
X211086144Y-99237219D01*
X210408188Y-99447082D01*
X209676374Y-99523998D01*
X209675937Y-99524000D01*
X184684993Y-99524000D01*
X183951692Y-99452098D01*
X183272294Y-99246975D01*
X182645672Y-98913795D01*
X182095705Y-98465253D01*
X181643327Y-97918421D01*
X181305781Y-97294144D01*
X181095918Y-96616188D01*
X181019002Y-95884374D01*
X181019000Y-95883937D01*
X181019000Y-85151294D01*
X182206000Y-85151294D01*
X182206000Y-86136706D01*
X182583101Y-87047108D01*
X183279892Y-87743899D01*
X184129001Y-88095612D01*
X184129001Y-88417865D01*
X184118148Y-88472427D01*
X184161144Y-88688586D01*
X184252682Y-88825582D01*
X184252683Y-88825583D01*
X184283590Y-88871838D01*
X184329844Y-88902744D01*
X185823256Y-90396157D01*
X185854162Y-90442411D01*
X186037413Y-90564856D01*
X186199011Y-90597000D01*
X186199015Y-90597000D01*
X186253573Y-90607852D01*
X186308131Y-90597000D01*
X208057869Y-90597000D01*
X208112427Y-90607852D01*
X208166985Y-90597000D01*
X208166989Y-90597000D01*
X208328587Y-90564856D01*
X208511838Y-90442411D01*
X208542746Y-90396154D01*
X210036157Y-88902744D01*
X210082411Y-88871838D01*
X210113319Y-88825582D01*
X210204856Y-88688587D01*
X210204856Y-88688586D01*
X210237000Y-88526989D01*
X210237000Y-88526985D01*
X210247852Y-88472427D01*
X210237000Y-88417869D01*
X210237000Y-88095611D01*
X211086108Y-87743899D01*
X211782899Y-87047108D01*
X212160000Y-86136706D01*
X212160000Y-85151294D01*
X211782899Y-84240892D01*
X211086108Y-83544101D01*
X210175706Y-83167000D01*
X209190294Y-83167000D01*
X208279892Y-83544101D01*
X207583101Y-84240892D01*
X207206000Y-85151294D01*
X207206000Y-86136706D01*
X207583101Y-87047108D01*
X208279892Y-87743899D01*
X209129001Y-88095612D01*
X209129001Y-88242952D01*
X207882954Y-89489000D01*
X186483047Y-89489000D01*
X185237000Y-88242954D01*
X185237000Y-88095611D01*
X185636846Y-87929989D01*
X191751000Y-87929989D01*
X191751000Y-88438011D01*
X191945412Y-88907362D01*
X192304638Y-89266588D01*
X192773989Y-89461000D01*
X193282011Y-89461000D01*
X193751362Y-89266588D01*
X194110588Y-88907362D01*
X194305000Y-88438011D01*
X194305000Y-87929989D01*
X194110588Y-87460638D01*
X193751362Y-87101412D01*
X193282011Y-86907000D01*
X192773989Y-86907000D01*
X192304638Y-87101412D01*
X191945412Y-87460638D01*
X191751000Y-87929989D01*
X185636846Y-87929989D01*
X186086108Y-87743899D01*
X186782899Y-87047108D01*
X187160000Y-86136706D01*
X187160000Y-85151294D01*
X186908451Y-84544000D01*
X190356656Y-84544000D01*
X190356656Y-86144000D01*
X190393677Y-86330116D01*
X190499103Y-86487897D01*
X190656884Y-86593323D01*
X190843000Y-86630344D01*
X192443000Y-86630344D01*
X192629116Y-86593323D01*
X192786897Y-86487897D01*
X192892323Y-86330116D01*
X192929344Y-86144000D01*
X192929344Y-85089989D01*
X193136000Y-85089989D01*
X193136000Y-85598011D01*
X193330412Y-86067362D01*
X193689638Y-86426588D01*
X194158989Y-86621000D01*
X194667011Y-86621000D01*
X195136362Y-86426588D01*
X195244000Y-86318950D01*
X195244000Y-87031260D01*
X195074638Y-87101412D01*
X194715412Y-87460638D01*
X194521000Y-87929989D01*
X194521000Y-88438011D01*
X194715412Y-88907362D01*
X195074638Y-89266588D01*
X195543989Y-89461000D01*
X196052011Y-89461000D01*
X196521362Y-89266588D01*
X196880588Y-88907362D01*
X197075000Y-88438011D01*
X197075000Y-87929989D01*
X197291000Y-87929989D01*
X197291000Y-88438011D01*
X197485412Y-88907362D01*
X197844638Y-89266588D01*
X198313989Y-89461000D01*
X198822011Y-89461000D01*
X199291362Y-89266588D01*
X199650588Y-88907362D01*
X199845000Y-88438011D01*
X199845000Y-87929989D01*
X200061000Y-87929989D01*
X200061000Y-88438011D01*
X200255412Y-88907362D01*
X200614638Y-89266588D01*
X201083989Y-89461000D01*
X201592011Y-89461000D01*
X202061362Y-89266588D01*
X202420588Y-88907362D01*
X202615000Y-88438011D01*
X202615000Y-87929989D01*
X202420588Y-87460638D01*
X202061362Y-87101412D01*
X201592011Y-86907000D01*
X201083989Y-86907000D01*
X200614638Y-87101412D01*
X200255412Y-87460638D01*
X200061000Y-87929989D01*
X199845000Y-87929989D01*
X199650588Y-87460638D01*
X199291362Y-87101412D01*
X198822011Y-86907000D01*
X198313989Y-86907000D01*
X197844638Y-87101412D01*
X197485412Y-87460638D01*
X197291000Y-87929989D01*
X197075000Y-87929989D01*
X196880588Y-87460638D01*
X196521362Y-87101412D01*
X196352000Y-87031260D01*
X196352000Y-86318950D01*
X196459638Y-86426588D01*
X196928989Y-86621000D01*
X197437011Y-86621000D01*
X197906362Y-86426588D01*
X198265588Y-86067362D01*
X198460000Y-85598011D01*
X198460000Y-85089989D01*
X198676000Y-85089989D01*
X198676000Y-85598011D01*
X198870412Y-86067362D01*
X199229638Y-86426588D01*
X199698989Y-86621000D01*
X200207011Y-86621000D01*
X200676362Y-86426588D01*
X201035588Y-86067362D01*
X201230000Y-85598011D01*
X201230000Y-85089989D01*
X201446000Y-85089989D01*
X201446000Y-85598011D01*
X201640412Y-86067362D01*
X201999638Y-86426588D01*
X202468989Y-86621000D01*
X202977011Y-86621000D01*
X203446362Y-86426588D01*
X203805588Y-86067362D01*
X204000000Y-85598011D01*
X204000000Y-85089989D01*
X203805588Y-84620638D01*
X203446362Y-84261412D01*
X202977011Y-84067000D01*
X202468989Y-84067000D01*
X201999638Y-84261412D01*
X201640412Y-84620638D01*
X201446000Y-85089989D01*
X201230000Y-85089989D01*
X201035588Y-84620638D01*
X200676362Y-84261412D01*
X200207011Y-84067000D01*
X199698989Y-84067000D01*
X199229638Y-84261412D01*
X198870412Y-84620638D01*
X198676000Y-85089989D01*
X198460000Y-85089989D01*
X198265588Y-84620638D01*
X197906362Y-84261412D01*
X197437011Y-84067000D01*
X196928989Y-84067000D01*
X196459638Y-84261412D01*
X196352000Y-84369050D01*
X196352000Y-83831473D01*
X197965160Y-82218315D01*
X198011411Y-82187411D01*
X198042315Y-82141160D01*
X198042318Y-82141157D01*
X198091553Y-82067471D01*
X198133856Y-82004160D01*
X198166000Y-81842562D01*
X198166000Y-81842557D01*
X198176852Y-81788001D01*
X198166000Y-81733444D01*
X198166000Y-81221964D01*
X198247000Y-81167842D01*
X198280001Y-81189892D01*
X198280001Y-81390561D01*
X198232000Y-81506445D01*
X198232000Y-81815555D01*
X198350291Y-82101135D01*
X198568865Y-82319709D01*
X198854445Y-82438000D01*
X199163555Y-82438000D01*
X199449135Y-82319709D01*
X199667709Y-82101135D01*
X199786000Y-81815555D01*
X199786000Y-81506445D01*
X199667709Y-81220865D01*
X199559080Y-81112236D01*
X199631323Y-81004116D01*
X199668344Y-80818000D01*
X199668344Y-79268000D01*
X199631323Y-79081884D01*
X199603337Y-79040000D01*
X200176527Y-79040000D01*
X200588144Y-79451618D01*
X200552860Y-79629000D01*
X200628687Y-80010206D01*
X200844623Y-80333377D01*
X201167794Y-80549313D01*
X201452777Y-80606000D01*
X201645223Y-80606000D01*
X201930206Y-80549313D01*
X202009837Y-80496105D01*
X202132884Y-80578323D01*
X202319000Y-80615344D01*
X203319000Y-80615344D01*
X203505116Y-80578323D01*
X203662897Y-80472897D01*
X203768323Y-80315116D01*
X203805344Y-80129000D01*
X203805344Y-79129000D01*
X203768323Y-78942884D01*
X203662897Y-78785103D01*
X203505116Y-78679677D01*
X203373000Y-78653397D01*
X203373000Y-78152344D01*
X203884000Y-78152344D01*
X204070116Y-78115323D01*
X204227897Y-78009897D01*
X204333323Y-77852116D01*
X204370344Y-77666000D01*
X204370344Y-77378185D01*
X207300000Y-77378185D01*
X207300000Y-78323815D01*
X207661877Y-79197462D01*
X208330538Y-79866123D01*
X209204185Y-80228000D01*
X210149815Y-80228000D01*
X211023462Y-79866123D01*
X211692123Y-79197462D01*
X212054000Y-78323815D01*
X212054000Y-77378185D01*
X211692123Y-76504538D01*
X211023462Y-75835877D01*
X210149815Y-75474000D01*
X209204185Y-75474000D01*
X208330538Y-75835877D01*
X207661877Y-76504538D01*
X207300000Y-77378185D01*
X204370344Y-77378185D01*
X204370344Y-76766000D01*
X204333323Y-76579884D01*
X204227897Y-76422103D01*
X204070116Y-76316677D01*
X203884000Y-76279656D01*
X202684000Y-76279656D01*
X202497884Y-76316677D01*
X202340103Y-76422103D01*
X202234677Y-76579884D01*
X202197656Y-76766000D01*
X202197656Y-77666000D01*
X202234677Y-77852116D01*
X202265001Y-77897499D01*
X202265001Y-78653397D01*
X202132884Y-78679677D01*
X202009837Y-78761895D01*
X201930206Y-78708687D01*
X201645223Y-78652000D01*
X201452777Y-78652000D01*
X201371618Y-78668144D01*
X200855817Y-78152344D01*
X201684000Y-78152344D01*
X201870116Y-78115323D01*
X202027897Y-78009897D01*
X202133323Y-77852116D01*
X202170344Y-77666000D01*
X202170344Y-76766000D01*
X202133323Y-76579884D01*
X202027897Y-76422103D01*
X201870116Y-76316677D01*
X201684000Y-76279656D01*
X200484000Y-76279656D01*
X200297884Y-76316677D01*
X200140103Y-76422103D01*
X200034677Y-76579884D01*
X200018343Y-76662000D01*
X198748556Y-76662000D01*
X198693999Y-76651148D01*
X198639443Y-76662000D01*
X198639438Y-76662000D01*
X198477840Y-76694144D01*
X198409212Y-76740000D01*
X198340843Y-76785682D01*
X198340840Y-76785685D01*
X198294589Y-76816589D01*
X198263685Y-76862840D01*
X196344871Y-78781656D01*
X196042000Y-78781656D01*
X195855884Y-78818677D01*
X195834794Y-78832769D01*
X195731699Y-78729673D01*
X195498310Y-78633000D01*
X195357750Y-78633000D01*
X195199000Y-78791750D01*
X195199000Y-79916000D01*
X195219000Y-79916000D01*
X195219000Y-80170000D01*
X195199000Y-80170000D01*
X195199000Y-81294250D01*
X195357750Y-81453000D01*
X195498310Y-81453000D01*
X195731699Y-81356327D01*
X195788001Y-81300025D01*
X195788000Y-82054156D01*
X194059844Y-83782313D01*
X194013590Y-83813219D01*
X193982684Y-83859473D01*
X193982682Y-83859475D01*
X193891144Y-83996471D01*
X193851806Y-84194240D01*
X193689638Y-84261412D01*
X193330412Y-84620638D01*
X193136000Y-85089989D01*
X192929344Y-85089989D01*
X192929344Y-84544000D01*
X192892323Y-84357884D01*
X192786897Y-84200103D01*
X192629116Y-84094677D01*
X192443000Y-84057656D01*
X190843000Y-84057656D01*
X190656884Y-84094677D01*
X190499103Y-84200103D01*
X190393677Y-84357884D01*
X190356656Y-84544000D01*
X186908451Y-84544000D01*
X186782899Y-84240892D01*
X186086108Y-83544101D01*
X185175706Y-83167000D01*
X184190294Y-83167000D01*
X183279892Y-83544101D01*
X182583101Y-84240892D01*
X182206000Y-85151294D01*
X181019000Y-85151294D01*
X181019000Y-80275750D01*
X190256000Y-80275750D01*
X190256000Y-80866309D01*
X190352673Y-81099698D01*
X190531301Y-81278327D01*
X190764690Y-81375000D01*
X191230250Y-81375000D01*
X191389000Y-81216250D01*
X191389000Y-80117000D01*
X190414750Y-80117000D01*
X190256000Y-80275750D01*
X181019000Y-80275750D01*
X181019000Y-77378185D01*
X182281000Y-77378185D01*
X182281000Y-78323815D01*
X182642877Y-79197462D01*
X183311538Y-79866123D01*
X184185185Y-80228000D01*
X185130815Y-80228000D01*
X186004462Y-79866123D01*
X186673123Y-79197462D01*
X187035000Y-78323815D01*
X187035000Y-77378185D01*
X186673123Y-76504538D01*
X186004462Y-75835877D01*
X185130815Y-75474000D01*
X184185185Y-75474000D01*
X183311538Y-75835877D01*
X182642877Y-76504538D01*
X182281000Y-77378185D01*
X181019000Y-77378185D01*
X181019000Y-51054000D01*
X182012208Y-51054000D01*
X182024000Y-51113283D01*
X182024001Y-67631712D01*
X182012208Y-67691000D01*
X182058930Y-67925888D01*
X182158399Y-68074755D01*
X182158402Y-68074758D01*
X182191984Y-68125017D01*
X182242243Y-68158599D01*
X185714399Y-71630755D01*
X185747983Y-71681017D01*
X185798245Y-71714601D01*
X185947110Y-71814070D01*
X185947111Y-71814070D01*
X185947112Y-71814071D01*
X186122712Y-71849000D01*
X186122716Y-71849000D01*
X186181999Y-71860792D01*
X186241282Y-71849000D01*
X191273156Y-71849000D01*
X191329865Y-71905709D01*
X191615445Y-72024000D01*
X191924555Y-72024000D01*
X192210135Y-71905709D01*
X192359000Y-71756844D01*
X192359000Y-75383442D01*
X192348148Y-75438000D01*
X192359000Y-75492558D01*
X192359000Y-75492561D01*
X192391144Y-75654159D01*
X192513589Y-75837411D01*
X192559846Y-75868319D01*
X192797341Y-76105815D01*
X192635291Y-76267865D01*
X192544947Y-76485974D01*
X192484897Y-76396103D01*
X192327116Y-76290677D01*
X192141000Y-76253656D01*
X190891000Y-76253656D01*
X190704884Y-76290677D01*
X190547103Y-76396103D01*
X190441677Y-76553884D01*
X190404656Y-76740000D01*
X190404656Y-78240000D01*
X190441677Y-78426116D01*
X190547103Y-78583897D01*
X190649867Y-78652561D01*
X190531301Y-78701673D01*
X190352673Y-78880302D01*
X190256000Y-79113691D01*
X190256000Y-79704250D01*
X190414750Y-79863000D01*
X191389000Y-79863000D01*
X191389000Y-79843000D01*
X191643000Y-79843000D01*
X191643000Y-79863000D01*
X191663000Y-79863000D01*
X191663000Y-80117000D01*
X191643000Y-80117000D01*
X191643000Y-81216250D01*
X191801750Y-81375000D01*
X192267310Y-81375000D01*
X192500699Y-81278327D01*
X192534000Y-81245026D01*
X192559301Y-81270327D01*
X192792690Y-81367000D01*
X193008250Y-81367000D01*
X193167000Y-81208250D01*
X193167000Y-80259000D01*
X193421000Y-80259000D01*
X193421000Y-81208250D01*
X193579750Y-81367000D01*
X193795310Y-81367000D01*
X194028699Y-81270327D01*
X194200768Y-81098257D01*
X194233673Y-81177698D01*
X194412301Y-81356327D01*
X194645690Y-81453000D01*
X194786250Y-81453000D01*
X194945000Y-81294250D01*
X194945000Y-80170000D01*
X194295750Y-80170000D01*
X194176000Y-80289750D01*
X194145250Y-80259000D01*
X193421000Y-80259000D01*
X193167000Y-80259000D01*
X193147000Y-80259000D01*
X193147000Y-80005000D01*
X193167000Y-80005000D01*
X193167000Y-79985000D01*
X193421000Y-79985000D01*
X193421000Y-80005000D01*
X194145250Y-80005000D01*
X194265000Y-79885250D01*
X194295750Y-79916000D01*
X194945000Y-79916000D01*
X194945000Y-78791750D01*
X194786250Y-78633000D01*
X194645690Y-78633000D01*
X194412301Y-78729673D01*
X194233673Y-78908302D01*
X194148633Y-79113607D01*
X194092215Y-79057189D01*
X194118323Y-79018116D01*
X194155344Y-78832000D01*
X194155344Y-77632000D01*
X194118323Y-77445884D01*
X194012897Y-77288103D01*
X193896000Y-77209995D01*
X193896000Y-77204844D01*
X193952709Y-77148135D01*
X194071000Y-76862555D01*
X194071000Y-76553445D01*
X194048862Y-76500000D01*
X197999442Y-76500000D01*
X198054000Y-76510852D01*
X198108558Y-76500000D01*
X198108562Y-76500000D01*
X198270160Y-76467856D01*
X198453411Y-76345411D01*
X198484319Y-76299154D01*
X198879130Y-75904344D01*
X199182000Y-75904344D01*
X199368116Y-75867323D01*
X199525897Y-75761897D01*
X199631323Y-75604116D01*
X199668344Y-75418000D01*
X199668344Y-73868000D01*
X199631323Y-73681884D01*
X199525897Y-73524103D01*
X199395266Y-73436818D01*
X199505897Y-73362897D01*
X199526984Y-73331339D01*
X199743445Y-73421000D01*
X200052555Y-73421000D01*
X200338135Y-73302709D01*
X200556709Y-73084135D01*
X200675000Y-72798555D01*
X200675000Y-72489445D01*
X200556709Y-72203865D01*
X200338135Y-71985291D01*
X200052555Y-71867000D01*
X200034852Y-71867000D01*
X200082897Y-71834897D01*
X200188323Y-71677116D01*
X200225344Y-71491000D01*
X200225344Y-70241000D01*
X200188323Y-70054884D01*
X200082897Y-69897103D01*
X200006931Y-69846344D01*
X200112000Y-69846344D01*
X200298116Y-69809323D01*
X200455897Y-69703897D01*
X200518000Y-69610953D01*
X200518000Y-69750555D01*
X200636291Y-70036135D01*
X200854865Y-70254709D01*
X201140445Y-70373000D01*
X201449555Y-70373000D01*
X201735135Y-70254709D01*
X201953709Y-70036135D01*
X202072000Y-69750555D01*
X202072000Y-69441445D01*
X201982339Y-69224984D01*
X202013897Y-69203897D01*
X202119323Y-69046116D01*
X202156344Y-68860000D01*
X202156344Y-67660000D01*
X202119323Y-67473884D01*
X202013897Y-67316103D01*
X202004763Y-67310000D01*
X202013897Y-67303897D01*
X202119323Y-67146116D01*
X202156344Y-66960000D01*
X202156344Y-65760000D01*
X202119323Y-65573884D01*
X202013897Y-65416103D01*
X201876055Y-65324000D01*
X201954527Y-65324000D01*
X202285421Y-65654895D01*
X202227000Y-65795935D01*
X202227000Y-66284065D01*
X202413800Y-66735039D01*
X202758961Y-67080200D01*
X203209935Y-67267000D01*
X203698065Y-67267000D01*
X204149039Y-67080200D01*
X204494200Y-66735039D01*
X204681000Y-66284065D01*
X204681000Y-65795935D01*
X204494200Y-65344961D01*
X204149039Y-64999800D01*
X203698065Y-64813000D01*
X203209935Y-64813000D01*
X203068895Y-64871421D01*
X202614318Y-64416845D01*
X202583411Y-64370589D01*
X202400160Y-64248144D01*
X202238562Y-64216000D01*
X202238558Y-64216000D01*
X202184000Y-64205148D01*
X202129442Y-64216000D01*
X201481344Y-64216000D01*
X201481344Y-63009000D01*
X201444323Y-62822884D01*
X201338897Y-62665103D01*
X201181116Y-62559677D01*
X200995000Y-62522656D01*
X200745000Y-62522656D01*
X200620000Y-62547520D01*
X200495000Y-62522656D01*
X200245000Y-62522656D01*
X200120000Y-62547520D01*
X199995000Y-62522656D01*
X199906682Y-62522656D01*
X199854699Y-62470673D01*
X199621310Y-62374000D01*
X199591250Y-62374000D01*
X199497002Y-62468248D01*
X199497002Y-62374000D01*
X199415360Y-62374000D01*
X199405000Y-62321919D01*
X199405000Y-62075445D01*
X199286709Y-61789865D01*
X199068135Y-61571291D01*
X198782555Y-61453000D01*
X198473445Y-61453000D01*
X198187865Y-61571291D01*
X197993000Y-61766156D01*
X197798135Y-61571291D01*
X197512555Y-61453000D01*
X197203445Y-61453000D01*
X196917865Y-61571291D01*
X196699291Y-61789865D01*
X196581000Y-62075445D01*
X196581000Y-62384555D01*
X196646333Y-62542282D01*
X196620000Y-62547520D01*
X196495000Y-62522656D01*
X196245000Y-62522656D01*
X196120000Y-62547520D01*
X195995000Y-62522656D01*
X195745000Y-62522656D01*
X195646011Y-62542346D01*
X195646011Y-61131567D01*
X195656863Y-61077010D01*
X195646011Y-61022454D01*
X195646011Y-61022449D01*
X195613867Y-60860851D01*
X195555560Y-60773589D01*
X195522329Y-60723854D01*
X195522326Y-60723851D01*
X195491422Y-60677600D01*
X195445170Y-60646696D01*
X195004319Y-60205845D01*
X194973411Y-60159589D01*
X194906344Y-60114776D01*
X194906344Y-59934000D01*
X194881480Y-59809000D01*
X194906344Y-59684000D01*
X194906344Y-59434000D01*
X194881480Y-59309000D01*
X194906344Y-59184000D01*
X194906344Y-58934000D01*
X194881480Y-58809000D01*
X194906344Y-58684000D01*
X194906344Y-58434000D01*
X194881480Y-58309000D01*
X194906344Y-58184000D01*
X194906344Y-57934000D01*
X194881480Y-57809000D01*
X194906344Y-57684000D01*
X194906344Y-57434000D01*
X194881480Y-57309000D01*
X194906344Y-57184000D01*
X194906344Y-56934000D01*
X194881480Y-56809000D01*
X194906344Y-56684000D01*
X194906344Y-56434000D01*
X194869323Y-56247884D01*
X194763897Y-56090103D01*
X194606116Y-55984677D01*
X194420000Y-55947656D01*
X194214225Y-55947656D01*
X194200318Y-55926843D01*
X194200315Y-55926840D01*
X194169411Y-55880589D01*
X194123160Y-55849685D01*
X192347817Y-54074344D01*
X193325000Y-54074344D01*
X193511116Y-54037323D01*
X193550189Y-54011215D01*
X193665302Y-54126327D01*
X193898691Y-54223000D01*
X194339250Y-54223000D01*
X194497998Y-54064252D01*
X194497998Y-54223000D01*
X194610000Y-54223000D01*
X194610000Y-54673250D01*
X194768750Y-54832000D01*
X195258656Y-54832000D01*
X195258656Y-55086000D01*
X194768750Y-55086000D01*
X194610000Y-55244750D01*
X194610000Y-55735309D01*
X194706673Y-55968698D01*
X194885301Y-56147327D01*
X195062303Y-56220644D01*
X195057000Y-56233445D01*
X195057000Y-56542555D01*
X195175291Y-56828135D01*
X195393865Y-57046709D01*
X195679445Y-57165000D01*
X195988555Y-57165000D01*
X196274135Y-57046709D01*
X196492709Y-56828135D01*
X196561083Y-56663065D01*
X196686438Y-56688000D01*
X196686443Y-56688000D01*
X196740999Y-56698852D01*
X196795556Y-56688000D01*
X200531156Y-56688000D01*
X200509291Y-56709865D01*
X200391000Y-56995445D01*
X200391000Y-57304555D01*
X200509291Y-57590135D01*
X200727865Y-57808709D01*
X201013445Y-57927000D01*
X201322555Y-57927000D01*
X201336170Y-57921360D01*
X201333656Y-57934000D01*
X201333656Y-58184000D01*
X201358520Y-58309000D01*
X201333656Y-58434000D01*
X201333656Y-58684000D01*
X201358520Y-58809000D01*
X201333656Y-58934000D01*
X201333656Y-59184000D01*
X201358520Y-59309000D01*
X201333656Y-59434000D01*
X201333656Y-59684000D01*
X201358520Y-59809000D01*
X201333656Y-59934000D01*
X201333656Y-60184000D01*
X201358520Y-60309000D01*
X201333656Y-60434000D01*
X201333656Y-60684000D01*
X201358520Y-60809000D01*
X201333656Y-60934000D01*
X201333656Y-61184000D01*
X201358520Y-61309000D01*
X201333656Y-61434000D01*
X201333656Y-61684000D01*
X201358520Y-61809000D01*
X201333656Y-61934000D01*
X201333656Y-62184000D01*
X201370677Y-62370116D01*
X201476103Y-62527897D01*
X201633884Y-62633323D01*
X201820000Y-62670344D01*
X203120000Y-62670344D01*
X203306116Y-62633323D01*
X203463897Y-62527897D01*
X203569323Y-62370116D01*
X203606344Y-62184000D01*
X203606344Y-61934000D01*
X203581480Y-61809000D01*
X203606344Y-61684000D01*
X203606344Y-61434000D01*
X203581480Y-61309000D01*
X203606344Y-61184000D01*
X203606344Y-60934000D01*
X203584331Y-60823333D01*
X203612103Y-60864897D01*
X203769884Y-60970323D01*
X203850291Y-60986317D01*
X203820000Y-61059445D01*
X203820000Y-61368555D01*
X203938291Y-61654135D01*
X204156865Y-61872709D01*
X204442445Y-61991000D01*
X204751555Y-61991000D01*
X205037135Y-61872709D01*
X205255709Y-61654135D01*
X205374000Y-61368555D01*
X205374000Y-61059445D01*
X205337467Y-60971248D01*
X205342116Y-60970323D01*
X205499897Y-60864897D01*
X205605323Y-60707116D01*
X205642344Y-60521000D01*
X205642344Y-59621000D01*
X205605323Y-59434884D01*
X205499897Y-59277103D01*
X205342116Y-59171677D01*
X205332791Y-59169822D01*
X205456897Y-59086897D01*
X205562323Y-58929116D01*
X205599344Y-58743000D01*
X205599344Y-57843000D01*
X205626656Y-57843000D01*
X205626656Y-58743000D01*
X205663677Y-58929116D01*
X205769103Y-59086897D01*
X205926884Y-59192323D01*
X205936209Y-59194178D01*
X205812103Y-59277103D01*
X205706677Y-59434884D01*
X205669656Y-59621000D01*
X205669656Y-60521000D01*
X205706677Y-60707116D01*
X205812103Y-60864897D01*
X205969884Y-60970323D01*
X206156000Y-61007344D01*
X207356000Y-61007344D01*
X207542116Y-60970323D01*
X207699897Y-60864897D01*
X207805323Y-60707116D01*
X207842344Y-60521000D01*
X207842344Y-59621000D01*
X207805323Y-59434884D01*
X207699897Y-59277103D01*
X207542116Y-59171677D01*
X207532791Y-59169822D01*
X207656897Y-59086897D01*
X207762323Y-58929116D01*
X207799344Y-58743000D01*
X207799344Y-57843000D01*
X207762323Y-57656884D01*
X207656897Y-57499103D01*
X207499116Y-57393677D01*
X207313000Y-57356656D01*
X206113000Y-57356656D01*
X205926884Y-57393677D01*
X205769103Y-57499103D01*
X205663677Y-57656884D01*
X205626656Y-57843000D01*
X205599344Y-57843000D01*
X205562323Y-57656884D01*
X205456897Y-57499103D01*
X205299116Y-57393677D01*
X205265332Y-57386957D01*
X205353000Y-57175309D01*
X205353000Y-56734750D01*
X205194250Y-56576000D01*
X204470000Y-56576000D01*
X204470000Y-56596000D01*
X204216000Y-56596000D01*
X204216000Y-56576000D01*
X204196000Y-56576000D01*
X204196000Y-56322000D01*
X204216000Y-56322000D01*
X204216000Y-56302000D01*
X204470000Y-56302000D01*
X204470000Y-56322000D01*
X205194250Y-56322000D01*
X205353000Y-56163250D01*
X205353000Y-55722691D01*
X205256327Y-55489302D01*
X205141215Y-55374189D01*
X205167323Y-55335116D01*
X205170281Y-55320244D01*
X205331445Y-55387000D01*
X205640555Y-55387000D01*
X205926135Y-55268709D01*
X206144709Y-55050135D01*
X206263000Y-54764555D01*
X206263000Y-54455445D01*
X206144709Y-54169865D01*
X205926135Y-53951291D01*
X205640555Y-53833000D01*
X205331445Y-53833000D01*
X205192701Y-53890469D01*
X205167323Y-53762884D01*
X205061897Y-53605103D01*
X204904116Y-53499677D01*
X204718000Y-53462656D01*
X203968000Y-53462656D01*
X203781884Y-53499677D01*
X203624103Y-53605103D01*
X203518677Y-53762884D01*
X203481656Y-53949000D01*
X203481656Y-55149000D01*
X203518677Y-55335116D01*
X203544785Y-55374189D01*
X203429673Y-55489302D01*
X203333000Y-55722691D01*
X203333000Y-55834909D01*
X203246309Y-55799000D01*
X202755750Y-55799000D01*
X202597000Y-55957750D01*
X202597000Y-56447656D01*
X202343000Y-56447656D01*
X202343000Y-55957750D01*
X202223830Y-55838580D01*
X202230000Y-55807562D01*
X202230000Y-55807557D01*
X202240852Y-55753001D01*
X202230000Y-55698444D01*
X202230000Y-54410558D01*
X202240852Y-54356000D01*
X202230000Y-54301442D01*
X202230000Y-54301438D01*
X202197856Y-54139840D01*
X202075411Y-53956589D01*
X202029157Y-53925683D01*
X201193579Y-53090105D01*
X201252000Y-52949065D01*
X201252000Y-52460935D01*
X201065200Y-52009961D01*
X200888613Y-51833374D01*
X200955884Y-51878323D01*
X201142000Y-51915344D01*
X202342000Y-51915344D01*
X202528116Y-51878323D01*
X202685897Y-51772897D01*
X202692000Y-51763763D01*
X202698103Y-51772897D01*
X202855884Y-51878323D01*
X203042000Y-51915344D01*
X204242000Y-51915344D01*
X204428116Y-51878323D01*
X204585897Y-51772897D01*
X204691323Y-51615116D01*
X204728344Y-51429000D01*
X204728344Y-50679000D01*
X204691323Y-50492884D01*
X204585897Y-50335103D01*
X204428116Y-50229677D01*
X204242000Y-50192656D01*
X204009000Y-50192656D01*
X204009000Y-50148344D01*
X204187000Y-50148344D01*
X204373116Y-50111323D01*
X204530897Y-50005897D01*
X204636323Y-49848116D01*
X204673344Y-49662000D01*
X204673344Y-49012000D01*
X204636323Y-48825884D01*
X204530897Y-48668103D01*
X204373116Y-48562677D01*
X204187000Y-48525656D01*
X202627000Y-48525656D01*
X202599912Y-48531044D01*
X202624071Y-48494888D01*
X202643542Y-48397000D01*
X203121250Y-48397000D01*
X203280000Y-48238250D01*
X203280000Y-47564000D01*
X203534000Y-47564000D01*
X203534000Y-48238250D01*
X203692750Y-48397000D01*
X204296288Y-48397000D01*
X204322673Y-48460698D01*
X204501301Y-48639327D01*
X204734690Y-48736000D01*
X205200250Y-48736000D01*
X205359000Y-48577250D01*
X205359000Y-47478000D01*
X205613000Y-47478000D01*
X205613000Y-48577250D01*
X205771750Y-48736000D01*
X206237310Y-48736000D01*
X206470699Y-48639327D01*
X206649327Y-48460698D01*
X206746000Y-48227309D01*
X206746000Y-47636750D01*
X206587250Y-47478000D01*
X205613000Y-47478000D01*
X205359000Y-47478000D01*
X204384750Y-47478000D01*
X204298750Y-47564000D01*
X203534000Y-47564000D01*
X203280000Y-47564000D01*
X203260000Y-47564000D01*
X203260000Y-47310000D01*
X203280000Y-47310000D01*
X203280000Y-46635750D01*
X203121250Y-46477000D01*
X202768356Y-46477000D01*
X202795012Y-46450344D01*
X203930000Y-46450344D01*
X204116116Y-46413323D01*
X204273897Y-46307897D01*
X204379323Y-46150116D01*
X204416344Y-45964000D01*
X204416344Y-45941000D01*
X204514499Y-45941000D01*
X204517103Y-45944897D01*
X204619867Y-46013561D01*
X204501301Y-46062673D01*
X204322673Y-46241302D01*
X204226000Y-46474691D01*
X204226000Y-46477000D01*
X203692750Y-46477000D01*
X203534000Y-46635750D01*
X203534000Y-47310000D01*
X204663250Y-47310000D01*
X204749250Y-47224000D01*
X205359000Y-47224000D01*
X205359000Y-47204000D01*
X205613000Y-47204000D01*
X205613000Y-47224000D01*
X206587250Y-47224000D01*
X206746000Y-47065250D01*
X206746000Y-46474691D01*
X206649327Y-46241302D01*
X206470699Y-46062673D01*
X206352133Y-46013561D01*
X206454897Y-45944897D01*
X206560323Y-45787116D01*
X206597344Y-45601000D01*
X206597344Y-45517188D01*
X206696865Y-45616709D01*
X206982445Y-45735000D01*
X207291555Y-45735000D01*
X207577135Y-45616709D01*
X207795709Y-45398135D01*
X207914000Y-45112555D01*
X207914000Y-44803445D01*
X207795709Y-44517865D01*
X207577135Y-44299291D01*
X207291555Y-44181000D01*
X206982445Y-44181000D01*
X206818278Y-44249000D01*
X206597344Y-44249000D01*
X206597344Y-44101000D01*
X206560323Y-43914884D01*
X206454897Y-43757103D01*
X206297116Y-43651677D01*
X206111000Y-43614656D01*
X205220926Y-43614656D01*
X205292039Y-43585200D01*
X205637200Y-43240039D01*
X205824000Y-42789065D01*
X205824000Y-42300935D01*
X205637200Y-41849961D01*
X205292039Y-41504800D01*
X204841065Y-41318000D01*
X204352935Y-41318000D01*
X203901961Y-41504800D01*
X203556800Y-41849961D01*
X203516336Y-41947650D01*
X203364112Y-41977929D01*
X203364110Y-41977930D01*
X203364111Y-41977930D01*
X203215244Y-42077399D01*
X203215242Y-42077401D01*
X203164983Y-42110983D01*
X203131401Y-42161242D01*
X202035563Y-43257080D01*
X202179000Y-42910794D01*
X202179000Y-42323206D01*
X201954140Y-41780347D01*
X201538653Y-41364860D01*
X200995794Y-41140000D01*
X200408206Y-41140000D01*
X200272647Y-41196151D01*
X200220484Y-41070220D01*
X199973780Y-40823516D01*
X199651446Y-40690000D01*
X199302554Y-40690000D01*
X198980220Y-40823516D01*
X198733516Y-41070220D01*
X198600000Y-41392554D01*
X198600000Y-41550150D01*
X198502000Y-41530656D01*
X198052000Y-41530656D01*
X197952000Y-41550547D01*
X197852000Y-41530656D01*
X197402000Y-41530656D01*
X197302000Y-41550547D01*
X197202000Y-41530656D01*
X196752000Y-41530656D01*
X196652000Y-41550547D01*
X196552000Y-41530656D01*
X196102000Y-41530656D01*
X196002000Y-41550547D01*
X195902000Y-41530656D01*
X195452000Y-41530656D01*
X195354000Y-41550150D01*
X195354000Y-41392554D01*
X195220484Y-41070220D01*
X194973780Y-40823516D01*
X194651446Y-40690000D01*
X194302554Y-40690000D01*
X193980220Y-40823516D01*
X193733516Y-41070220D01*
X193681353Y-41196151D01*
X193545794Y-41140000D01*
X192958206Y-41140000D01*
X192415347Y-41364860D01*
X191999860Y-41780347D01*
X191775000Y-42323206D01*
X191775000Y-42910794D01*
X191999860Y-43453653D01*
X192415347Y-43869140D01*
X192958206Y-44094000D01*
X193545794Y-44094000D01*
X194088653Y-43869140D01*
X194504140Y-43453653D01*
X194729000Y-42910794D01*
X194729000Y-42411876D01*
X194965656Y-42313849D01*
X194965656Y-43317000D01*
X195002677Y-43503116D01*
X195075001Y-43611356D01*
X195075001Y-43856155D01*
X194921291Y-44009865D01*
X194803000Y-44295445D01*
X194803000Y-44604555D01*
X194921291Y-44890135D01*
X195139865Y-45108709D01*
X195425445Y-45227000D01*
X195734555Y-45227000D01*
X196020135Y-45108709D01*
X196238709Y-44890135D01*
X196357000Y-44604555D01*
X196357000Y-44295445D01*
X196279000Y-44107136D01*
X196279000Y-43803344D01*
X196423001Y-43803344D01*
X196423000Y-49224526D01*
X195988844Y-49658683D01*
X195942590Y-49689589D01*
X195911684Y-49735843D01*
X195911682Y-49735845D01*
X195897777Y-49756656D01*
X195892000Y-49756656D01*
X195705884Y-49793677D01*
X195548103Y-49899103D01*
X195545232Y-49903400D01*
X195484897Y-49813103D01*
X195382133Y-49744439D01*
X195500699Y-49695327D01*
X195679327Y-49516698D01*
X195776000Y-49283309D01*
X195776000Y-48842750D01*
X195617250Y-48684000D01*
X194818000Y-48684000D01*
X194818000Y-48704000D01*
X194564000Y-48704000D01*
X194564000Y-48684000D01*
X193764750Y-48684000D01*
X193606000Y-48842750D01*
X193606000Y-49283309D01*
X193702673Y-49516698D01*
X193881301Y-49695327D01*
X193999867Y-49744439D01*
X193897103Y-49813103D01*
X193791677Y-49970884D01*
X193754656Y-50157000D01*
X193754656Y-51357000D01*
X193791677Y-51543116D01*
X193897103Y-51700897D01*
X194054884Y-51806323D01*
X194241000Y-51843344D01*
X195141000Y-51843344D01*
X195327116Y-51806323D01*
X195484897Y-51700897D01*
X195487768Y-51696600D01*
X195548103Y-51786897D01*
X195705884Y-51892323D01*
X195892000Y-51929344D01*
X196792000Y-51929344D01*
X196978116Y-51892323D01*
X197135897Y-51786897D01*
X197167500Y-51739600D01*
X197199103Y-51786897D01*
X197356884Y-51892323D01*
X197543000Y-51929344D01*
X198443000Y-51929344D01*
X198629116Y-51892323D01*
X198786897Y-51786897D01*
X198892323Y-51629116D01*
X198929344Y-51443000D01*
X198929344Y-50243000D01*
X198892323Y-50056884D01*
X198786897Y-49899103D01*
X198629116Y-49793677D01*
X198443000Y-49756656D01*
X198437225Y-49756656D01*
X198423318Y-49735843D01*
X198423315Y-49735840D01*
X198392411Y-49689589D01*
X198346159Y-49658684D01*
X198181000Y-49493526D01*
X198181000Y-49181064D01*
X198207242Y-49198598D01*
X198729401Y-49720757D01*
X198762983Y-49771017D01*
X198813242Y-49804599D01*
X198813244Y-49804601D01*
X198886294Y-49853411D01*
X198962112Y-49904071D01*
X199137712Y-49939000D01*
X199137717Y-49939000D01*
X199197000Y-49950792D01*
X199256283Y-49939000D01*
X199406156Y-49939000D01*
X199239291Y-50105865D01*
X199121000Y-50391445D01*
X199121000Y-50700555D01*
X199239291Y-50986135D01*
X199457865Y-51204709D01*
X199743445Y-51323000D01*
X200052555Y-51323000D01*
X200338135Y-51204709D01*
X200556709Y-50986135D01*
X200655656Y-50747256D01*
X200655656Y-51429000D01*
X200692677Y-51615116D01*
X200737626Y-51682387D01*
X200720039Y-51664800D01*
X200269065Y-51478000D01*
X199780935Y-51478000D01*
X199329961Y-51664800D01*
X198984800Y-52009961D01*
X198886272Y-52247828D01*
X198786897Y-52099103D01*
X198629116Y-51993677D01*
X198443000Y-51956656D01*
X197543000Y-51956656D01*
X197356884Y-51993677D01*
X197199103Y-52099103D01*
X197167500Y-52146400D01*
X197135897Y-52099103D01*
X196978116Y-51993677D01*
X196792000Y-51956656D01*
X195892000Y-51956656D01*
X195705884Y-51993677D01*
X195548103Y-52099103D01*
X195451070Y-52244323D01*
X195351309Y-52203000D01*
X194910750Y-52203000D01*
X194752000Y-52361750D01*
X194752000Y-53086000D01*
X194772000Y-53086000D01*
X194772000Y-53340000D01*
X194752000Y-53340000D01*
X194752000Y-53360000D01*
X194498000Y-53360000D01*
X194498000Y-53340000D01*
X194478000Y-53340000D01*
X194478000Y-53086000D01*
X194498000Y-53086000D01*
X194498000Y-52361750D01*
X194339250Y-52203000D01*
X193898691Y-52203000D01*
X193665302Y-52299673D01*
X193550189Y-52414785D01*
X193511116Y-52388677D01*
X193427512Y-52372047D01*
X193436000Y-52351555D01*
X193436000Y-52042445D01*
X193317709Y-51756865D01*
X193099135Y-51538291D01*
X192813555Y-51420000D01*
X192504445Y-51420000D01*
X192218865Y-51538291D01*
X192070000Y-51687156D01*
X192070000Y-51362556D01*
X192080852Y-51307999D01*
X192070000Y-51253443D01*
X192070000Y-51253438D01*
X192037856Y-51091840D01*
X191915411Y-50908589D01*
X191869156Y-50877682D01*
X191816000Y-50824526D01*
X191816000Y-50755620D01*
X191957039Y-50697200D01*
X192302200Y-50352039D01*
X192489000Y-49901065D01*
X192489000Y-49412935D01*
X192302200Y-48961961D01*
X191957039Y-48616800D01*
X191506065Y-48430000D01*
X191017935Y-48430000D01*
X190566961Y-48616800D01*
X190221800Y-48961961D01*
X190035000Y-49412935D01*
X190035000Y-49901065D01*
X190221800Y-50352039D01*
X190566961Y-50697200D01*
X190708000Y-50755620D01*
X190708000Y-50999442D01*
X190697148Y-51054000D01*
X190708000Y-51108558D01*
X190708000Y-51108561D01*
X190725250Y-51195283D01*
X190654555Y-51166000D01*
X190345445Y-51166000D01*
X190059865Y-51284291D01*
X189841291Y-51502865D01*
X189723000Y-51788445D01*
X189723000Y-52097555D01*
X189812661Y-52314016D01*
X189781103Y-52335103D01*
X189675677Y-52492884D01*
X189638656Y-52679000D01*
X189638656Y-53879000D01*
X189675677Y-54065116D01*
X189781103Y-54222897D01*
X189790237Y-54229000D01*
X189781103Y-54235103D01*
X189675677Y-54392884D01*
X189638656Y-54579000D01*
X189638656Y-55779000D01*
X189675677Y-55965116D01*
X189777450Y-56117430D01*
X189706103Y-56165103D01*
X189600677Y-56322884D01*
X189563656Y-56509000D01*
X189563656Y-57709000D01*
X189600677Y-57895116D01*
X189706103Y-58052897D01*
X189863884Y-58158323D01*
X190050000Y-58195344D01*
X190950000Y-58195344D01*
X191136116Y-58158323D01*
X191293897Y-58052897D01*
X191343001Y-57979408D01*
X191343000Y-58438591D01*
X191293897Y-58365103D01*
X191136116Y-58259677D01*
X190950000Y-58222656D01*
X190050000Y-58222656D01*
X189863884Y-58259677D01*
X189706103Y-58365103D01*
X189600677Y-58522884D01*
X189563656Y-58709000D01*
X189563656Y-59909000D01*
X189600677Y-60095116D01*
X189706103Y-60252897D01*
X189774991Y-60298927D01*
X189723000Y-60424445D01*
X189723000Y-60733555D01*
X189841291Y-61019135D01*
X190059865Y-61237709D01*
X190345445Y-61356000D01*
X190654555Y-61356000D01*
X190940135Y-61237709D01*
X191158709Y-61019135D01*
X191277000Y-60733555D01*
X191277000Y-60424445D01*
X191225009Y-60298927D01*
X191255588Y-60278494D01*
X191355858Y-60520568D01*
X191451418Y-60616128D01*
X191460567Y-60662125D01*
X191460567Y-60662128D01*
X191492711Y-60823726D01*
X191615156Y-61006978D01*
X191661413Y-61037886D01*
X191938526Y-61315000D01*
X191896998Y-61315000D01*
X191896998Y-61473748D01*
X191738250Y-61315000D01*
X191522690Y-61315000D01*
X191289301Y-61411673D01*
X191110673Y-61590302D01*
X191014000Y-61823691D01*
X191014000Y-62264250D01*
X191172750Y-62423000D01*
X191897000Y-62423000D01*
X191897000Y-62403000D01*
X192151000Y-62403000D01*
X192151000Y-62423000D01*
X192171000Y-62423000D01*
X192171000Y-62677000D01*
X192151000Y-62677000D01*
X192151000Y-62697000D01*
X191897000Y-62697000D01*
X191897000Y-62677000D01*
X191172750Y-62677000D01*
X191014000Y-62835750D01*
X191014000Y-62946282D01*
X190781555Y-62850000D01*
X190472445Y-62850000D01*
X190186865Y-62968291D01*
X189968291Y-63186865D01*
X189850000Y-63472445D01*
X189850000Y-63781555D01*
X189968291Y-64067135D01*
X190036156Y-64135000D01*
X189841291Y-64329865D01*
X189723000Y-64615445D01*
X189723000Y-64924555D01*
X189830143Y-65183222D01*
X189723771Y-65254297D01*
X188133000Y-63663527D01*
X188133000Y-59724344D01*
X188379000Y-59724344D01*
X188565116Y-59687323D01*
X188722897Y-59581897D01*
X188828323Y-59424116D01*
X188865344Y-59238000D01*
X188865344Y-57058000D01*
X188828323Y-56871884D01*
X188722897Y-56714103D01*
X188565116Y-56608677D01*
X188413407Y-56578500D01*
X188565116Y-56548323D01*
X188722897Y-56442897D01*
X188828323Y-56285116D01*
X188865344Y-56099000D01*
X188865344Y-53919000D01*
X188828323Y-53732884D01*
X188722897Y-53575103D01*
X188565116Y-53469677D01*
X188379000Y-53432656D01*
X186779000Y-53432656D01*
X186592884Y-53469677D01*
X186435103Y-53575103D01*
X186329677Y-53732884D01*
X186292656Y-53919000D01*
X186292656Y-54510812D01*
X186241135Y-54459291D01*
X185955555Y-54341000D01*
X185646445Y-54341000D01*
X185360865Y-54459291D01*
X185142291Y-54677865D01*
X185024000Y-54963445D01*
X185024000Y-55272555D01*
X185142291Y-55558135D01*
X185360865Y-55776709D01*
X185646445Y-55895000D01*
X185955555Y-55895000D01*
X186241135Y-55776709D01*
X186292656Y-55725188D01*
X186292656Y-56099000D01*
X186329677Y-56285116D01*
X186435103Y-56442897D01*
X186592884Y-56548323D01*
X186744593Y-56578500D01*
X186592884Y-56608677D01*
X186435103Y-56714103D01*
X186329677Y-56871884D01*
X186292656Y-57058000D01*
X186292656Y-59238000D01*
X186329677Y-59424116D01*
X186435103Y-59581897D01*
X186592884Y-59687323D01*
X186779000Y-59724344D01*
X187025000Y-59724344D01*
X187025001Y-63838437D01*
X187014148Y-63893000D01*
X187057144Y-64109159D01*
X187148682Y-64246155D01*
X187148684Y-64246157D01*
X187179590Y-64292411D01*
X187225844Y-64323317D01*
X189465683Y-66563157D01*
X189496589Y-66609411D01*
X189563656Y-66654224D01*
X189563656Y-66810000D01*
X189600677Y-66996116D01*
X189706103Y-67153897D01*
X189808867Y-67222561D01*
X189690301Y-67271673D01*
X189511673Y-67450302D01*
X189415000Y-67683691D01*
X189415000Y-68124250D01*
X189573750Y-68283000D01*
X190373000Y-68283000D01*
X190373000Y-68263000D01*
X190627000Y-68263000D01*
X190627000Y-68283000D01*
X190647000Y-68283000D01*
X190647000Y-68537000D01*
X190627000Y-68537000D01*
X190627000Y-69486250D01*
X190785750Y-69645000D01*
X191076310Y-69645000D01*
X191247000Y-69574298D01*
X191247000Y-69623555D01*
X191365291Y-69909135D01*
X191583865Y-70127709D01*
X191869445Y-70246000D01*
X192178555Y-70246000D01*
X192359000Y-70171257D01*
X192359000Y-70737156D01*
X192210135Y-70588291D01*
X191924555Y-70470000D01*
X191615445Y-70470000D01*
X191329865Y-70588291D01*
X191273156Y-70645000D01*
X186431356Y-70645000D01*
X183228000Y-67441644D01*
X183228000Y-66238000D01*
X186292656Y-66238000D01*
X186292656Y-68418000D01*
X186329677Y-68604116D01*
X186435103Y-68761897D01*
X186592884Y-68867323D01*
X186779000Y-68904344D01*
X186919264Y-68904344D01*
X186802000Y-69187445D01*
X186802000Y-69496555D01*
X186920291Y-69782135D01*
X187138865Y-70000709D01*
X187424445Y-70119000D01*
X187733555Y-70119000D01*
X188019135Y-70000709D01*
X188237709Y-69782135D01*
X188356000Y-69496555D01*
X188356000Y-69187445D01*
X188238736Y-68904344D01*
X188379000Y-68904344D01*
X188565116Y-68867323D01*
X188722897Y-68761897D01*
X188767095Y-68695750D01*
X189415000Y-68695750D01*
X189415000Y-69136309D01*
X189511673Y-69369698D01*
X189690301Y-69548327D01*
X189923690Y-69645000D01*
X190214250Y-69645000D01*
X190373000Y-69486250D01*
X190373000Y-68537000D01*
X189573750Y-68537000D01*
X189415000Y-68695750D01*
X188767095Y-68695750D01*
X188828323Y-68604116D01*
X188865344Y-68418000D01*
X188865344Y-66238000D01*
X188828323Y-66051884D01*
X188722897Y-65894103D01*
X188565116Y-65788677D01*
X188379000Y-65751656D01*
X186779000Y-65751656D01*
X186592884Y-65788677D01*
X186435103Y-65894103D01*
X186329677Y-66051884D01*
X186292656Y-66238000D01*
X183228000Y-66238000D01*
X183228000Y-51303356D01*
X185923357Y-48608000D01*
X187717156Y-48608000D01*
X187773865Y-48664709D01*
X188059445Y-48783000D01*
X188368555Y-48783000D01*
X188654135Y-48664709D01*
X188872709Y-48446135D01*
X188991000Y-48160555D01*
X188991000Y-47851445D01*
X188982404Y-47830691D01*
X193606000Y-47830691D01*
X193606000Y-48271250D01*
X193764750Y-48430000D01*
X194564000Y-48430000D01*
X194564000Y-47480750D01*
X194818000Y-47480750D01*
X194818000Y-48430000D01*
X195617250Y-48430000D01*
X195776000Y-48271250D01*
X195776000Y-47830691D01*
X195679327Y-47597302D01*
X195500699Y-47418673D01*
X195267310Y-47322000D01*
X194976750Y-47322000D01*
X194818000Y-47480750D01*
X194564000Y-47480750D01*
X194405250Y-47322000D01*
X194114690Y-47322000D01*
X193881301Y-47418673D01*
X193702673Y-47597302D01*
X193606000Y-47830691D01*
X188982404Y-47830691D01*
X188872709Y-47565865D01*
X188751435Y-47444591D01*
X188917327Y-47278698D01*
X189014000Y-47045309D01*
X189014000Y-46114750D01*
X188855250Y-45956000D01*
X187706000Y-45956000D01*
X187706000Y-45976000D01*
X187452000Y-45976000D01*
X187452000Y-45956000D01*
X186302750Y-45956000D01*
X186144000Y-46114750D01*
X186144000Y-47045309D01*
X186240673Y-47278698D01*
X186365974Y-47404000D01*
X185733283Y-47404000D01*
X185674000Y-47392208D01*
X185614717Y-47404000D01*
X185614712Y-47404000D01*
X185439112Y-47438929D01*
X185439110Y-47438930D01*
X185439111Y-47438930D01*
X185290244Y-47538399D01*
X185290242Y-47538401D01*
X185239983Y-47571983D01*
X185206401Y-47622242D01*
X182242245Y-50586399D01*
X182191983Y-50619983D01*
X182058929Y-50819113D01*
X182024000Y-50994713D01*
X182024000Y-50994717D01*
X182012208Y-51054000D01*
X181019000Y-51054000D01*
X181019000Y-44612691D01*
X186144000Y-44612691D01*
X186144000Y-45543250D01*
X186302750Y-45702000D01*
X187452000Y-45702000D01*
X187452000Y-44262750D01*
X187706000Y-44262750D01*
X187706000Y-45702000D01*
X188855250Y-45702000D01*
X189014000Y-45543250D01*
X189014000Y-44612691D01*
X188917327Y-44379302D01*
X188738699Y-44200673D01*
X188505310Y-44104000D01*
X187864750Y-44104000D01*
X187706000Y-44262750D01*
X187452000Y-44262750D01*
X187293250Y-44104000D01*
X186652690Y-44104000D01*
X186419301Y-44200673D01*
X186240673Y-44379302D01*
X186144000Y-44612691D01*
X181019000Y-44612691D01*
X181019000Y-41175002D01*
X181068007Y-40675185D01*
X182281000Y-40675185D01*
X182281000Y-41620815D01*
X182642877Y-42494462D01*
X183311538Y-43163123D01*
X184185185Y-43525000D01*
X185130815Y-43525000D01*
X186004462Y-43163123D01*
X186673123Y-42494462D01*
X186753284Y-42300935D01*
X188257000Y-42300935D01*
X188257000Y-42789065D01*
X188443800Y-43240039D01*
X188788961Y-43585200D01*
X189239935Y-43772000D01*
X189728065Y-43772000D01*
X190179039Y-43585200D01*
X190524200Y-43240039D01*
X190711000Y-42789065D01*
X190711000Y-42300935D01*
X190524200Y-41849961D01*
X190179039Y-41504800D01*
X190086000Y-41466262D01*
X190086000Y-40953282D01*
X190097792Y-40893999D01*
X190086000Y-40834716D01*
X190086000Y-40834712D01*
X190054269Y-40675185D01*
X207300000Y-40675185D01*
X207300000Y-41620815D01*
X207661877Y-42494462D01*
X208330538Y-43163123D01*
X209204185Y-43525000D01*
X210149815Y-43525000D01*
X211023462Y-43163123D01*
X211692123Y-42494462D01*
X212054000Y-41620815D01*
X212054000Y-40675185D01*
X211692123Y-39801538D01*
X211023462Y-39132877D01*
X210149815Y-38771000D01*
X209204185Y-38771000D01*
X208330538Y-39132877D01*
X207661877Y-39801538D01*
X207300000Y-40675185D01*
X190054269Y-40675185D01*
X190051071Y-40659112D01*
X190049754Y-40657140D01*
X190007000Y-40593155D01*
X190007000Y-40485445D01*
X189888709Y-40199865D01*
X189670135Y-39981291D01*
X189384555Y-39863000D01*
X189075445Y-39863000D01*
X188789865Y-39981291D01*
X188571291Y-40199865D01*
X188453000Y-40485445D01*
X188453000Y-40794555D01*
X188571291Y-41080135D01*
X188789865Y-41298709D01*
X188882001Y-41336873D01*
X188882001Y-41466262D01*
X188788961Y-41504800D01*
X188443800Y-41849961D01*
X188257000Y-42300935D01*
X186753284Y-42300935D01*
X187035000Y-41620815D01*
X187035000Y-40675185D01*
X186673123Y-39801538D01*
X186004462Y-39132877D01*
X185130815Y-38771000D01*
X184185185Y-38771000D01*
X183311538Y-39132877D01*
X182642877Y-39801538D01*
X182281000Y-40675185D01*
X181068007Y-40675185D01*
X181090902Y-40441692D01*
X181296025Y-39762294D01*
X181629205Y-39135672D01*
X182077747Y-38585705D01*
X182624579Y-38133327D01*
X183248854Y-37795782D01*
X183926807Y-37585919D01*
X184658627Y-37509002D01*
X184659063Y-37509000D01*
X192661517Y-37509000D01*
X192321992Y-37649636D01*
X192321992Y-37649636D01*
G37*
X192321992Y-37649636D02*
X191934636Y-38036992D01*
X191725000Y-38543098D01*
X191725000Y-39090902D01*
X191934636Y-39597008D01*
X192321992Y-39984364D01*
X192828098Y-40194000D01*
X193375902Y-40194000D01*
X193882008Y-39984364D01*
X194269364Y-39597008D01*
X194479000Y-39090902D01*
X194479000Y-38543098D01*
X194269364Y-38036992D01*
X193882008Y-37649636D01*
X193542483Y-37509000D01*
X200411517Y-37509000D01*
X200071992Y-37649636D01*
X199684636Y-38036992D01*
X199475000Y-38543098D01*
X199475000Y-39090902D01*
X199684636Y-39597008D01*
X200071992Y-39984364D01*
X200578098Y-40194000D01*
X201125902Y-40194000D01*
X201632008Y-39984364D01*
X202019364Y-39597008D01*
X202229000Y-39090902D01*
X202229000Y-38543098D01*
X202019364Y-38036992D01*
X201632008Y-37649636D01*
X201292483Y-37509000D01*
X209776998Y-37509000D01*
X210510308Y-37580902D01*
X211189706Y-37786025D01*
X211816328Y-38119205D01*
X212366295Y-38567747D01*
X212818673Y-39114579D01*
X213156218Y-39738854D01*
X213366081Y-40416807D01*
X213442997Y-41148617D01*
X213316063Y-95857362D01*
X213244098Y-96591308D01*
X213038975Y-97270706D01*
X212705795Y-97897328D01*
X212257253Y-98447295D01*
X211710421Y-98899673D01*
X211086144Y-99237219D01*
X210408188Y-99447082D01*
X209676374Y-99523998D01*
X209675937Y-99524000D01*
X184684993Y-99524000D01*
X183951692Y-99452098D01*
X183272294Y-99246975D01*
X182645672Y-98913795D01*
X182095705Y-98465253D01*
X181643327Y-97918421D01*
X181305781Y-97294144D01*
X181095918Y-96616188D01*
X181019002Y-95884374D01*
X181019000Y-95883937D01*
X181019000Y-85151294D01*
X182206000Y-85151294D01*
X182206000Y-86136706D01*
X182583101Y-87047108D01*
X183279892Y-87743899D01*
X184129001Y-88095612D01*
X184129001Y-88417865D01*
X184118148Y-88472427D01*
X184161144Y-88688586D01*
X184252682Y-88825582D01*
X184252683Y-88825583D01*
X184283590Y-88871838D01*
X184329844Y-88902744D01*
X185823256Y-90396157D01*
X185854162Y-90442411D01*
X186037413Y-90564856D01*
X186199011Y-90597000D01*
X186199015Y-90597000D01*
X186253573Y-90607852D01*
X186308131Y-90597000D01*
X208057869Y-90597000D01*
X208112427Y-90607852D01*
X208166985Y-90597000D01*
X208166989Y-90597000D01*
X208328587Y-90564856D01*
X208511838Y-90442411D01*
X208542746Y-90396154D01*
X210036157Y-88902744D01*
X210082411Y-88871838D01*
X210113319Y-88825582D01*
X210204856Y-88688587D01*
X210204856Y-88688586D01*
X210237000Y-88526989D01*
X210237000Y-88526985D01*
X210247852Y-88472427D01*
X210237000Y-88417869D01*
X210237000Y-88095611D01*
X211086108Y-87743899D01*
X211782899Y-87047108D01*
X212160000Y-86136706D01*
X212160000Y-85151294D01*
X211782899Y-84240892D01*
X211086108Y-83544101D01*
X210175706Y-83167000D01*
X209190294Y-83167000D01*
X208279892Y-83544101D01*
X207583101Y-84240892D01*
X207206000Y-85151294D01*
X207206000Y-86136706D01*
X207583101Y-87047108D01*
X208279892Y-87743899D01*
X209129001Y-88095612D01*
X209129001Y-88242952D01*
X207882954Y-89489000D01*
X186483047Y-89489000D01*
X185237000Y-88242954D01*
X185237000Y-88095611D01*
X185636846Y-87929989D01*
X191751000Y-87929989D01*
X191751000Y-88438011D01*
X191945412Y-88907362D01*
X192304638Y-89266588D01*
X192773989Y-89461000D01*
X193282011Y-89461000D01*
X193751362Y-89266588D01*
X194110588Y-88907362D01*
X194305000Y-88438011D01*
X194305000Y-87929989D01*
X194110588Y-87460638D01*
X193751362Y-87101412D01*
X193282011Y-86907000D01*
X192773989Y-86907000D01*
X192304638Y-87101412D01*
X191945412Y-87460638D01*
X191751000Y-87929989D01*
X185636846Y-87929989D01*
X186086108Y-87743899D01*
X186782899Y-87047108D01*
X187160000Y-86136706D01*
X187160000Y-85151294D01*
X186908451Y-84544000D01*
X190356656Y-84544000D01*
X190356656Y-86144000D01*
X190393677Y-86330116D01*
X190499103Y-86487897D01*
X190656884Y-86593323D01*
X190843000Y-86630344D01*
X192443000Y-86630344D01*
X192629116Y-86593323D01*
X192786897Y-86487897D01*
X192892323Y-86330116D01*
X192929344Y-86144000D01*
X192929344Y-85089989D01*
X193136000Y-85089989D01*
X193136000Y-85598011D01*
X193330412Y-86067362D01*
X193689638Y-86426588D01*
X194158989Y-86621000D01*
X194667011Y-86621000D01*
X195136362Y-86426588D01*
X195244000Y-86318950D01*
X195244000Y-87031260D01*
X195074638Y-87101412D01*
X194715412Y-87460638D01*
X194521000Y-87929989D01*
X194521000Y-88438011D01*
X194715412Y-88907362D01*
X195074638Y-89266588D01*
X195543989Y-89461000D01*
X196052011Y-89461000D01*
X196521362Y-89266588D01*
X196880588Y-88907362D01*
X197075000Y-88438011D01*
X197075000Y-87929989D01*
X197291000Y-87929989D01*
X197291000Y-88438011D01*
X197485412Y-88907362D01*
X197844638Y-89266588D01*
X198313989Y-89461000D01*
X198822011Y-89461000D01*
X199291362Y-89266588D01*
X199650588Y-88907362D01*
X199845000Y-88438011D01*
X199845000Y-87929989D01*
X200061000Y-87929989D01*
X200061000Y-88438011D01*
X200255412Y-88907362D01*
X200614638Y-89266588D01*
X201083989Y-89461000D01*
X201592011Y-89461000D01*
X202061362Y-89266588D01*
X202420588Y-88907362D01*
X202615000Y-88438011D01*
X202615000Y-87929989D01*
X202420588Y-87460638D01*
X202061362Y-87101412D01*
X201592011Y-86907000D01*
X201083989Y-86907000D01*
X200614638Y-87101412D01*
X200255412Y-87460638D01*
X200061000Y-87929989D01*
X199845000Y-87929989D01*
X199650588Y-87460638D01*
X199291362Y-87101412D01*
X198822011Y-86907000D01*
X198313989Y-86907000D01*
X197844638Y-87101412D01*
X197485412Y-87460638D01*
X197291000Y-87929989D01*
X197075000Y-87929989D01*
X196880588Y-87460638D01*
X196521362Y-87101412D01*
X196352000Y-87031260D01*
X196352000Y-86318950D01*
X196459638Y-86426588D01*
X196928989Y-86621000D01*
X197437011Y-86621000D01*
X197906362Y-86426588D01*
X198265588Y-86067362D01*
X198460000Y-85598011D01*
X198460000Y-85089989D01*
X198676000Y-85089989D01*
X198676000Y-85598011D01*
X198870412Y-86067362D01*
X199229638Y-86426588D01*
X199698989Y-86621000D01*
X200207011Y-86621000D01*
X200676362Y-86426588D01*
X201035588Y-86067362D01*
X201230000Y-85598011D01*
X201230000Y-85089989D01*
X201446000Y-85089989D01*
X201446000Y-85598011D01*
X201640412Y-86067362D01*
X201999638Y-86426588D01*
X202468989Y-86621000D01*
X202977011Y-86621000D01*
X203446362Y-86426588D01*
X203805588Y-86067362D01*
X204000000Y-85598011D01*
X204000000Y-85089989D01*
X203805588Y-84620638D01*
X203446362Y-84261412D01*
X202977011Y-84067000D01*
X202468989Y-84067000D01*
X201999638Y-84261412D01*
X201640412Y-84620638D01*
X201446000Y-85089989D01*
X201230000Y-85089989D01*
X201035588Y-84620638D01*
X200676362Y-84261412D01*
X200207011Y-84067000D01*
X199698989Y-84067000D01*
X199229638Y-84261412D01*
X198870412Y-84620638D01*
X198676000Y-85089989D01*
X198460000Y-85089989D01*
X198265588Y-84620638D01*
X197906362Y-84261412D01*
X197437011Y-84067000D01*
X196928989Y-84067000D01*
X196459638Y-84261412D01*
X196352000Y-84369050D01*
X196352000Y-83831473D01*
X197965160Y-82218315D01*
X198011411Y-82187411D01*
X198042315Y-82141160D01*
X198042318Y-82141157D01*
X198091553Y-82067471D01*
X198133856Y-82004160D01*
X198166000Y-81842562D01*
X198166000Y-81842557D01*
X198176852Y-81788001D01*
X198166000Y-81733444D01*
X198166000Y-81221964D01*
X198247000Y-81167842D01*
X198280001Y-81189892D01*
X198280001Y-81390561D01*
X198232000Y-81506445D01*
X198232000Y-81815555D01*
X198350291Y-82101135D01*
X198568865Y-82319709D01*
X198854445Y-82438000D01*
X199163555Y-82438000D01*
X199449135Y-82319709D01*
X199667709Y-82101135D01*
X199786000Y-81815555D01*
X199786000Y-81506445D01*
X199667709Y-81220865D01*
X199559080Y-81112236D01*
X199631323Y-81004116D01*
X199668344Y-80818000D01*
X199668344Y-79268000D01*
X199631323Y-79081884D01*
X199603337Y-79040000D01*
X200176527Y-79040000D01*
X200588144Y-79451618D01*
X200552860Y-79629000D01*
X200628687Y-80010206D01*
X200844623Y-80333377D01*
X201167794Y-80549313D01*
X201452777Y-80606000D01*
X201645223Y-80606000D01*
X201930206Y-80549313D01*
X202009837Y-80496105D01*
X202132884Y-80578323D01*
X202319000Y-80615344D01*
X203319000Y-80615344D01*
X203505116Y-80578323D01*
X203662897Y-80472897D01*
X203768323Y-80315116D01*
X203805344Y-80129000D01*
X203805344Y-79129000D01*
X203768323Y-78942884D01*
X203662897Y-78785103D01*
X203505116Y-78679677D01*
X203373000Y-78653397D01*
X203373000Y-78152344D01*
X203884000Y-78152344D01*
X204070116Y-78115323D01*
X204227897Y-78009897D01*
X204333323Y-77852116D01*
X204370344Y-77666000D01*
X204370344Y-77378185D01*
X207300000Y-77378185D01*
X207300000Y-78323815D01*
X207661877Y-79197462D01*
X208330538Y-79866123D01*
X209204185Y-80228000D01*
X210149815Y-80228000D01*
X211023462Y-79866123D01*
X211692123Y-79197462D01*
X212054000Y-78323815D01*
X212054000Y-77378185D01*
X211692123Y-76504538D01*
X211023462Y-75835877D01*
X210149815Y-75474000D01*
X209204185Y-75474000D01*
X208330538Y-75835877D01*
X207661877Y-76504538D01*
X207300000Y-77378185D01*
X204370344Y-77378185D01*
X204370344Y-76766000D01*
X204333323Y-76579884D01*
X204227897Y-76422103D01*
X204070116Y-76316677D01*
X203884000Y-76279656D01*
X202684000Y-76279656D01*
X202497884Y-76316677D01*
X202340103Y-76422103D01*
X202234677Y-76579884D01*
X202197656Y-76766000D01*
X202197656Y-77666000D01*
X202234677Y-77852116D01*
X202265001Y-77897499D01*
X202265001Y-78653397D01*
X202132884Y-78679677D01*
X202009837Y-78761895D01*
X201930206Y-78708687D01*
X201645223Y-78652000D01*
X201452777Y-78652000D01*
X201371618Y-78668144D01*
X200855817Y-78152344D01*
X201684000Y-78152344D01*
X201870116Y-78115323D01*
X202027897Y-78009897D01*
X202133323Y-77852116D01*
X202170344Y-77666000D01*
X202170344Y-76766000D01*
X202133323Y-76579884D01*
X202027897Y-76422103D01*
X201870116Y-76316677D01*
X201684000Y-76279656D01*
X200484000Y-76279656D01*
X200297884Y-76316677D01*
X200140103Y-76422103D01*
X200034677Y-76579884D01*
X200018343Y-76662000D01*
X198748556Y-76662000D01*
X198693999Y-76651148D01*
X198639443Y-76662000D01*
X198639438Y-76662000D01*
X198477840Y-76694144D01*
X198409212Y-76740000D01*
X198340843Y-76785682D01*
X198340840Y-76785685D01*
X198294589Y-76816589D01*
X198263685Y-76862840D01*
X196344871Y-78781656D01*
X196042000Y-78781656D01*
X195855884Y-78818677D01*
X195834794Y-78832769D01*
X195731699Y-78729673D01*
X195498310Y-78633000D01*
X195357750Y-78633000D01*
X195199000Y-78791750D01*
X195199000Y-79916000D01*
X195219000Y-79916000D01*
X195219000Y-80170000D01*
X195199000Y-80170000D01*
X195199000Y-81294250D01*
X195357750Y-81453000D01*
X195498310Y-81453000D01*
X195731699Y-81356327D01*
X195788001Y-81300025D01*
X195788000Y-82054156D01*
X194059844Y-83782313D01*
X194013590Y-83813219D01*
X193982684Y-83859473D01*
X193982682Y-83859475D01*
X193891144Y-83996471D01*
X193851806Y-84194240D01*
X193689638Y-84261412D01*
X193330412Y-84620638D01*
X193136000Y-85089989D01*
X192929344Y-85089989D01*
X192929344Y-84544000D01*
X192892323Y-84357884D01*
X192786897Y-84200103D01*
X192629116Y-84094677D01*
X192443000Y-84057656D01*
X190843000Y-84057656D01*
X190656884Y-84094677D01*
X190499103Y-84200103D01*
X190393677Y-84357884D01*
X190356656Y-84544000D01*
X186908451Y-84544000D01*
X186782899Y-84240892D01*
X186086108Y-83544101D01*
X185175706Y-83167000D01*
X184190294Y-83167000D01*
X183279892Y-83544101D01*
X182583101Y-84240892D01*
X182206000Y-85151294D01*
X181019000Y-85151294D01*
X181019000Y-80275750D01*
X190256000Y-80275750D01*
X190256000Y-80866309D01*
X190352673Y-81099698D01*
X190531301Y-81278327D01*
X190764690Y-81375000D01*
X191230250Y-81375000D01*
X191389000Y-81216250D01*
X191389000Y-80117000D01*
X190414750Y-80117000D01*
X190256000Y-80275750D01*
X181019000Y-80275750D01*
X181019000Y-77378185D01*
X182281000Y-77378185D01*
X182281000Y-78323815D01*
X182642877Y-79197462D01*
X183311538Y-79866123D01*
X184185185Y-80228000D01*
X185130815Y-80228000D01*
X186004462Y-79866123D01*
X186673123Y-79197462D01*
X187035000Y-78323815D01*
X187035000Y-77378185D01*
X186673123Y-76504538D01*
X186004462Y-75835877D01*
X185130815Y-75474000D01*
X184185185Y-75474000D01*
X183311538Y-75835877D01*
X182642877Y-76504538D01*
X182281000Y-77378185D01*
X181019000Y-77378185D01*
X181019000Y-51054000D01*
X182012208Y-51054000D01*
X182024000Y-51113283D01*
X182024001Y-67631712D01*
X182012208Y-67691000D01*
X182058930Y-67925888D01*
X182158399Y-68074755D01*
X182158402Y-68074758D01*
X182191984Y-68125017D01*
X182242243Y-68158599D01*
X185714399Y-71630755D01*
X185747983Y-71681017D01*
X185798245Y-71714601D01*
X185947110Y-71814070D01*
X185947111Y-71814070D01*
X185947112Y-71814071D01*
X186122712Y-71849000D01*
X186122716Y-71849000D01*
X186181999Y-71860792D01*
X186241282Y-71849000D01*
X191273156Y-71849000D01*
X191329865Y-71905709D01*
X191615445Y-72024000D01*
X191924555Y-72024000D01*
X192210135Y-71905709D01*
X192359000Y-71756844D01*
X192359000Y-75383442D01*
X192348148Y-75438000D01*
X192359000Y-75492558D01*
X192359000Y-75492561D01*
X192391144Y-75654159D01*
X192513589Y-75837411D01*
X192559846Y-75868319D01*
X192797341Y-76105815D01*
X192635291Y-76267865D01*
X192544947Y-76485974D01*
X192484897Y-76396103D01*
X192327116Y-76290677D01*
X192141000Y-76253656D01*
X190891000Y-76253656D01*
X190704884Y-76290677D01*
X190547103Y-76396103D01*
X190441677Y-76553884D01*
X190404656Y-76740000D01*
X190404656Y-78240000D01*
X190441677Y-78426116D01*
X190547103Y-78583897D01*
X190649867Y-78652561D01*
X190531301Y-78701673D01*
X190352673Y-78880302D01*
X190256000Y-79113691D01*
X190256000Y-79704250D01*
X190414750Y-79863000D01*
X191389000Y-79863000D01*
X191389000Y-79843000D01*
X191643000Y-79843000D01*
X191643000Y-79863000D01*
X191663000Y-79863000D01*
X191663000Y-80117000D01*
X191643000Y-80117000D01*
X191643000Y-81216250D01*
X191801750Y-81375000D01*
X192267310Y-81375000D01*
X192500699Y-81278327D01*
X192534000Y-81245026D01*
X192559301Y-81270327D01*
X192792690Y-81367000D01*
X193008250Y-81367000D01*
X193167000Y-81208250D01*
X193167000Y-80259000D01*
X193421000Y-80259000D01*
X193421000Y-81208250D01*
X193579750Y-81367000D01*
X193795310Y-81367000D01*
X194028699Y-81270327D01*
X194200768Y-81098257D01*
X194233673Y-81177698D01*
X194412301Y-81356327D01*
X194645690Y-81453000D01*
X194786250Y-81453000D01*
X194945000Y-81294250D01*
X194945000Y-80170000D01*
X194295750Y-80170000D01*
X194176000Y-80289750D01*
X194145250Y-80259000D01*
X193421000Y-80259000D01*
X193167000Y-80259000D01*
X193147000Y-80259000D01*
X193147000Y-80005000D01*
X193167000Y-80005000D01*
X193167000Y-79985000D01*
X193421000Y-79985000D01*
X193421000Y-80005000D01*
X194145250Y-80005000D01*
X194265000Y-79885250D01*
X194295750Y-79916000D01*
X194945000Y-79916000D01*
X194945000Y-78791750D01*
X194786250Y-78633000D01*
X194645690Y-78633000D01*
X194412301Y-78729673D01*
X194233673Y-78908302D01*
X194148633Y-79113607D01*
X194092215Y-79057189D01*
X194118323Y-79018116D01*
X194155344Y-78832000D01*
X194155344Y-77632000D01*
X194118323Y-77445884D01*
X194012897Y-77288103D01*
X193896000Y-77209995D01*
X193896000Y-77204844D01*
X193952709Y-77148135D01*
X194071000Y-76862555D01*
X194071000Y-76553445D01*
X194048862Y-76500000D01*
X197999442Y-76500000D01*
X198054000Y-76510852D01*
X198108558Y-76500000D01*
X198108562Y-76500000D01*
X198270160Y-76467856D01*
X198453411Y-76345411D01*
X198484319Y-76299154D01*
X198879130Y-75904344D01*
X199182000Y-75904344D01*
X199368116Y-75867323D01*
X199525897Y-75761897D01*
X199631323Y-75604116D01*
X199668344Y-75418000D01*
X199668344Y-73868000D01*
X199631323Y-73681884D01*
X199525897Y-73524103D01*
X199395266Y-73436818D01*
X199505897Y-73362897D01*
X199526984Y-73331339D01*
X199743445Y-73421000D01*
X200052555Y-73421000D01*
X200338135Y-73302709D01*
X200556709Y-73084135D01*
X200675000Y-72798555D01*
X200675000Y-72489445D01*
X200556709Y-72203865D01*
X200338135Y-71985291D01*
X200052555Y-71867000D01*
X200034852Y-71867000D01*
X200082897Y-71834897D01*
X200188323Y-71677116D01*
X200225344Y-71491000D01*
X200225344Y-70241000D01*
X200188323Y-70054884D01*
X200082897Y-69897103D01*
X200006931Y-69846344D01*
X200112000Y-69846344D01*
X200298116Y-69809323D01*
X200455897Y-69703897D01*
X200518000Y-69610953D01*
X200518000Y-69750555D01*
X200636291Y-70036135D01*
X200854865Y-70254709D01*
X201140445Y-70373000D01*
X201449555Y-70373000D01*
X201735135Y-70254709D01*
X201953709Y-70036135D01*
X202072000Y-69750555D01*
X202072000Y-69441445D01*
X201982339Y-69224984D01*
X202013897Y-69203897D01*
X202119323Y-69046116D01*
X202156344Y-68860000D01*
X202156344Y-67660000D01*
X202119323Y-67473884D01*
X202013897Y-67316103D01*
X202004763Y-67310000D01*
X202013897Y-67303897D01*
X202119323Y-67146116D01*
X202156344Y-66960000D01*
X202156344Y-65760000D01*
X202119323Y-65573884D01*
X202013897Y-65416103D01*
X201876055Y-65324000D01*
X201954527Y-65324000D01*
X202285421Y-65654895D01*
X202227000Y-65795935D01*
X202227000Y-66284065D01*
X202413800Y-66735039D01*
X202758961Y-67080200D01*
X203209935Y-67267000D01*
X203698065Y-67267000D01*
X204149039Y-67080200D01*
X204494200Y-66735039D01*
X204681000Y-66284065D01*
X204681000Y-65795935D01*
X204494200Y-65344961D01*
X204149039Y-64999800D01*
X203698065Y-64813000D01*
X203209935Y-64813000D01*
X203068895Y-64871421D01*
X202614318Y-64416845D01*
X202583411Y-64370589D01*
X202400160Y-64248144D01*
X202238562Y-64216000D01*
X202238558Y-64216000D01*
X202184000Y-64205148D01*
X202129442Y-64216000D01*
X201481344Y-64216000D01*
X201481344Y-63009000D01*
X201444323Y-62822884D01*
X201338897Y-62665103D01*
X201181116Y-62559677D01*
X200995000Y-62522656D01*
X200745000Y-62522656D01*
X200620000Y-62547520D01*
X200495000Y-62522656D01*
X200245000Y-62522656D01*
X200120000Y-62547520D01*
X199995000Y-62522656D01*
X199906682Y-62522656D01*
X199854699Y-62470673D01*
X199621310Y-62374000D01*
X199591250Y-62374000D01*
X199497002Y-62468248D01*
X199497002Y-62374000D01*
X199415360Y-62374000D01*
X199405000Y-62321919D01*
X199405000Y-62075445D01*
X199286709Y-61789865D01*
X199068135Y-61571291D01*
X198782555Y-61453000D01*
X198473445Y-61453000D01*
X198187865Y-61571291D01*
X197993000Y-61766156D01*
X197798135Y-61571291D01*
X197512555Y-61453000D01*
X197203445Y-61453000D01*
X196917865Y-61571291D01*
X196699291Y-61789865D01*
X196581000Y-62075445D01*
X196581000Y-62384555D01*
X196646333Y-62542282D01*
X196620000Y-62547520D01*
X196495000Y-62522656D01*
X196245000Y-62522656D01*
X196120000Y-62547520D01*
X195995000Y-62522656D01*
X195745000Y-62522656D01*
X195646011Y-62542346D01*
X195646011Y-61131567D01*
X195656863Y-61077010D01*
X195646011Y-61022454D01*
X195646011Y-61022449D01*
X195613867Y-60860851D01*
X195555560Y-60773589D01*
X195522329Y-60723854D01*
X195522326Y-60723851D01*
X195491422Y-60677600D01*
X195445170Y-60646696D01*
X195004319Y-60205845D01*
X194973411Y-60159589D01*
X194906344Y-60114776D01*
X194906344Y-59934000D01*
X194881480Y-59809000D01*
X194906344Y-59684000D01*
X194906344Y-59434000D01*
X194881480Y-59309000D01*
X194906344Y-59184000D01*
X194906344Y-58934000D01*
X194881480Y-58809000D01*
X194906344Y-58684000D01*
X194906344Y-58434000D01*
X194881480Y-58309000D01*
X194906344Y-58184000D01*
X194906344Y-57934000D01*
X194881480Y-57809000D01*
X194906344Y-57684000D01*
X194906344Y-57434000D01*
X194881480Y-57309000D01*
X194906344Y-57184000D01*
X194906344Y-56934000D01*
X194881480Y-56809000D01*
X194906344Y-56684000D01*
X194906344Y-56434000D01*
X194869323Y-56247884D01*
X194763897Y-56090103D01*
X194606116Y-55984677D01*
X194420000Y-55947656D01*
X194214225Y-55947656D01*
X194200318Y-55926843D01*
X194200315Y-55926840D01*
X194169411Y-55880589D01*
X194123160Y-55849685D01*
X192347817Y-54074344D01*
X193325000Y-54074344D01*
X193511116Y-54037323D01*
X193550189Y-54011215D01*
X193665302Y-54126327D01*
X193898691Y-54223000D01*
X194339250Y-54223000D01*
X194497998Y-54064252D01*
X194497998Y-54223000D01*
X194610000Y-54223000D01*
X194610000Y-54673250D01*
X194768750Y-54832000D01*
X195258656Y-54832000D01*
X195258656Y-55086000D01*
X194768750Y-55086000D01*
X194610000Y-55244750D01*
X194610000Y-55735309D01*
X194706673Y-55968698D01*
X194885301Y-56147327D01*
X195062303Y-56220644D01*
X195057000Y-56233445D01*
X195057000Y-56542555D01*
X195175291Y-56828135D01*
X195393865Y-57046709D01*
X195679445Y-57165000D01*
X195988555Y-57165000D01*
X196274135Y-57046709D01*
X196492709Y-56828135D01*
X196561083Y-56663065D01*
X196686438Y-56688000D01*
X196686443Y-56688000D01*
X196740999Y-56698852D01*
X196795556Y-56688000D01*
X200531156Y-56688000D01*
X200509291Y-56709865D01*
X200391000Y-56995445D01*
X200391000Y-57304555D01*
X200509291Y-57590135D01*
X200727865Y-57808709D01*
X201013445Y-57927000D01*
X201322555Y-57927000D01*
X201336170Y-57921360D01*
X201333656Y-57934000D01*
X201333656Y-58184000D01*
X201358520Y-58309000D01*
X201333656Y-58434000D01*
X201333656Y-58684000D01*
X201358520Y-58809000D01*
X201333656Y-58934000D01*
X201333656Y-59184000D01*
X201358520Y-59309000D01*
X201333656Y-59434000D01*
X201333656Y-59684000D01*
X201358520Y-59809000D01*
X201333656Y-59934000D01*
X201333656Y-60184000D01*
X201358520Y-60309000D01*
X201333656Y-60434000D01*
X201333656Y-60684000D01*
X201358520Y-60809000D01*
X201333656Y-60934000D01*
X201333656Y-61184000D01*
X201358520Y-61309000D01*
X201333656Y-61434000D01*
X201333656Y-61684000D01*
X201358520Y-61809000D01*
X201333656Y-61934000D01*
X201333656Y-62184000D01*
X201370677Y-62370116D01*
X201476103Y-62527897D01*
X201633884Y-62633323D01*
X201820000Y-62670344D01*
X203120000Y-62670344D01*
X203306116Y-62633323D01*
X203463897Y-62527897D01*
X203569323Y-62370116D01*
X203606344Y-62184000D01*
X203606344Y-61934000D01*
X203581480Y-61809000D01*
X203606344Y-61684000D01*
X203606344Y-61434000D01*
X203581480Y-61309000D01*
X203606344Y-61184000D01*
X203606344Y-60934000D01*
X203584331Y-60823333D01*
X203612103Y-60864897D01*
X203769884Y-60970323D01*
X203850291Y-60986317D01*
X203820000Y-61059445D01*
X203820000Y-61368555D01*
X203938291Y-61654135D01*
X204156865Y-61872709D01*
X204442445Y-61991000D01*
X204751555Y-61991000D01*
X205037135Y-61872709D01*
X205255709Y-61654135D01*
X205374000Y-61368555D01*
X205374000Y-61059445D01*
X205337467Y-60971248D01*
X205342116Y-60970323D01*
X205499897Y-60864897D01*
X205605323Y-60707116D01*
X205642344Y-60521000D01*
X205642344Y-59621000D01*
X205605323Y-59434884D01*
X205499897Y-59277103D01*
X205342116Y-59171677D01*
X205332791Y-59169822D01*
X205456897Y-59086897D01*
X205562323Y-58929116D01*
X205599344Y-58743000D01*
X205599344Y-57843000D01*
X205626656Y-57843000D01*
X205626656Y-58743000D01*
X205663677Y-58929116D01*
X205769103Y-59086897D01*
X205926884Y-59192323D01*
X205936209Y-59194178D01*
X205812103Y-59277103D01*
X205706677Y-59434884D01*
X205669656Y-59621000D01*
X205669656Y-60521000D01*
X205706677Y-60707116D01*
X205812103Y-60864897D01*
X205969884Y-60970323D01*
X206156000Y-61007344D01*
X207356000Y-61007344D01*
X207542116Y-60970323D01*
X207699897Y-60864897D01*
X207805323Y-60707116D01*
X207842344Y-60521000D01*
X207842344Y-59621000D01*
X207805323Y-59434884D01*
X207699897Y-59277103D01*
X207542116Y-59171677D01*
X207532791Y-59169822D01*
X207656897Y-59086897D01*
X207762323Y-58929116D01*
X207799344Y-58743000D01*
X207799344Y-57843000D01*
X207762323Y-57656884D01*
X207656897Y-57499103D01*
X207499116Y-57393677D01*
X207313000Y-57356656D01*
X206113000Y-57356656D01*
X205926884Y-57393677D01*
X205769103Y-57499103D01*
X205663677Y-57656884D01*
X205626656Y-57843000D01*
X205599344Y-57843000D01*
X205562323Y-57656884D01*
X205456897Y-57499103D01*
X205299116Y-57393677D01*
X205265332Y-57386957D01*
X205353000Y-57175309D01*
X205353000Y-56734750D01*
X205194250Y-56576000D01*
X204470000Y-56576000D01*
X204470000Y-56596000D01*
X204216000Y-56596000D01*
X204216000Y-56576000D01*
X204196000Y-56576000D01*
X204196000Y-56322000D01*
X204216000Y-56322000D01*
X204216000Y-56302000D01*
X204470000Y-56302000D01*
X204470000Y-56322000D01*
X205194250Y-56322000D01*
X205353000Y-56163250D01*
X205353000Y-55722691D01*
X205256327Y-55489302D01*
X205141215Y-55374189D01*
X205167323Y-55335116D01*
X205170281Y-55320244D01*
X205331445Y-55387000D01*
X205640555Y-55387000D01*
X205926135Y-55268709D01*
X206144709Y-55050135D01*
X206263000Y-54764555D01*
X206263000Y-54455445D01*
X206144709Y-54169865D01*
X205926135Y-53951291D01*
X205640555Y-53833000D01*
X205331445Y-53833000D01*
X205192701Y-53890469D01*
X205167323Y-53762884D01*
X205061897Y-53605103D01*
X204904116Y-53499677D01*
X204718000Y-53462656D01*
X203968000Y-53462656D01*
X203781884Y-53499677D01*
X203624103Y-53605103D01*
X203518677Y-53762884D01*
X203481656Y-53949000D01*
X203481656Y-55149000D01*
X203518677Y-55335116D01*
X203544785Y-55374189D01*
X203429673Y-55489302D01*
X203333000Y-55722691D01*
X203333000Y-55834909D01*
X203246309Y-55799000D01*
X202755750Y-55799000D01*
X202597000Y-55957750D01*
X202597000Y-56447656D01*
X202343000Y-56447656D01*
X202343000Y-55957750D01*
X202223830Y-55838580D01*
X202230000Y-55807562D01*
X202230000Y-55807557D01*
X202240852Y-55753001D01*
X202230000Y-55698444D01*
X202230000Y-54410558D01*
X202240852Y-54356000D01*
X202230000Y-54301442D01*
X202230000Y-54301438D01*
X202197856Y-54139840D01*
X202075411Y-53956589D01*
X202029157Y-53925683D01*
X201193579Y-53090105D01*
X201252000Y-52949065D01*
X201252000Y-52460935D01*
X201065200Y-52009961D01*
X200888613Y-51833374D01*
X200955884Y-51878323D01*
X201142000Y-51915344D01*
X202342000Y-51915344D01*
X202528116Y-51878323D01*
X202685897Y-51772897D01*
X202692000Y-51763763D01*
X202698103Y-51772897D01*
X202855884Y-51878323D01*
X203042000Y-51915344D01*
X204242000Y-51915344D01*
X204428116Y-51878323D01*
X204585897Y-51772897D01*
X204691323Y-51615116D01*
X204728344Y-51429000D01*
X204728344Y-50679000D01*
X204691323Y-50492884D01*
X204585897Y-50335103D01*
X204428116Y-50229677D01*
X204242000Y-50192656D01*
X204009000Y-50192656D01*
X204009000Y-50148344D01*
X204187000Y-50148344D01*
X204373116Y-50111323D01*
X204530897Y-50005897D01*
X204636323Y-49848116D01*
X204673344Y-49662000D01*
X204673344Y-49012000D01*
X204636323Y-48825884D01*
X204530897Y-48668103D01*
X204373116Y-48562677D01*
X204187000Y-48525656D01*
X202627000Y-48525656D01*
X202599912Y-48531044D01*
X202624071Y-48494888D01*
X202643542Y-48397000D01*
X203121250Y-48397000D01*
X203280000Y-48238250D01*
X203280000Y-47564000D01*
X203534000Y-47564000D01*
X203534000Y-48238250D01*
X203692750Y-48397000D01*
X204296288Y-48397000D01*
X204322673Y-48460698D01*
X204501301Y-48639327D01*
X204734690Y-48736000D01*
X205200250Y-48736000D01*
X205359000Y-48577250D01*
X205359000Y-47478000D01*
X205613000Y-47478000D01*
X205613000Y-48577250D01*
X205771750Y-48736000D01*
X206237310Y-48736000D01*
X206470699Y-48639327D01*
X206649327Y-48460698D01*
X206746000Y-48227309D01*
X206746000Y-47636750D01*
X206587250Y-47478000D01*
X205613000Y-47478000D01*
X205359000Y-47478000D01*
X204384750Y-47478000D01*
X204298750Y-47564000D01*
X203534000Y-47564000D01*
X203280000Y-47564000D01*
X203260000Y-47564000D01*
X203260000Y-47310000D01*
X203280000Y-47310000D01*
X203280000Y-46635750D01*
X203121250Y-46477000D01*
X202768356Y-46477000D01*
X202795012Y-46450344D01*
X203930000Y-46450344D01*
X204116116Y-46413323D01*
X204273897Y-46307897D01*
X204379323Y-46150116D01*
X204416344Y-45964000D01*
X204416344Y-45941000D01*
X204514499Y-45941000D01*
X204517103Y-45944897D01*
X204619867Y-46013561D01*
X204501301Y-46062673D01*
X204322673Y-46241302D01*
X204226000Y-46474691D01*
X204226000Y-46477000D01*
X203692750Y-46477000D01*
X203534000Y-46635750D01*
X203534000Y-47310000D01*
X204663250Y-47310000D01*
X204749250Y-47224000D01*
X205359000Y-47224000D01*
X205359000Y-47204000D01*
X205613000Y-47204000D01*
X205613000Y-47224000D01*
X206587250Y-47224000D01*
X206746000Y-47065250D01*
X206746000Y-46474691D01*
X206649327Y-46241302D01*
X206470699Y-46062673D01*
X206352133Y-46013561D01*
X206454897Y-45944897D01*
X206560323Y-45787116D01*
X206597344Y-45601000D01*
X206597344Y-45517188D01*
X206696865Y-45616709D01*
X206982445Y-45735000D01*
X207291555Y-45735000D01*
X207577135Y-45616709D01*
X207795709Y-45398135D01*
X207914000Y-45112555D01*
X207914000Y-44803445D01*
X207795709Y-44517865D01*
X207577135Y-44299291D01*
X207291555Y-44181000D01*
X206982445Y-44181000D01*
X206818278Y-44249000D01*
X206597344Y-44249000D01*
X206597344Y-44101000D01*
X206560323Y-43914884D01*
X206454897Y-43757103D01*
X206297116Y-43651677D01*
X206111000Y-43614656D01*
X205220926Y-43614656D01*
X205292039Y-43585200D01*
X205637200Y-43240039D01*
X205824000Y-42789065D01*
X205824000Y-42300935D01*
X205637200Y-41849961D01*
X205292039Y-41504800D01*
X204841065Y-41318000D01*
X204352935Y-41318000D01*
X203901961Y-41504800D01*
X203556800Y-41849961D01*
X203516336Y-41947650D01*
X203364112Y-41977929D01*
X203364110Y-41977930D01*
X203364111Y-41977930D01*
X203215244Y-42077399D01*
X203215242Y-42077401D01*
X203164983Y-42110983D01*
X203131401Y-42161242D01*
X202035563Y-43257080D01*
X202179000Y-42910794D01*
X202179000Y-42323206D01*
X201954140Y-41780347D01*
X201538653Y-41364860D01*
X200995794Y-41140000D01*
X200408206Y-41140000D01*
X200272647Y-41196151D01*
X200220484Y-41070220D01*
X199973780Y-40823516D01*
X199651446Y-40690000D01*
X199302554Y-40690000D01*
X198980220Y-40823516D01*
X198733516Y-41070220D01*
X198600000Y-41392554D01*
X198600000Y-41550150D01*
X198502000Y-41530656D01*
X198052000Y-41530656D01*
X197952000Y-41550547D01*
X197852000Y-41530656D01*
X197402000Y-41530656D01*
X197302000Y-41550547D01*
X197202000Y-41530656D01*
X196752000Y-41530656D01*
X196652000Y-41550547D01*
X196552000Y-41530656D01*
X196102000Y-41530656D01*
X196002000Y-41550547D01*
X195902000Y-41530656D01*
X195452000Y-41530656D01*
X195354000Y-41550150D01*
X195354000Y-41392554D01*
X195220484Y-41070220D01*
X194973780Y-40823516D01*
X194651446Y-40690000D01*
X194302554Y-40690000D01*
X193980220Y-40823516D01*
X193733516Y-41070220D01*
X193681353Y-41196151D01*
X193545794Y-41140000D01*
X192958206Y-41140000D01*
X192415347Y-41364860D01*
X191999860Y-41780347D01*
X191775000Y-42323206D01*
X191775000Y-42910794D01*
X191999860Y-43453653D01*
X192415347Y-43869140D01*
X192958206Y-44094000D01*
X193545794Y-44094000D01*
X194088653Y-43869140D01*
X194504140Y-43453653D01*
X194729000Y-42910794D01*
X194729000Y-42411876D01*
X194965656Y-42313849D01*
X194965656Y-43317000D01*
X195002677Y-43503116D01*
X195075001Y-43611356D01*
X195075001Y-43856155D01*
X194921291Y-44009865D01*
X194803000Y-44295445D01*
X194803000Y-44604555D01*
X194921291Y-44890135D01*
X195139865Y-45108709D01*
X195425445Y-45227000D01*
X195734555Y-45227000D01*
X196020135Y-45108709D01*
X196238709Y-44890135D01*
X196357000Y-44604555D01*
X196357000Y-44295445D01*
X196279000Y-44107136D01*
X196279000Y-43803344D01*
X196423001Y-43803344D01*
X196423000Y-49224526D01*
X195988844Y-49658683D01*
X195942590Y-49689589D01*
X195911684Y-49735843D01*
X195911682Y-49735845D01*
X195897777Y-49756656D01*
X195892000Y-49756656D01*
X195705884Y-49793677D01*
X195548103Y-49899103D01*
X195545232Y-49903400D01*
X195484897Y-49813103D01*
X195382133Y-49744439D01*
X195500699Y-49695327D01*
X195679327Y-49516698D01*
X195776000Y-49283309D01*
X195776000Y-48842750D01*
X195617250Y-48684000D01*
X194818000Y-48684000D01*
X194818000Y-48704000D01*
X194564000Y-48704000D01*
X194564000Y-48684000D01*
X193764750Y-48684000D01*
X193606000Y-48842750D01*
X193606000Y-49283309D01*
X193702673Y-49516698D01*
X193881301Y-49695327D01*
X193999867Y-49744439D01*
X193897103Y-49813103D01*
X193791677Y-49970884D01*
X193754656Y-50157000D01*
X193754656Y-51357000D01*
X193791677Y-51543116D01*
X193897103Y-51700897D01*
X194054884Y-51806323D01*
X194241000Y-51843344D01*
X195141000Y-51843344D01*
X195327116Y-51806323D01*
X195484897Y-51700897D01*
X195487768Y-51696600D01*
X195548103Y-51786897D01*
X195705884Y-51892323D01*
X195892000Y-51929344D01*
X196792000Y-51929344D01*
X196978116Y-51892323D01*
X197135897Y-51786897D01*
X197167500Y-51739600D01*
X197199103Y-51786897D01*
X197356884Y-51892323D01*
X197543000Y-51929344D01*
X198443000Y-51929344D01*
X198629116Y-51892323D01*
X198786897Y-51786897D01*
X198892323Y-51629116D01*
X198929344Y-51443000D01*
X198929344Y-50243000D01*
X198892323Y-50056884D01*
X198786897Y-49899103D01*
X198629116Y-49793677D01*
X198443000Y-49756656D01*
X198437225Y-49756656D01*
X198423318Y-49735843D01*
X198423315Y-49735840D01*
X198392411Y-49689589D01*
X198346159Y-49658684D01*
X198181000Y-49493526D01*
X198181000Y-49181064D01*
X198207242Y-49198598D01*
X198729401Y-49720757D01*
X198762983Y-49771017D01*
X198813242Y-49804599D01*
X198813244Y-49804601D01*
X198886294Y-49853411D01*
X198962112Y-49904071D01*
X199137712Y-49939000D01*
X199137717Y-49939000D01*
X199197000Y-49950792D01*
X199256283Y-49939000D01*
X199406156Y-49939000D01*
X199239291Y-50105865D01*
X199121000Y-50391445D01*
X199121000Y-50700555D01*
X199239291Y-50986135D01*
X199457865Y-51204709D01*
X199743445Y-51323000D01*
X200052555Y-51323000D01*
X200338135Y-51204709D01*
X200556709Y-50986135D01*
X200655656Y-50747256D01*
X200655656Y-51429000D01*
X200692677Y-51615116D01*
X200737626Y-51682387D01*
X200720039Y-51664800D01*
X200269065Y-51478000D01*
X199780935Y-51478000D01*
X199329961Y-51664800D01*
X198984800Y-52009961D01*
X198886272Y-52247828D01*
X198786897Y-52099103D01*
X198629116Y-51993677D01*
X198443000Y-51956656D01*
X197543000Y-51956656D01*
X197356884Y-51993677D01*
X197199103Y-52099103D01*
X197167500Y-52146400D01*
X197135897Y-52099103D01*
X196978116Y-51993677D01*
X196792000Y-51956656D01*
X195892000Y-51956656D01*
X195705884Y-51993677D01*
X195548103Y-52099103D01*
X195451070Y-52244323D01*
X195351309Y-52203000D01*
X194910750Y-52203000D01*
X194752000Y-52361750D01*
X194752000Y-53086000D01*
X194772000Y-53086000D01*
X194772000Y-53340000D01*
X194752000Y-53340000D01*
X194752000Y-53360000D01*
X194498000Y-53360000D01*
X194498000Y-53340000D01*
X194478000Y-53340000D01*
X194478000Y-53086000D01*
X194498000Y-53086000D01*
X194498000Y-52361750D01*
X194339250Y-52203000D01*
X193898691Y-52203000D01*
X193665302Y-52299673D01*
X193550189Y-52414785D01*
X193511116Y-52388677D01*
X193427512Y-52372047D01*
X193436000Y-52351555D01*
X193436000Y-52042445D01*
X193317709Y-51756865D01*
X193099135Y-51538291D01*
X192813555Y-51420000D01*
X192504445Y-51420000D01*
X192218865Y-51538291D01*
X192070000Y-51687156D01*
X192070000Y-51362556D01*
X192080852Y-51307999D01*
X192070000Y-51253443D01*
X192070000Y-51253438D01*
X192037856Y-51091840D01*
X191915411Y-50908589D01*
X191869156Y-50877682D01*
X191816000Y-50824526D01*
X191816000Y-50755620D01*
X191957039Y-50697200D01*
X192302200Y-50352039D01*
X192489000Y-49901065D01*
X192489000Y-49412935D01*
X192302200Y-48961961D01*
X191957039Y-48616800D01*
X191506065Y-48430000D01*
X191017935Y-48430000D01*
X190566961Y-48616800D01*
X190221800Y-48961961D01*
X190035000Y-49412935D01*
X190035000Y-49901065D01*
X190221800Y-50352039D01*
X190566961Y-50697200D01*
X190708000Y-50755620D01*
X190708000Y-50999442D01*
X190697148Y-51054000D01*
X190708000Y-51108558D01*
X190708000Y-51108561D01*
X190725250Y-51195283D01*
X190654555Y-51166000D01*
X190345445Y-51166000D01*
X190059865Y-51284291D01*
X189841291Y-51502865D01*
X189723000Y-51788445D01*
X189723000Y-52097555D01*
X189812661Y-52314016D01*
X189781103Y-52335103D01*
X189675677Y-52492884D01*
X189638656Y-52679000D01*
X189638656Y-53879000D01*
X189675677Y-54065116D01*
X189781103Y-54222897D01*
X189790237Y-54229000D01*
X189781103Y-54235103D01*
X189675677Y-54392884D01*
X189638656Y-54579000D01*
X189638656Y-55779000D01*
X189675677Y-55965116D01*
X189777450Y-56117430D01*
X189706103Y-56165103D01*
X189600677Y-56322884D01*
X189563656Y-56509000D01*
X189563656Y-57709000D01*
X189600677Y-57895116D01*
X189706103Y-58052897D01*
X189863884Y-58158323D01*
X190050000Y-58195344D01*
X190950000Y-58195344D01*
X191136116Y-58158323D01*
X191293897Y-58052897D01*
X191343001Y-57979408D01*
X191343000Y-58438591D01*
X191293897Y-58365103D01*
X191136116Y-58259677D01*
X190950000Y-58222656D01*
X190050000Y-58222656D01*
X189863884Y-58259677D01*
X189706103Y-58365103D01*
X189600677Y-58522884D01*
X189563656Y-58709000D01*
X189563656Y-59909000D01*
X189600677Y-60095116D01*
X189706103Y-60252897D01*
X189774991Y-60298927D01*
X189723000Y-60424445D01*
X189723000Y-60733555D01*
X189841291Y-61019135D01*
X190059865Y-61237709D01*
X190345445Y-61356000D01*
X190654555Y-61356000D01*
X190940135Y-61237709D01*
X191158709Y-61019135D01*
X191277000Y-60733555D01*
X191277000Y-60424445D01*
X191225009Y-60298927D01*
X191255588Y-60278494D01*
X191355858Y-60520568D01*
X191451418Y-60616128D01*
X191460567Y-60662125D01*
X191460567Y-60662128D01*
X191492711Y-60823726D01*
X191615156Y-61006978D01*
X191661413Y-61037886D01*
X191938526Y-61315000D01*
X191896998Y-61315000D01*
X191896998Y-61473748D01*
X191738250Y-61315000D01*
X191522690Y-61315000D01*
X191289301Y-61411673D01*
X191110673Y-61590302D01*
X191014000Y-61823691D01*
X191014000Y-62264250D01*
X191172750Y-62423000D01*
X191897000Y-62423000D01*
X191897000Y-62403000D01*
X192151000Y-62403000D01*
X192151000Y-62423000D01*
X192171000Y-62423000D01*
X192171000Y-62677000D01*
X192151000Y-62677000D01*
X192151000Y-62697000D01*
X191897000Y-62697000D01*
X191897000Y-62677000D01*
X191172750Y-62677000D01*
X191014000Y-62835750D01*
X191014000Y-62946282D01*
X190781555Y-62850000D01*
X190472445Y-62850000D01*
X190186865Y-62968291D01*
X189968291Y-63186865D01*
X189850000Y-63472445D01*
X189850000Y-63781555D01*
X189968291Y-64067135D01*
X190036156Y-64135000D01*
X189841291Y-64329865D01*
X189723000Y-64615445D01*
X189723000Y-64924555D01*
X189830143Y-65183222D01*
X189723771Y-65254297D01*
X188133000Y-63663527D01*
X188133000Y-59724344D01*
X188379000Y-59724344D01*
X188565116Y-59687323D01*
X188722897Y-59581897D01*
X188828323Y-59424116D01*
X188865344Y-59238000D01*
X188865344Y-57058000D01*
X188828323Y-56871884D01*
X188722897Y-56714103D01*
X188565116Y-56608677D01*
X188413407Y-56578500D01*
X188565116Y-56548323D01*
X188722897Y-56442897D01*
X188828323Y-56285116D01*
X188865344Y-56099000D01*
X188865344Y-53919000D01*
X188828323Y-53732884D01*
X188722897Y-53575103D01*
X188565116Y-53469677D01*
X188379000Y-53432656D01*
X186779000Y-53432656D01*
X186592884Y-53469677D01*
X186435103Y-53575103D01*
X186329677Y-53732884D01*
X186292656Y-53919000D01*
X186292656Y-54510812D01*
X186241135Y-54459291D01*
X185955555Y-54341000D01*
X185646445Y-54341000D01*
X185360865Y-54459291D01*
X185142291Y-54677865D01*
X185024000Y-54963445D01*
X185024000Y-55272555D01*
X185142291Y-55558135D01*
X185360865Y-55776709D01*
X185646445Y-55895000D01*
X185955555Y-55895000D01*
X186241135Y-55776709D01*
X186292656Y-55725188D01*
X186292656Y-56099000D01*
X186329677Y-56285116D01*
X186435103Y-56442897D01*
X186592884Y-56548323D01*
X186744593Y-56578500D01*
X186592884Y-56608677D01*
X186435103Y-56714103D01*
X186329677Y-56871884D01*
X186292656Y-57058000D01*
X186292656Y-59238000D01*
X186329677Y-59424116D01*
X186435103Y-59581897D01*
X186592884Y-59687323D01*
X186779000Y-59724344D01*
X187025000Y-59724344D01*
X187025001Y-63838437D01*
X187014148Y-63893000D01*
X187057144Y-64109159D01*
X187148682Y-64246155D01*
X187148684Y-64246157D01*
X187179590Y-64292411D01*
X187225844Y-64323317D01*
X189465683Y-66563157D01*
X189496589Y-66609411D01*
X189563656Y-66654224D01*
X189563656Y-66810000D01*
X189600677Y-66996116D01*
X189706103Y-67153897D01*
X189808867Y-67222561D01*
X189690301Y-67271673D01*
X189511673Y-67450302D01*
X189415000Y-67683691D01*
X189415000Y-68124250D01*
X189573750Y-68283000D01*
X190373000Y-68283000D01*
X190373000Y-68263000D01*
X190627000Y-68263000D01*
X190627000Y-68283000D01*
X190647000Y-68283000D01*
X190647000Y-68537000D01*
X190627000Y-68537000D01*
X190627000Y-69486250D01*
X190785750Y-69645000D01*
X191076310Y-69645000D01*
X191247000Y-69574298D01*
X191247000Y-69623555D01*
X191365291Y-69909135D01*
X191583865Y-70127709D01*
X191869445Y-70246000D01*
X192178555Y-70246000D01*
X192359000Y-70171257D01*
X192359000Y-70737156D01*
X192210135Y-70588291D01*
X191924555Y-70470000D01*
X191615445Y-70470000D01*
X191329865Y-70588291D01*
X191273156Y-70645000D01*
X186431356Y-70645000D01*
X183228000Y-67441644D01*
X183228000Y-66238000D01*
X186292656Y-66238000D01*
X186292656Y-68418000D01*
X186329677Y-68604116D01*
X186435103Y-68761897D01*
X186592884Y-68867323D01*
X186779000Y-68904344D01*
X186919264Y-68904344D01*
X186802000Y-69187445D01*
X186802000Y-69496555D01*
X186920291Y-69782135D01*
X187138865Y-70000709D01*
X187424445Y-70119000D01*
X187733555Y-70119000D01*
X188019135Y-70000709D01*
X188237709Y-69782135D01*
X188356000Y-69496555D01*
X188356000Y-69187445D01*
X188238736Y-68904344D01*
X188379000Y-68904344D01*
X188565116Y-68867323D01*
X188722897Y-68761897D01*
X188767095Y-68695750D01*
X189415000Y-68695750D01*
X189415000Y-69136309D01*
X189511673Y-69369698D01*
X189690301Y-69548327D01*
X189923690Y-69645000D01*
X190214250Y-69645000D01*
X190373000Y-69486250D01*
X190373000Y-68537000D01*
X189573750Y-68537000D01*
X189415000Y-68695750D01*
X188767095Y-68695750D01*
X188828323Y-68604116D01*
X188865344Y-68418000D01*
X188865344Y-66238000D01*
X188828323Y-66051884D01*
X188722897Y-65894103D01*
X188565116Y-65788677D01*
X188379000Y-65751656D01*
X186779000Y-65751656D01*
X186592884Y-65788677D01*
X186435103Y-65894103D01*
X186329677Y-66051884D01*
X186292656Y-66238000D01*
X183228000Y-66238000D01*
X183228000Y-51303356D01*
X185923357Y-48608000D01*
X187717156Y-48608000D01*
X187773865Y-48664709D01*
X188059445Y-48783000D01*
X188368555Y-48783000D01*
X188654135Y-48664709D01*
X188872709Y-48446135D01*
X188991000Y-48160555D01*
X188991000Y-47851445D01*
X188982404Y-47830691D01*
X193606000Y-47830691D01*
X193606000Y-48271250D01*
X193764750Y-48430000D01*
X194564000Y-48430000D01*
X194564000Y-47480750D01*
X194818000Y-47480750D01*
X194818000Y-48430000D01*
X195617250Y-48430000D01*
X195776000Y-48271250D01*
X195776000Y-47830691D01*
X195679327Y-47597302D01*
X195500699Y-47418673D01*
X195267310Y-47322000D01*
X194976750Y-47322000D01*
X194818000Y-47480750D01*
X194564000Y-47480750D01*
X194405250Y-47322000D01*
X194114690Y-47322000D01*
X193881301Y-47418673D01*
X193702673Y-47597302D01*
X193606000Y-47830691D01*
X188982404Y-47830691D01*
X188872709Y-47565865D01*
X188751435Y-47444591D01*
X188917327Y-47278698D01*
X189014000Y-47045309D01*
X189014000Y-46114750D01*
X188855250Y-45956000D01*
X187706000Y-45956000D01*
X187706000Y-45976000D01*
X187452000Y-45976000D01*
X187452000Y-45956000D01*
X186302750Y-45956000D01*
X186144000Y-46114750D01*
X186144000Y-47045309D01*
X186240673Y-47278698D01*
X186365974Y-47404000D01*
X185733283Y-47404000D01*
X185674000Y-47392208D01*
X185614717Y-47404000D01*
X185614712Y-47404000D01*
X185439112Y-47438929D01*
X185439110Y-47438930D01*
X185439111Y-47438930D01*
X185290244Y-47538399D01*
X185290242Y-47538401D01*
X185239983Y-47571983D01*
X185206401Y-47622242D01*
X182242245Y-50586399D01*
X182191983Y-50619983D01*
X182058929Y-50819113D01*
X182024000Y-50994713D01*
X182024000Y-50994717D01*
X182012208Y-51054000D01*
X181019000Y-51054000D01*
X181019000Y-44612691D01*
X186144000Y-44612691D01*
X186144000Y-45543250D01*
X186302750Y-45702000D01*
X187452000Y-45702000D01*
X187452000Y-44262750D01*
X187706000Y-44262750D01*
X187706000Y-45702000D01*
X188855250Y-45702000D01*
X189014000Y-45543250D01*
X189014000Y-44612691D01*
X188917327Y-44379302D01*
X188738699Y-44200673D01*
X188505310Y-44104000D01*
X187864750Y-44104000D01*
X187706000Y-44262750D01*
X187452000Y-44262750D01*
X187293250Y-44104000D01*
X186652690Y-44104000D01*
X186419301Y-44200673D01*
X186240673Y-44379302D01*
X186144000Y-44612691D01*
X181019000Y-44612691D01*
X181019000Y-41175002D01*
X181068007Y-40675185D01*
X182281000Y-40675185D01*
X182281000Y-41620815D01*
X182642877Y-42494462D01*
X183311538Y-43163123D01*
X184185185Y-43525000D01*
X185130815Y-43525000D01*
X186004462Y-43163123D01*
X186673123Y-42494462D01*
X186753284Y-42300935D01*
X188257000Y-42300935D01*
X188257000Y-42789065D01*
X188443800Y-43240039D01*
X188788961Y-43585200D01*
X189239935Y-43772000D01*
X189728065Y-43772000D01*
X190179039Y-43585200D01*
X190524200Y-43240039D01*
X190711000Y-42789065D01*
X190711000Y-42300935D01*
X190524200Y-41849961D01*
X190179039Y-41504800D01*
X190086000Y-41466262D01*
X190086000Y-40953282D01*
X190097792Y-40893999D01*
X190086000Y-40834716D01*
X190086000Y-40834712D01*
X190054269Y-40675185D01*
X207300000Y-40675185D01*
X207300000Y-41620815D01*
X207661877Y-42494462D01*
X208330538Y-43163123D01*
X209204185Y-43525000D01*
X210149815Y-43525000D01*
X211023462Y-43163123D01*
X211692123Y-42494462D01*
X212054000Y-41620815D01*
X212054000Y-40675185D01*
X211692123Y-39801538D01*
X211023462Y-39132877D01*
X210149815Y-38771000D01*
X209204185Y-38771000D01*
X208330538Y-39132877D01*
X207661877Y-39801538D01*
X207300000Y-40675185D01*
X190054269Y-40675185D01*
X190051071Y-40659112D01*
X190049754Y-40657140D01*
X190007000Y-40593155D01*
X190007000Y-40485445D01*
X189888709Y-40199865D01*
X189670135Y-39981291D01*
X189384555Y-39863000D01*
X189075445Y-39863000D01*
X188789865Y-39981291D01*
X188571291Y-40199865D01*
X188453000Y-40485445D01*
X188453000Y-40794555D01*
X188571291Y-41080135D01*
X188789865Y-41298709D01*
X188882001Y-41336873D01*
X188882001Y-41466262D01*
X188788961Y-41504800D01*
X188443800Y-41849961D01*
X188257000Y-42300935D01*
X186753284Y-42300935D01*
X187035000Y-41620815D01*
X187035000Y-40675185D01*
X186673123Y-39801538D01*
X186004462Y-39132877D01*
X185130815Y-38771000D01*
X184185185Y-38771000D01*
X183311538Y-39132877D01*
X182642877Y-39801538D01*
X182281000Y-40675185D01*
X181068007Y-40675185D01*
X181090902Y-40441692D01*
X181296025Y-39762294D01*
X181629205Y-39135672D01*
X182077747Y-38585705D01*
X182624579Y-38133327D01*
X183248854Y-37795782D01*
X183926807Y-37585919D01*
X184658627Y-37509002D01*
X184659063Y-37509000D01*
X192661517Y-37509000D01*
X192321992Y-37649636D01*
G36*
X193897000Y-62184000D02*
X193643000Y-62184000D01*
X193643000Y-62170344D01*
X193897000Y-62170344D01*
X193897000Y-62184000D01*
X193897000Y-62184000D01*
G37*
X193897000Y-62184000D02*
X193643000Y-62184000D01*
X193643000Y-62170344D01*
X193897000Y-62170344D01*
X193897000Y-62184000D01*
G04 #@! TD*
M02*
